<svg width="127" height="40" viewBox="0 0 127 40" fill="none" xmlns="http://www.w3.org/2000/svg">
<path d="M107.218 4.64982C109.293 4.64547 111.368 4.64112 113.506 4.63664C114.485 4.63376 114.485 4.63376 115.483 4.63082C116.287 4.62987 116.287 4.62987 116.665 4.62969C116.925 4.6295 117.186 4.62872 117.447 4.62756C122.916 4.6043 122.916 4.6043 124.717 6.2647C125.983 7.58933 126.228 9.30234 126.208 11.0577C126.171 12.3826 125.692 13.466 124.745 14.3944C124.345 14.7715 123.915 15.1147 123.448 15.405C123.702 15.6143 123.965 15.7988 124.239 15.9806C125.368 16.7529 125.974 17.7399 126.232 19.0733C126.416 20.9059 126.281 22.8574 125.14 24.3716C124.05 25.683 122.253 26.0965 120.629 26.2556C119.493 26.3504 118.347 26.3185 117.209 26.3151C116.891 26.3143 116.574 26.3142 116.256 26.3141C115.332 26.3134 114.408 26.3115 113.484 26.3096C111.416 26.3067 109.348 26.3038 107.218 26.3008C107.218 19.156 107.218 12.0112 107.218 4.64982ZM112.066 8.86755C112.066 10.329 112.066 11.7904 112.066 13.2962C113.305 13.3044 113.305 13.3044 114.544 13.3099C115.05 13.3116 115.556 13.3136 116.061 13.3174C116.47 13.3205 116.878 13.3221 117.286 13.3229C117.441 13.3234 117.596 13.3244 117.752 13.3259C119.225 13.3577 119.225 13.3577 120.522 12.7223C120.98 12.213 121.08 11.608 121.07 10.9468C121.038 10.375 120.879 9.93519 120.497 9.50021C119.893 8.9602 119.146 8.83414 118.359 8.84361C118.291 8.84358 118.222 8.84355 118.151 8.84352C117.927 8.84366 117.704 8.8453 117.48 8.84696C117.323 8.84735 117.167 8.84765 117.01 8.84786C116.601 8.84866 116.191 8.85073 115.782 8.85307C115.289 8.85562 114.797 8.85658 114.304 8.85781C113.558 8.85985 112.812 8.86389 112.066 8.86755ZM112.066 17.5139C112.066 19.0449 112.066 20.576 112.066 22.1534C113.175 22.1575 113.175 22.1575 114.284 22.1603C114.737 22.1611 115.19 22.1621 115.643 22.164C116.009 22.1656 116.375 22.1664 116.741 22.1668C116.879 22.167 117.018 22.1675 117.157 22.1683C119.043 22.2217 119.043 22.2217 120.657 21.3774C121.097 20.8773 121.136 20.2676 121.13 19.6228C121.076 19.0269 120.893 18.5132 120.458 18.0938C119.828 17.5778 119.055 17.5028 118.272 17.5059C118.204 17.5059 118.137 17.5059 118.068 17.5059C117.847 17.5059 117.625 17.5065 117.404 17.507C117.25 17.5072 117.097 17.5073 116.943 17.5073C116.539 17.5076 116.135 17.5083 115.731 17.5091C115.245 17.5099 114.76 17.5102 114.275 17.5107C113.539 17.5113 112.802 17.5127 112.066 17.5139Z" fill="#171717"/>
<path d="M86.7017 5.15059C88.4125 5.14582 90.1233 5.14194 91.8341 5.13967C92.6285 5.13858 93.423 5.1371 94.2175 5.13468C94.9104 5.13257 95.6033 5.13122 96.2962 5.13075C96.6627 5.13048 97.0291 5.12984 97.3956 5.1283C97.7414 5.12685 98.0873 5.12643 98.4331 5.12674C98.5592 5.12668 98.6852 5.12627 98.8113 5.12545C100.626 5.11428 102.421 5.46661 103.775 6.76739C105.066 8.18434 105.263 10.0602 105.181 11.899C105.064 13.5009 104.633 14.8836 103.494 16.0464C103.432 16.1126 103.432 16.1126 103.368 16.1801C102.116 17.3999 100.168 17.5433 98.5174 17.5419C98.3399 17.5418 98.1625 17.5428 97.985 17.5439C97.4812 17.5471 96.9775 17.5489 96.4738 17.5494C96.1631 17.5497 95.8525 17.5515 95.5419 17.554C95.4251 17.5547 95.3084 17.5548 95.1916 17.5545C94.1856 17.5513 93.0561 17.6145 92.2524 18.2959C91.234 19.3502 91.4477 21.5298 91.4092 22.7245C95.9306 22.7245 100.452 22.7245 105.11 22.7245C105.11 23.9308 105.11 25.137 105.11 26.3799C99.0355 26.3799 92.9606 26.3799 86.7017 26.3799C86.7017 16.9028 86.7017 16.9028 88.1494 15.3654C88.9107 14.6299 89.8817 14.2597 90.8954 14.021C90.9524 14.0073 91.0093 13.9936 91.068 13.9795C92.1712 13.7402 93.2961 13.7154 94.4201 13.7074C94.476 13.707 94.532 13.7066 94.5896 13.7062C95.1152 13.7026 95.6409 13.7004 96.1665 13.6999C96.457 13.6995 96.7476 13.6978 97.0381 13.6953C97.1473 13.6946 97.2565 13.6944 97.3656 13.6948C98.1394 13.6974 98.8859 13.6323 99.5201 13.1366C99.9973 12.646 100.19 12.0568 100.214 11.3893C100.2 10.7362 100.063 10.0126 99.5868 9.5361C98.9783 9.02817 98.1729 8.86942 97.3985 8.86513C97.3525 8.86479 97.3066 8.86444 97.2592 8.86408C97.1061 8.86301 96.953 8.86242 96.8 8.86182C96.6898 8.86115 96.5797 8.86045 96.4696 8.85971C96.1713 8.85782 95.873 8.85634 95.5747 8.85493C95.2627 8.85339 94.9507 8.85147 94.6388 8.84959C94.0483 8.84608 93.4578 8.84292 92.8673 8.83989C92.1949 8.83641 91.5226 8.83255 90.8502 8.82866C89.4673 8.82067 88.0845 8.81321 86.7017 8.80596C86.7017 7.59969 86.7017 6.39342 86.7017 5.15059Z" fill="#00A82D"/>
<path d="M52.8358 4.45544C53.6474 4.45544 54.4589 4.45544 55.295 4.45544C55.295 11.6699 55.295 18.8843 55.295 26.3174C54.4835 26.3174 53.6719 26.3174 52.8358 26.3174C52.8126 25.6678 52.7895 25.0183 52.7656 24.3491C52.6351 24.4535 52.5047 24.5579 52.3703 24.6654C51.4441 25.3819 50.5117 25.7818 49.393 26.1065C49.2669 26.1448 49.2669 26.1448 49.1383 26.1839C47.0709 26.7059 44.5229 26.3036 42.6866 25.2313C40.9726 24.1821 39.663 22.5442 39.1723 20.5741C38.6227 18.2132 38.7659 15.7823 40.0481 13.6642C40.2434 13.3685 40.4537 13.0927 40.6805 12.8206C40.7346 12.7549 40.7888 12.6892 40.8446 12.6215C42.1516 11.1087 44.2072 10.1349 46.1961 9.96486C46.2533 9.9596 46.3105 9.95435 46.3695 9.94893C48.1888 9.8598 49.9103 10.2091 51.5096 11.0852C51.5541 11.1093 51.5986 11.1334 51.6444 11.1582C52.0641 11.3956 52.3751 11.6645 52.7656 11.9771C52.7888 9.49493 52.8119 7.0128 52.8358 4.45544ZM42.5345 14.5764C41.4131 15.9976 41.2811 17.7198 41.4734 19.4705C41.5223 19.7786 41.6134 20.0556 41.7344 20.3422C41.7621 20.4101 41.7621 20.4101 41.7904 20.4794C42.4043 21.9489 43.5826 22.8995 45.0367 23.5055C46.2423 23.9286 47.7513 23.9586 48.9714 23.5758C49.0481 23.5519 49.1248 23.528 49.2039 23.5033C50.4629 23.0642 51.5664 22.1351 52.1862 20.9502C52.8859 19.3957 53.073 17.6896 52.4916 16.0669C51.9763 14.7404 51.0825 13.7098 49.7926 13.0886C47.2409 11.9676 44.4033 12.4336 42.5345 14.5764Z" fill="#171717"/>
<path d="M71.5351 11.902C73.2691 13.3921 74.0844 15.3786 74.2649 17.6275C74.2649 18.0915 74.2649 18.5554 74.2649 19.0334C69.6972 19.0334 65.1294 19.0334 60.4233 19.0334C60.7875 20.7342 61.3788 21.9226 62.8122 22.8997C64.2194 23.7999 65.8936 24.0154 67.5099 23.6757C68.5085 23.4402 69.4779 22.9444 70.1897 22.1967C70.227 22.133 70.2642 22.0692 70.3026 22.0036C70.4764 21.7222 70.639 21.473 70.9735 21.3825C71.4154 21.3258 71.8584 21.3531 72.302 21.3752C72.4379 21.3791 72.5738 21.3826 72.7097 21.3857C73.041 21.3942 73.3718 21.4075 73.7028 21.4235C73.3538 22.321 72.9448 23.0927 72.2976 23.8135C72.2588 23.8573 72.22 23.9011 72.1801 23.9462C71.497 24.6719 70.6464 25.1887 69.7681 25.6412C69.7031 25.6759 69.6381 25.7106 69.5711 25.7464C67.8339 26.5742 65.271 26.6466 63.4445 26.063C63.3963 26.0479 63.3481 26.0329 63.2985 26.0174C61.416 25.4113 59.7184 24.1248 58.7452 22.3815C58.085 21.0911 57.7953 19.6837 57.8016 18.2426C57.8018 18.1945 57.802 18.1463 57.8021 18.0967C57.8147 15.8562 58.5739 13.8091 60.1723 12.2207C60.6126 11.7997 61.0914 11.4647 61.6177 11.1603C61.6848 11.1215 61.6848 11.1215 61.7533 11.0818C64.7952 9.36081 68.8329 9.67426 71.5351 11.902ZM61.8285 14.2533C61.7683 14.311 61.708 14.3686 61.646 14.428C61.0945 15.0058 60.6944 15.7892 60.5638 16.5731C64.1809 16.5731 67.798 16.5731 71.5247 16.5731C71.2327 15.502 70.8199 14.8068 70.0492 14.0425C70.0046 13.9955 69.9601 13.9486 69.9141 13.9002C68.9681 12.9747 67.3413 12.5408 66.0555 12.4877C64.4251 12.5482 62.9935 13.1081 61.8285 14.2533Z" fill="#171717"/>
<path d="M28.4593 9.99824C28.5232 10.0016 28.587 10.0049 28.6528 10.0083C30.5382 10.1225 32.5004 10.7242 33.8651 12.0895C33.8883 11.3936 33.9115 10.6977 33.9353 9.98067C34.7237 9.98067 35.512 9.98067 36.3243 9.98067C36.3243 15.3857 36.3243 20.7907 36.3243 26.3595C35.5359 26.3595 34.7476 26.3595 33.9353 26.3595C33.9122 25.6868 33.889 25.0141 33.8651 24.321C33.6796 24.4833 33.4941 24.6457 33.303 24.813C33.1397 24.9254 32.9814 25.0297 32.8112 25.1294C32.7664 25.1558 32.7217 25.1822 32.6756 25.2095C31.3332 25.9839 29.932 26.3881 28.3803 26.3815C28.3323 26.3814 28.2843 26.3812 28.2349 26.3811C27.4727 26.3777 26.737 26.3369 25.9957 26.1486C25.9487 26.137 25.9016 26.1253 25.8532 26.1132C25.1029 25.9197 24.4237 25.6094 23.7473 25.2348C23.678 25.1966 23.6086 25.1583 23.5371 25.1189C21.8711 24.1285 20.711 22.3875 20.2091 20.5392C19.6343 18.2445 19.8979 15.9409 21.0071 13.8469C21.3404 13.3026 21.7655 12.8342 22.2016 12.3707C22.2438 12.3231 22.286 12.2756 22.3295 12.2266C23.8254 10.6101 26.3071 9.88499 28.4593 9.99824ZM23.7473 14.4093C22.6108 15.7847 22.3398 17.4843 22.498 19.2167C22.6806 20.5971 23.403 21.8113 24.5004 22.6566C25.0282 23.0373 25.5891 23.339 26.2065 23.5477C26.2859 23.5753 26.3654 23.6028 26.4472 23.6312C27.9461 24.0797 29.5551 23.9256 30.9379 23.2105C32.4284 22.4019 33.2321 21.2669 33.7224 19.6707C34.0953 18.2179 33.9146 16.6462 33.1932 15.3344C32.9061 14.8602 32.5659 14.4533 32.1788 14.0578C32.1178 13.993 32.1178 13.993 32.0556 13.9268C31.0385 12.9366 29.4935 12.5326 28.1168 12.4893C26.457 12.5269 24.8926 13.1956 23.7473 14.4093Z" fill="#171717"/>
<path d="M0.279172 4.45544C1.0907 4.45544 1.90223 4.45544 2.73835 4.45544C2.73835 6.24165 2.73835 8.02786 2.73835 9.8682C4.89469 9.8682 7.05103 9.8682 9.27272 9.8682C9.27272 10.6801 9.27272 11.492 9.27272 12.3285C7.11638 12.3285 4.96003 12.3285 2.73835 12.3285C2.74414 13.2622 2.74994 14.1959 2.75591 15.1579C2.75758 15.5956 2.75758 15.5956 2.75927 16.0422C2.76162 16.3101 2.76162 16.3101 2.76431 16.5781C2.76532 16.6949 2.76581 16.8117 2.76586 16.9285C2.76788 19.0152 3.26686 20.6327 4.70569 22.1699C4.74273 22.214 4.77977 22.258 4.81794 22.3034C5.63653 23.2292 7.26193 23.7156 8.45802 23.7984C8.87006 23.8236 9.28168 23.8404 9.69429 23.857C9.69429 24.6689 9.69429 25.4808 9.69429 26.3174C7.69973 26.3501 7.69973 26.3501 6.74329 26.1065C6.69711 26.0948 6.65093 26.0831 6.60335 26.071C4.48053 25.5123 2.59983 24.1929 1.48214 22.2897C0.526429 20.6031 0.243296 18.7858 0.255242 16.8728C0.255302 16.7362 0.255268 16.5996 0.255149 16.4629C0.255089 16.0969 0.256317 15.7308 0.2578 15.3648C0.25913 14.9804 0.259242 14.596 0.259491 14.2117C0.260143 13.486 0.261868 12.7603 0.263991 12.0347C0.266359 11.2076 0.267509 10.3805 0.268565 9.55344C0.27076 7.8541 0.274503 6.15477 0.279172 4.45544Z" fill="#171717"/>
<path d="M77.2166 9.98067C78.0281 9.98067 78.8396 9.98067 79.6757 9.98067C79.7105 10.5026 79.7105 10.5026 79.746 11.0351C79.859 10.9626 79.9721 10.8901 80.0885 10.8154C81.0334 10.2617 82.0241 10.0379 83.1098 10.0466C83.3677 10.048 83.6257 10.0495 83.8915 10.051C83.8915 10.8397 83.8915 11.6284 83.8915 12.441C83.6538 12.4584 83.4161 12.4758 83.1713 12.4937C82.1149 12.5848 81.2773 12.8274 80.532 13.6229C79.7455 14.5842 79.7365 15.7384 79.7316 16.9253C79.7309 17.0292 79.7302 17.1332 79.7295 17.2372C79.7276 17.5177 79.7261 17.7983 79.7247 18.0788C79.7231 18.3727 79.7212 18.6665 79.7193 18.9604C79.7158 19.516 79.7127 20.0717 79.7096 20.6273C79.7062 21.2602 79.7023 21.8932 79.6984 22.5261C79.6904 23.8273 79.683 25.1286 79.6757 26.4298C78.8642 26.4298 78.0527 26.4298 77.2166 26.4298C77.2166 21.0016 77.2166 15.5734 77.2166 9.98067Z" fill="#171717"/>
<path d="M12.2244 9.98067C13.0127 9.98067 13.801 9.98067 14.6133 9.98067C14.6133 10.3518 14.6133 10.723 14.6133 11.1054C14.7567 11.0199 14.9002 10.9343 15.048 10.8462C16.3169 10.1101 17.4418 9.98067 18.8993 9.98067C18.8993 10.7926 18.8993 11.6045 18.8993 12.441C18.708 12.4483 18.5167 12.4555 18.3196 12.463C17.3731 12.5108 16.3437 12.6955 15.6672 13.4251C14.8149 14.4077 14.7444 15.4729 14.7394 16.7193C14.7387 16.8246 14.738 16.93 14.7373 17.0353C14.7354 17.32 14.7339 17.6046 14.7325 17.8892C14.7309 18.1872 14.729 18.4852 14.7271 18.7831C14.7236 19.3467 14.7205 19.9104 14.7174 20.474C14.714 21.1159 14.7101 21.7578 14.7062 22.3998C14.6982 23.7197 14.6908 25.0396 14.6835 26.3595C13.872 26.3595 13.0605 26.3595 12.2244 26.3595C12.2244 20.9545 12.2244 15.5495 12.2244 9.98067Z" fill="#171717"/>
<path d="M125.694 0.253199C126.297 0.669585 126.743 1.15329 126.883 1.89279C126.95 2.59915 126.786 3.21096 126.372 3.78802C125.969 4.26375 125.472 4.51788 124.856 4.58626C124.12 4.61574 123.509 4.40291 122.944 3.93054C122.51 3.48617 122.316 2.90916 122.29 2.29699C122.304 1.65973 122.518 1.13759 122.958 0.677993C123.665 0.0243172 124.809 -0.235111 125.694 0.253199ZM123.019 1.11954C122.687 1.63388 122.596 2.15024 122.692 2.75281C122.835 3.29527 123.209 3.71652 123.66 4.03818C124.141 4.2896 124.726 4.30786 125.243 4.15872C125.784 3.9313 126.129 3.61248 126.391 3.08781C126.605 2.50965 126.564 2.01567 126.344 1.45124C126.095 0.940332 125.729 0.610808 125.197 0.416581C124.367 0.174256 123.579 0.478785 123.019 1.11954Z" fill="#171717"/>
<path d="M123.8 0.908632C124.048 0.904282 124.296 0.899933 124.551 0.895451C124.667 0.892571 124.667 0.892571 124.786 0.889633C125.42 0.884233 125.42 0.884233 125.697 1.11952C125.863 1.33273 125.863 1.55982 125.855 1.82522C125.829 2.03275 125.76 2.15436 125.627 2.31454C125.511 2.38707 125.394 2.45766 125.276 2.52543C125.321 2.58977 125.367 2.6541 125.414 2.72039C125.473 2.80477 125.532 2.88916 125.592 2.97356C125.622 3.01597 125.652 3.05838 125.683 3.10207C125.908 3.42334 125.908 3.42334 125.908 3.57986C125.569 3.66007 125.569 3.66007 125.346 3.57986C124.713 2.87507 124.713 2.87507 124.713 2.52543C124.574 2.52543 124.435 2.52543 124.292 2.52543C124.292 2.87339 124.292 3.22135 124.292 3.57986C124.13 3.57986 123.967 3.57986 123.8 3.57986C123.8 2.69836 123.8 1.81685 123.8 0.908632ZM124.292 1.3304C124.292 1.58558 124.292 1.84075 124.292 2.10366C124.414 2.10801 124.535 2.11235 124.661 2.11684C124.729 2.11928 124.798 2.12173 124.868 2.12425C125.091 2.1009 125.182 2.04132 125.346 1.89277C125.328 1.72806 125.304 1.5639 125.276 1.4007C125.081 1.30353 124.921 1.32371 124.705 1.32601C124.628 1.32665 124.551 1.32728 124.471 1.32793C124.383 1.32916 124.383 1.32916 124.292 1.3304Z" fill="#171717"/>
<path d="M87.4339 38.5797C87.0069 38.5797 86.6218 38.5072 86.2786 38.362C85.9381 38.2169 85.6563 38.0104 85.433 37.7425C85.2126 37.4719 85.0689 37.1524 85.0019 36.784L85.7721 36.6626C85.8698 37.0421 86.0721 37.3393 86.379 37.5542C86.6888 37.7663 87.0529 37.8723 87.4715 37.8723C87.7422 37.8723 87.9864 37.8305 88.204 37.7467C88.4245 37.6602 88.5989 37.5374 88.7273 37.3784C88.8556 37.2193 88.9198 37.031 88.9198 36.8133C88.9198 36.6794 88.8961 36.5649 88.8486 36.4701C88.804 36.3724 88.7412 36.2901 88.6603 36.2231C88.5822 36.1533 88.4929 36.0947 88.3924 36.0473C88.2919 35.9999 88.1873 35.9608 88.0785 35.9301L86.5423 35.4739C86.3748 35.4236 86.213 35.3608 86.0567 35.2855C85.9005 35.2074 85.7609 35.1111 85.6382 34.9967C85.5154 34.8795 85.4177 34.7399 85.3451 34.5781C85.2726 34.4135 85.2363 34.2195 85.2363 33.9963C85.2363 33.6391 85.3284 33.3349 85.5126 33.0838C85.6995 32.8298 85.9521 32.6359 86.2702 32.502C86.5883 32.368 86.9469 32.3024 87.3459 32.3052C87.7506 32.308 88.1119 32.3806 88.4301 32.5229C88.751 32.6624 89.0161 32.8633 89.2254 33.1256C89.4374 33.3879 89.5798 33.7019 89.6523 34.0674L88.8612 34.2056C88.8193 33.96 88.7259 33.7493 88.5808 33.5735C88.4384 33.3949 88.2598 33.2582 88.045 33.1633C87.8301 33.0656 87.5943 33.0154 87.3376 33.0126C87.092 33.0098 86.8702 33.0489 86.672 33.1298C86.4739 33.2107 86.3162 33.3238 86.199 33.4689C86.0818 33.6112 86.0232 33.7758 86.0232 33.9628C86.0232 34.147 86.0763 34.2963 86.1823 34.4107C86.2883 34.5223 86.4181 34.6116 86.5716 34.6786C86.7278 34.7427 86.8799 34.7958 87.0278 34.8376L88.1747 35.1683C88.3059 35.2046 88.4566 35.2548 88.6268 35.319C88.7998 35.3832 88.9672 35.4739 89.1291 35.5911C89.2909 35.7055 89.4249 35.8589 89.5309 36.0515C89.637 36.2412 89.69 36.4812 89.69 36.7714C89.69 37.0617 89.6314 37.3198 89.5142 37.5458C89.3998 37.7718 89.2393 37.9616 89.0328 38.1151C88.8263 38.2658 88.5863 38.3802 88.3129 38.4583C88.0394 38.5392 87.7464 38.5797 87.4339 38.5797ZM90.6517 33.134V32.3638H91.3968V33.134H90.6517ZM90.6517 38.4541V33.9335H91.3968V38.4541H90.6517ZM95.8716 38.4541V36.1896C95.8716 35.9748 95.8521 35.7683 95.813 35.5701C95.7767 35.372 95.7111 35.1948 95.6163 35.0385C95.5242 34.8795 95.3986 34.7539 95.2395 34.6618C95.0833 34.5697 94.8852 34.5237 94.6452 34.5237C94.4582 34.5237 94.288 34.5558 94.1345 34.62C93.9838 34.6813 93.8541 34.7762 93.7452 34.9046C93.6364 35.033 93.5513 35.1948 93.4899 35.3901C93.4313 35.5827 93.402 35.8101 93.402 36.0724L92.9123 35.9217C92.9123 35.4836 92.9904 35.1083 93.1467 34.7958C93.3057 34.4804 93.5276 34.2391 93.8122 34.0716C94.0996 33.9014 94.4373 33.8163 94.8252 33.8163C95.1182 33.8163 95.3679 33.8623 95.5744 33.9544C95.7809 34.0465 95.9525 34.1693 96.0893 34.3228C96.226 34.4735 96.3334 34.6437 96.4116 34.8334C96.4897 35.0204 96.5441 35.2115 96.5748 35.4069C96.6083 35.5994 96.625 35.7822 96.625 35.9552V38.4541H95.8716ZM92.6486 38.4541V33.9335H93.3183V35.1432H93.402V38.4541H92.6486ZM99.5769 38.5797C99.1193 38.5797 98.73 38.4779 98.4091 38.2741C98.091 38.0676 97.8482 37.7844 97.6808 37.4244C97.5133 37.0645 97.4268 36.6542 97.4213 36.1938C97.4268 35.7222 97.5147 35.3078 97.685 34.9506C97.858 34.5907 98.1049 34.3102 98.4258 34.1093C98.7467 33.9084 99.1332 33.8079 99.5853 33.8079C100.062 33.8079 100.473 33.9251 100.816 34.1595C101.162 34.3939 101.394 34.7148 101.511 35.1223L100.774 35.3441C100.679 35.0818 100.524 34.8781 100.309 34.733C100.097 34.5879 99.8532 34.5153 99.5769 34.5153C99.2672 34.5153 99.0118 34.5879 98.8109 34.733C98.61 34.8753 98.4607 35.0734 98.3631 35.3274C98.2654 35.5785 98.2152 35.8673 98.2124 36.1938C98.2179 36.6961 98.3338 37.1021 98.5598 37.4119C98.7886 37.7188 99.1277 37.8723 99.5769 37.8723C99.8727 37.8723 100.118 37.8053 100.314 37.6714C100.509 37.5347 100.657 37.3379 100.757 37.0812L101.511 37.2779C101.354 37.6993 101.11 38.0216 100.778 38.2448C100.446 38.4681 100.046 38.5797 99.5769 38.5797ZM104.201 38.5797C103.758 38.5797 103.37 38.482 103.038 38.2867C102.708 38.0886 102.452 37.8137 102.268 37.4621C102.083 37.1077 101.991 36.6947 101.991 36.2231C101.991 35.7292 102.082 35.3022 102.263 34.9423C102.445 34.5795 102.697 34.3004 103.021 34.1051C103.347 33.907 103.73 33.8079 104.168 33.8079C104.623 33.8079 105.009 33.9126 105.327 34.1218C105.648 34.3311 105.888 34.6297 106.047 35.0176C106.209 35.4055 106.279 35.8673 106.257 36.4031H105.503V36.1352C105.495 35.5799 105.382 35.1655 105.164 34.892C104.946 34.6158 104.623 34.4776 104.193 34.4776C103.733 34.4776 103.382 34.6255 103.142 34.9213C102.902 35.2171 102.782 35.6413 102.782 36.1938C102.782 36.7268 102.902 37.1398 103.142 37.4328C103.382 37.7258 103.724 37.8723 104.168 37.8723C104.466 37.8723 104.726 37.8039 104.946 37.6672C105.167 37.5305 105.34 37.3337 105.465 37.077L106.181 37.324C106.005 37.723 105.74 38.0328 105.386 38.2532C105.034 38.4709 104.639 38.5797 104.201 38.5797ZM102.531 36.4031V35.8045H105.871V36.4031H102.531ZM108.697 38.4499L108.701 37.7802L111.376 35.3734C111.599 35.1725 111.748 34.9827 111.824 34.8041C111.902 34.6227 111.941 34.4372 111.941 34.2474C111.941 34.0158 111.888 33.8065 111.782 33.6196C111.676 33.4326 111.531 33.2847 111.347 33.1759C111.165 33.067 110.959 33.0126 110.727 33.0126C110.487 33.0126 110.274 33.0698 110.087 33.1842C109.9 33.2959 109.752 33.4451 109.643 33.6321C109.537 33.8191 109.485 34.0228 109.488 34.2432H108.726C108.726 33.8637 108.814 33.5289 108.99 33.2386C109.166 32.9456 109.404 32.7168 109.706 32.5522C110.01 32.3848 110.355 32.301 110.74 32.301C111.114 32.301 111.448 32.3875 111.744 32.5606C112.04 32.7308 112.273 32.9638 112.443 33.2596C112.616 33.5526 112.703 33.8847 112.703 34.2558C112.703 34.5181 112.669 34.7455 112.602 34.9381C112.538 35.1306 112.438 35.3092 112.301 35.4739C112.164 35.6357 111.993 35.8087 111.786 35.9929L109.563 37.9895L109.467 37.7384H112.703V38.4499H108.697ZM115.739 38.5797C115.348 38.5797 114.999 38.4918 114.692 38.316C114.388 38.1374 114.147 37.896 113.968 37.5919C113.792 37.2849 113.704 36.9361 113.704 36.5454V34.3353C113.704 33.9447 113.792 33.5958 113.968 33.2889C114.147 32.9819 114.388 32.7405 114.692 32.5647C114.999 32.3889 115.348 32.301 115.739 32.301C116.129 32.301 116.478 32.3889 116.785 32.5647C117.092 32.7405 117.333 32.9819 117.509 33.2889C117.685 33.5958 117.773 33.9447 117.773 34.3353V36.5454C117.773 36.9361 117.685 37.2849 117.509 37.5919C117.333 37.896 117.092 38.1374 116.785 38.316C116.478 38.4918 116.129 38.5797 115.739 38.5797ZM115.739 37.8639C115.976 37.8639 116.191 37.8067 116.383 37.6923C116.576 37.5779 116.729 37.4244 116.844 37.2319C116.958 37.0365 117.015 36.8217 117.015 36.5873V34.2893C117.015 34.0521 116.958 33.8372 116.844 33.6447C116.729 33.4521 116.576 33.2986 116.383 33.1842C116.191 33.0698 115.976 33.0126 115.739 33.0126C115.504 33.0126 115.289 33.0698 115.094 33.1842C114.901 33.2986 114.748 33.4521 114.634 33.6447C114.519 33.8372 114.462 34.0521 114.462 34.2893V36.5873C114.462 36.8217 114.519 37.0365 114.634 37.2319C114.748 37.4244 114.901 37.5779 115.094 37.6923C115.289 37.8067 115.504 37.8639 115.739 37.8639ZM119.995 38.4541V33.2512L118.861 33.9377V33.1047L119.995 32.4266H120.753V38.4541H119.995ZM124.38 38.5797C123.989 38.5797 123.64 38.4918 123.333 38.316C123.029 38.1374 122.788 37.896 122.609 37.5919C122.434 37.2849 122.346 36.9361 122.346 36.5454V34.3353C122.346 33.9447 122.434 33.5958 122.609 33.2889C122.788 32.9819 123.029 32.7405 123.333 32.5647C123.64 32.3889 123.989 32.301 124.38 32.301C124.771 32.301 125.119 32.3889 125.426 32.5647C125.733 32.7405 125.975 32.9819 126.15 33.2889C126.326 33.5958 126.414 33.9447 126.414 34.3353V36.5454C126.414 36.9361 126.326 37.2849 126.15 37.5919C125.975 37.896 125.733 38.1374 125.426 38.316C125.119 38.4918 124.771 38.5797 124.38 38.5797ZM124.38 37.8639C124.617 37.8639 124.832 37.8067 125.025 37.6923C125.217 37.5779 125.371 37.4244 125.485 37.2319C125.599 37.0365 125.657 36.8217 125.657 36.5873V34.2893C125.657 34.0521 125.599 33.8372 125.485 33.6447C125.371 33.4521 125.217 33.2986 125.025 33.1842C124.832 33.0698 124.617 33.0126 124.38 33.0126C124.145 33.0126 123.931 33.0698 123.735 33.1842C123.543 33.2986 123.389 33.4521 123.275 33.6447C123.16 33.8372 123.103 34.0521 123.103 34.2893V36.5873C123.103 36.8217 123.16 37.0365 123.275 37.2319C123.389 37.4244 123.543 37.5779 123.735 37.6923C123.931 37.8067 124.145 37.8639 124.38 37.8639Z" fill="#171717"/>
</svg>
