<svg width="426" height="284" viewBox="0 0 426 284" fill="none" xmlns="http://www.w3.org/2000/svg">
<path d="M81.7061 0.400391H345.547C350.104 0.400391 353.297 0.797419 355.363 2.30566C357.39 3.78556 358.432 6.42023 358.432 11.2051V156.557C358.432 162.467 352.733 167.361 345.547 167.361H81.7061C74.52 167.361 68.8223 162.467 68.8223 156.557V11.2051C68.8223 7.47838 69.2348 4.834 70.9707 3.09082C72.7112 1.34311 75.8846 0.400412 81.7061 0.400391Z" fill="white" stroke="#171717" stroke-width="0.8"/>
<path d="M339 119.296H167.187V17.9092H339V119.296Z" fill="#D8E8DB"/>
<path fill-rule="evenodd" clip-rule="evenodd" d="M339 119.808H167.188C166.909 119.808 166.676 119.575 166.676 119.296V17.9096C166.676 17.6302 166.909 17.3975 167.188 17.3975H339C339.295 17.3975 339.512 17.6302 339.512 17.9096V119.296C339.512 119.575 339.295 119.808 339 119.808ZM167.7 118.784H338.488V18.4217H167.7V118.784Z" fill="white"/>
<path d="M339 108.463H167.188C166.909 108.463 166.676 108.23 166.676 107.951C166.676 107.656 166.909 107.438 167.188 107.438H339C339.295 107.438 339.512 107.656 339.512 107.951C339.512 108.23 339.295 108.463 339 108.463Z" fill="white"/>
<path d="M339 97.119H167.188C166.909 97.119 166.676 96.8862 166.676 96.6069C166.676 96.3275 166.909 96.0947 167.188 96.0947H339C339.295 96.0947 339.512 96.3275 339.512 96.6069C339.512 96.8862 339.295 97.119 339 97.119Z" fill="white"/>
<path d="M339 85.7743H167.188C166.909 85.7743 166.676 85.5415 166.676 85.2621C166.676 84.9828 166.909 84.75 167.188 84.75H339C339.295 84.75 339.512 84.9828 339.512 85.2621C339.512 85.5415 339.295 85.7743 339 85.7743Z" fill="white"/>
<path d="M339 74.4295H167.188C166.909 74.4295 166.676 74.1967 166.676 73.9174C166.676 73.6381 166.909 73.4053 167.188 73.4053H339C339.295 73.4053 339.512 73.6381 339.512 73.9174C339.512 74.1967 339.295 74.4295 339 74.4295Z" fill="white"/>
<path d="M339 63.0858H167.188C166.909 63.0858 166.676 62.8685 166.676 62.5737C166.676 62.2943 166.909 62.0615 167.188 62.0615H339C339.295 62.0615 339.512 62.2943 339.512 62.5737C339.512 62.8685 339.295 63.0858 339 63.0858Z" fill="white"/>
<path d="M339 51.6473H167.188C166.909 51.6473 166.676 51.43 166.676 51.1352C166.676 50.8558 166.909 50.623 167.188 50.623H339C339.295 50.623 339.512 50.8558 339.512 51.1352C339.512 51.43 339.295 51.6473 339 51.6473Z" fill="white"/>
<path d="M339 40.3192H167.188C166.909 40.3192 166.676 40.0864 166.676 39.8071C166.676 39.5122 166.909 39.2949 167.188 39.2949H339C339.295 39.2949 339.512 39.5122 339.512 39.8071C339.512 40.0864 339.295 40.3192 339 40.3192Z" fill="white"/>
<path d="M339 28.9745H167.188C166.909 28.9745 166.676 28.7417 166.676 28.4623C166.676 28.183 166.909 27.9502 167.188 27.9502H339C339.295 27.9502 339.512 28.183 339.512 28.4623C339.512 28.7417 339.295 28.9745 339 28.9745Z" fill="white"/>
<path d="M188.914 119.808C188.635 119.808 188.402 119.575 188.402 119.296V17.9096C188.402 17.6302 188.635 17.3975 188.914 17.3975C189.209 17.3975 189.427 17.6302 189.427 17.9096V119.296C189.427 119.575 189.209 119.808 188.914 119.808Z" fill="white"/>
<path d="M210.641 119.808C210.362 119.808 210.129 119.575 210.129 119.296V17.9096C210.129 17.6302 210.362 17.3975 210.641 17.3975C210.936 17.3975 211.169 17.6302 211.169 17.9096V119.296C211.169 119.575 210.936 119.808 210.641 119.808Z" fill="white"/>
<path d="M232.383 119.808C232.088 119.808 231.871 119.575 231.871 119.296V17.9096C231.871 17.6302 232.088 17.3975 232.383 17.3975C232.663 17.3975 232.895 17.6302 232.895 17.9096V119.296C232.895 119.575 232.663 119.808 232.383 119.808Z" fill="white"/>
<path d="M254.11 119.808C253.815 119.808 253.598 119.575 253.598 119.296V17.9096C253.598 17.6302 253.815 17.3975 254.11 17.3975C254.389 17.3975 254.622 17.6302 254.622 17.9096V119.296C254.622 119.575 254.389 119.808 254.11 119.808Z" fill="white"/>
<path d="M275.836 119.808C275.557 119.808 275.324 119.575 275.324 119.296V17.9096C275.324 17.6302 275.557 17.3975 275.836 17.3975C276.116 17.3975 276.348 17.6302 276.348 17.9096V119.296C276.348 119.575 276.116 119.808 275.836 119.808Z" fill="white"/>
<path d="M296.122 119.746C295.842 119.746 295.609 119.513 295.609 119.234V17.8471C295.609 17.5677 295.842 17.335 296.122 17.335C296.416 17.335 296.634 17.5677 296.634 17.8471V119.234C296.634 119.513 296.416 119.746 296.122 119.746Z" fill="white"/>
<path d="M317.848 119.746C317.569 119.746 317.336 119.513 317.336 119.234V17.8471C317.336 17.5677 317.569 17.335 317.848 17.335C318.143 17.335 318.36 17.5677 318.36 17.8471V119.234C318.36 119.513 318.143 119.746 317.848 119.746Z" fill="white"/>
<path d="M203.082 60.4158H177.119C176.933 60.4158 176.777 60.2606 176.777 60.0744C176.777 59.8881 176.933 59.733 177.119 59.733H203.02L236.526 48.9782L266.478 36.4232C266.519 36.4129 266.556 36.4077 266.587 36.4077L306.657 33.397L323.216 21.8973C323.371 21.7887 323.588 21.8197 323.697 21.9749C323.806 22.1301 323.759 22.3474 323.604 22.456L306.967 34.0022C306.916 34.0436 306.859 34.0643 306.797 34.0643L266.695 37.075L236.759 49.6145L203.191 60.4003C203.15 60.4106 203.113 60.4158 203.082 60.4158Z" fill="#171717"/>
<path d="M240.887 49.3045C240.887 51.6944 238.978 53.6343 236.635 53.6343C234.276 53.6343 232.383 51.6944 232.383 49.3045C232.383 46.9145 234.276 44.9746 236.635 44.9746C238.978 44.9746 240.887 46.9145 240.887 49.3045Z" fill="#00A82D"/>
<path d="M270.684 37.1218C270.684 39.5118 268.775 41.4517 266.432 41.4517C264.089 41.4517 262.18 39.5118 262.18 37.1218C262.18 34.7319 264.089 32.792 266.432 32.792C268.775 32.792 270.684 34.7319 270.684 37.1218Z" fill="#00A82D"/>
<path d="M311.02 32.7917C311.02 35.1817 309.127 37.1216 306.768 37.1216C304.425 37.1216 302.516 35.1817 302.516 32.7917C302.516 30.4018 304.425 28.4619 306.768 28.4619C309.127 28.4619 311.02 30.4018 311.02 32.7917Z" fill="#00A82D"/>
<path d="M206.778 59.7957C206.778 62.2011 204.869 64.141 202.526 64.141C200.182 64.141 198.273 62.2011 198.273 59.7957C198.273 57.4057 200.182 55.4658 202.526 55.4658C204.869 55.4658 206.778 57.4057 206.778 59.7957Z" fill="#00A82D"/>
<path d="M192.11 75.951L177.119 75.7493C176.917 75.7493 176.777 75.5941 176.777 75.4078C176.777 75.2061 176.917 75.0664 177.119 75.0664L192.079 75.2682L227.618 69.6037C227.649 69.5933 227.68 69.5933 227.711 69.6037L265.066 73.918L310.521 68.2535L333.846 64.0633C334.033 64.0323 334.219 64.1565 334.25 64.3427C334.281 64.5289 334.157 64.6996 333.971 64.7462L310.614 68.9364L265.097 74.6008C265.076 74.6112 265.05 74.6112 265.019 74.6008L227.68 70.2865L192.157 75.951C192.146 75.951 192.131 75.951 192.11 75.951Z" fill="#171717"/>
<path d="M260.816 73.9177C260.816 76.3077 262.71 78.2476 265.069 78.2476C267.412 78.2476 269.321 76.3077 269.321 73.9177C269.321 71.5278 267.412 69.5879 265.069 69.5879C262.71 69.5879 260.816 71.5278 260.816 73.9177Z" fill="white"/>
<path fill-rule="evenodd" clip-rule="evenodd" d="M265.066 78.5886C262.521 78.5886 260.473 76.4935 260.473 73.9173C260.473 71.3412 262.521 69.2461 265.066 69.2461C267.596 69.2461 269.66 71.3412 269.66 73.9173C269.66 76.4935 267.596 78.5886 265.066 78.5886ZM265.066 69.9289C262.909 69.9289 261.156 71.7136 261.156 73.9173C261.156 76.1211 262.909 77.9058 265.066 77.9058C267.223 77.9058 268.977 76.1211 268.977 73.9173C268.977 71.7136 267.223 69.9289 265.066 69.9289Z" fill="#171717"/>
<path d="M223.414 69.9294C223.414 72.3349 225.323 74.2748 227.666 74.2748C230.025 74.2748 231.919 72.3349 231.919 69.9294C231.919 67.5395 230.025 65.5996 227.666 65.5996C225.323 65.5996 223.414 67.5395 223.414 69.9294Z" fill="white"/>
<path fill-rule="evenodd" clip-rule="evenodd" d="M227.668 74.6158C225.138 74.6158 223.074 72.5052 223.074 69.9291C223.074 67.3529 225.138 65.2578 227.668 65.2578C230.197 65.2578 232.262 67.3529 232.262 69.9291C232.262 72.5052 230.197 74.6158 227.668 74.6158ZM227.668 65.9407C225.511 65.9407 223.757 67.7409 223.757 69.9291C223.757 72.1328 225.511 73.933 227.668 73.933C229.825 73.933 231.579 72.1328 231.579 69.9291C231.579 67.7409 229.825 65.9407 227.668 65.9407Z" fill="#171717"/>
<path d="M187.859 75.6091C187.859 77.9991 189.753 79.939 192.112 79.939C194.455 79.939 196.364 77.9991 196.364 75.6091C196.364 73.2192 194.455 71.2793 192.112 71.2793C189.753 71.2793 187.859 73.2192 187.859 75.6091Z" fill="white"/>
<path fill-rule="evenodd" clip-rule="evenodd" d="M192.113 80.281C189.584 80.281 187.52 78.1859 187.52 75.6097C187.52 73.0336 189.584 70.9385 192.113 70.9385C194.643 70.9385 196.707 73.0336 196.707 75.6097C196.707 78.1859 194.643 80.281 192.113 80.281ZM192.113 71.6213C189.956 71.6213 188.202 73.406 188.202 75.6097C188.202 77.8135 189.956 79.5982 192.113 79.5982C194.27 79.5982 196.024 77.8135 196.024 75.6097C196.024 73.406 194.27 71.6213 192.113 71.6213Z" fill="#171717"/>
<path d="M306.301 68.5947C306.301 70.9847 308.209 72.9246 310.568 72.9246C312.912 72.9246 314.821 70.9847 314.821 68.5947C314.821 66.2048 312.912 64.2649 310.568 64.2649C308.209 64.2649 306.301 66.2048 306.301 68.5947Z" fill="white"/>
<path fill-rule="evenodd" clip-rule="evenodd" d="M310.57 73.2663C308.025 73.2663 305.961 71.1713 305.961 68.5951C305.961 66.0189 308.025 63.9238 310.57 63.9238C313.1 63.9238 315.164 66.0189 315.164 68.5951C315.164 71.1713 313.1 73.2663 310.57 73.2663ZM310.57 64.6067C308.413 64.6067 306.644 66.3914 306.644 68.5951C306.644 70.7988 308.413 72.5835 310.57 72.5835C312.727 72.5835 314.481 70.7988 314.481 68.5951C314.481 66.3914 312.727 64.6067 310.57 64.6067Z" fill="#171717"/>
<path d="M140.403 79.0386H94.1093C89.9968 79.0386 86.6602 75.702 86.6602 71.5894V25.2803C86.6602 21.1678 89.9968 17.8467 94.1093 17.8467H140.403C144.515 17.8467 147.852 21.1678 147.852 25.2803V71.5894C147.852 75.702 144.515 79.0386 140.403 79.0386Z" fill="white"/>
<path fill-rule="evenodd" clip-rule="evenodd" d="M140.401 79.3806H94.107C89.8082 79.3806 86.3164 75.8888 86.3164 71.59V25.2809C86.3164 20.9977 89.8082 17.5059 94.107 17.5059H140.401C144.699 17.5059 148.191 20.9977 148.191 25.2809V71.59C148.191 75.8888 144.699 79.3806 140.401 79.3806ZM94.107 18.1887C90.1807 18.1887 86.9993 21.3701 86.9993 25.2809V71.59C86.9993 75.5009 90.1807 78.6978 94.107 78.6978H140.401C144.311 78.6978 147.508 75.5009 147.508 71.59V25.2809C147.508 21.3701 144.311 18.1887 140.401 18.1887H94.107Z" fill="#00A82D"/>
<path d="M115.315 70.6333V65.1395C112.15 65.0929 108.893 64.1152 107 62.7495L108.303 59.118C110.258 60.4216 113.081 61.4459 116.121 61.4459C119.984 61.4459 122.59 59.2267 122.59 56.1228C122.59 53.1276 120.465 51.2808 116.447 49.6513C110.909 47.4786 107.481 44.98 107.481 40.2466C107.481 35.7306 110.692 32.3163 115.687 31.4938V26H119.053V31.2765C122.311 31.3852 124.544 32.2542 126.127 33.1854L124.762 36.7703C123.629 36.1185 121.395 34.9236 117.921 34.9236C113.732 34.9236 112.15 37.4222 112.15 39.5948C112.15 42.4193 114.167 43.8316 118.898 45.787C124.498 48.0683 127.321 50.9084 127.321 55.7348C127.321 60.0337 124.327 64.0531 118.727 64.9843V70.6333H115.315Z" fill="#00A82D"/>
<path d="M422.68 271.818C422.525 271.818 422.37 271.709 422.339 271.539L397.244 147.029C397.198 146.842 397.322 146.656 397.508 146.625C397.694 146.578 397.88 146.703 397.912 146.889L423.006 271.414C423.053 271.601 422.928 271.771 422.742 271.818C422.721 271.818 422.701 271.818 422.68 271.818Z" fill="#171717"/>
<path d="M425.346 271.476C425.346 272.95 424.151 274.145 422.677 274.145C421.203 274.145 420.008 272.95 420.008 271.476C420.008 270.002 421.203 268.807 422.677 268.807C424.151 268.807 425.346 270.002 425.346 271.476Z" fill="#171717"/>
<path d="M358.71 271.818C358.689 271.818 358.663 271.818 358.632 271.818C358.446 271.771 358.338 271.601 358.369 271.414L383.463 146.889C383.51 146.703 383.68 146.578 383.866 146.625C384.053 146.656 384.177 146.842 384.146 147.029L359.036 271.539C359.005 271.709 358.865 271.818 358.71 271.818Z" fill="#171717"/>
<path d="M356.023 271.476C356.023 272.95 357.234 274.145 358.708 274.145C360.183 274.145 361.378 272.95 361.378 271.476C361.378 270.002 360.183 268.807 358.708 268.807C357.234 268.807 356.023 270.002 356.023 271.476Z" fill="#171717"/>
<path d="M413.121 232.073H386.599C386.413 232.073 386.258 231.934 386.258 231.732C386.258 231.546 386.413 231.391 386.599 231.391H413.121C413.308 231.391 413.463 231.546 413.463 231.732C413.463 231.934 413.308 232.073 413.121 232.073Z" fill="#171717"/>
<path d="M410.869 237.862H386.287C386.1 237.862 385.945 237.706 385.945 237.52C385.945 237.334 386.1 237.179 386.287 237.179H410.869C411.055 237.179 411.21 237.334 411.21 237.52C411.21 237.706 411.055 237.862 410.869 237.862Z" fill="#171717"/>
<path d="M361.629 243.247C361.877 242.657 362.187 242.083 362.606 241.586C364.205 239.693 366.315 238.342 368.364 237.008C370.257 235.766 372.058 234.432 373.966 233.237C376.977 231.343 380.484 229.31 382.316 226.129L385.994 230.924C387.841 233.33 387.608 236.728 385.482 238.886L364.624 259.836C363.382 261.094 361.225 260.162 361.303 258.393L361.924 243.51C361.83 243.428 361.732 243.34 361.629 243.247Z" fill="white"/>
<path d="M382.44 226.3L385.994 230.925C387.841 233.33 387.608 236.729 385.482 238.886L364.624 259.837C363.382 261.094 361.225 260.163 361.303 258.393L361.924 243.511L382.44 226.3Z" fill="white"/>
<path d="M363.255 260.768C362.945 260.768 362.634 260.69 362.324 260.566C361.439 260.178 360.927 259.34 360.958 258.378L361.579 243.495C361.579 243.309 361.734 243.169 361.921 243.169C361.921 243.169 361.926 243.169 361.936 243.169C362.122 243.185 362.262 243.34 362.262 243.526L361.641 258.409C361.61 259.216 362.122 259.728 362.603 259.945C363.085 260.147 363.814 260.178 364.388 259.604L385.23 238.637C387.232 236.62 387.45 233.392 385.711 231.142L382.173 226.501C382.049 226.346 382.08 226.145 382.235 226.02C382.39 225.912 382.592 225.943 382.716 226.082L386.255 230.723C388.194 233.252 387.962 236.868 385.711 239.119L364.869 260.085C364.419 260.535 363.845 260.768 363.255 260.768Z" fill="#171717"/>
<path d="M331.102 176.871C342.757 164.347 359.005 149.371 366.796 141.503C369.186 139.082 374.028 138.322 377.426 138.368C383.029 138.461 391.983 138.291 397.679 138.151C400.534 138.089 401.652 142.822 401.512 145.693C401.062 154.275 398.408 159.986 391.999 165.729L358.834 195.448L382.439 226.3C381.942 226.982 381.43 227.634 380.903 228.286C377.007 232.988 372.227 237.023 367.059 240.267C365.321 241.369 363.537 242.377 361.705 243.324C356.118 238.125 341.298 218.866 331.086 205.318C324.972 197.201 324.196 184.305 331.102 176.871Z" fill="#3335CF"/>
<path fill-rule="evenodd" clip-rule="evenodd" d="M361.705 243.666C361.627 243.666 361.534 243.635 361.472 243.572C355.978 238.467 341.763 220.061 330.806 205.52C324.195 196.751 324.21 183.793 330.853 176.638C338.442 168.475 348.11 159.164 355.87 151.684C360.153 147.556 363.831 144.002 366.547 141.255C368.983 138.787 373.779 137.965 377.426 138.027C383.183 138.12 392.572 137.934 397.663 137.81C398.485 137.81 399.214 138.12 399.851 138.772C401.325 140.277 401.977 143.396 401.853 145.709C401.403 154.508 398.702 160.188 392.231 165.992L359.299 195.494L382.718 226.082C382.811 226.207 382.811 226.377 382.718 226.501C382.252 227.138 381.74 227.805 381.15 228.503C377.348 233.097 372.677 237.148 367.245 240.562C365.569 241.617 363.815 242.61 361.86 243.619C361.808 243.65 361.756 243.666 361.705 243.666ZM377.084 138.71C373.763 138.71 369.247 139.501 367.043 141.736C364.312 144.498 360.618 148.052 356.351 152.18C348.591 159.645 338.938 168.956 331.349 177.104C324.924 184.026 324.924 196.581 331.349 205.116C342.182 219.471 356.18 237.613 361.767 242.905C363.614 241.943 365.29 240.981 366.888 239.988C372.242 236.604 376.867 232.6 380.638 228.069C381.135 227.448 381.6 226.874 382.019 226.3L358.57 195.649C358.461 195.51 358.477 195.308 358.601 195.199L391.781 165.48C398.097 159.816 400.72 154.26 401.17 145.678C401.279 143.567 400.673 140.603 399.354 139.237C398.873 138.741 398.299 138.477 397.678 138.492C391.455 138.648 382.904 138.803 377.426 138.71C377.312 138.71 377.198 138.71 377.084 138.71Z" fill="#171717"/>
<path d="M301.941 262.118C302.391 261.823 302.795 261.451 303.136 261.016L365.895 182.458C369.884 177.461 377.69 182.474 374.788 188.185L333.026 270.483C332.948 270.654 332.855 270.809 332.762 270.964C331.443 272.95 329.224 274.145 326.834 274.145H288.533C282.03 274.145 294.29 266.805 301.941 262.118Z" fill="white"/>
<path d="M326.832 274.486H288.112C287.398 274.486 286.793 274.052 286.591 273.353C286.374 272.671 286.638 271.972 287.227 271.569L302.436 261.373C302.591 261.28 302.809 261.311 302.917 261.466C303.01 261.637 302.979 261.838 302.824 261.947L287.615 272.143C287.196 272.422 287.15 272.841 287.243 273.167C287.336 273.478 287.615 273.804 288.112 273.804H326.832C329.176 273.804 331.395 272.562 332.605 270.56L334.328 267.72C334.421 267.565 334.638 267.518 334.794 267.611C334.949 267.704 335.011 267.922 334.902 268.077L333.195 270.901C331.86 273.121 329.408 274.486 326.832 274.486Z" fill="#171717"/>
<path d="M334.453 267.798C328.059 266.587 303.942 261.45 302.887 261.233C306.673 254.932 349.367 177.833 365.398 145.693L399.09 136.94C401.728 137.484 402.426 144.964 402.271 147.649C401.883 155.144 398.702 162.237 394.791 168.677L334.654 267.844C334.592 267.824 334.525 267.808 334.453 267.798Z" fill="#3335CF"/>
<path fill-rule="evenodd" clip-rule="evenodd" d="M334.654 268.186C334.634 268.186 334.613 268.181 334.592 268.171L334.39 268.14C329.548 267.224 314.371 264.012 307.077 262.475C304.671 261.963 303.073 261.622 302.809 261.575C302.7 261.56 302.623 261.482 302.576 261.373C302.53 261.28 302.53 261.156 302.592 261.063C306.596 254.421 349.475 176.872 365.103 145.539C365.149 145.446 365.227 145.383 365.32 145.352L398.997 136.615C399.048 136.605 399.1 136.605 399.152 136.615C402.209 137.236 402.737 145.415 402.612 147.665C402.271 154.229 399.881 160.949 395.086 168.848L334.949 268.016C334.887 268.124 334.778 268.186 334.654 268.186ZM303.414 261.001C304.097 261.141 305.432 261.436 307.216 261.808C314.495 263.344 329.626 266.541 334.483 267.457L394.496 168.507C399.229 160.701 401.588 154.074 401.93 147.634C402.085 144.778 401.293 137.888 399.09 137.298L365.646 145.973C350.22 176.856 308.675 252.078 303.414 261.001Z" fill="#171717"/>
<path d="M355.948 233.082C355.886 233.082 355.824 233.066 355.762 233.035C355.607 232.942 355.56 232.725 355.653 232.57L368.938 210.657C369.031 210.486 369.248 210.439 369.403 210.532C369.574 210.626 369.62 210.843 369.527 210.998L356.243 232.911C356.165 233.02 356.057 233.082 355.948 233.082Z" fill="#171717"/>
<path d="M370.582 52.439C372.584 54.4409 372.569 57.6844 370.567 59.6709C368.549 61.6728 365.29 61.6728 363.273 59.6709C361.271 57.6689 361.271 54.4254 363.289 52.4234C365.306 50.437 368.565 50.437 370.582 52.439Z" fill="#171717"/>
<path d="M385.543 54.8598C387.545 56.8618 387.545 60.1053 385.528 62.0918C383.51 64.0937 380.251 64.0782 378.249 62.0762C376.232 60.0743 376.248 56.8463 378.249 54.8443C380.267 52.8424 383.526 52.8579 385.543 54.8598Z" fill="#171717"/>
<path d="M385.014 48.2798C387.016 50.2817 387.016 53.5097 384.999 55.5117C382.981 57.4981 379.722 57.4981 377.72 55.4962C375.703 53.4942 375.718 50.2507 377.736 48.2642C379.738 46.2623 383.012 46.2778 385.014 48.2798Z" fill="#171717"/>
<path d="M379.118 44.9439C381.135 46.9458 381.12 50.1893 379.102 52.1913C377.1 54.1777 373.841 54.1777 371.824 52.1758C369.822 50.1738 369.822 46.9303 371.839 44.9439C373.857 42.9419 377.116 42.9419 379.118 44.9439Z" fill="#171717"/>
<path d="M374.042 47.0542C376.044 49.0562 376.044 52.2997 374.026 54.2861C372.009 56.2881 368.75 56.2881 366.748 54.2861C364.73 52.2841 364.746 49.0406 366.763 47.0387C368.765 45.0522 372.04 45.0522 374.042 47.0542Z" fill="#171717"/>
<path d="M381.276 64.9473L383.371 78.9145L384.535 78.9921C384.535 78.9921 381.866 87.3259 374.913 88.4898C367.96 89.6382 368.69 81.6148 368.69 81.6148L372.771 79.768L371.375 68.5167L381.276 64.9473Z" fill="white"/>
<path d="M372.771 80.1097C372.6 80.1097 372.445 79.9856 372.43 79.8148L371.033 68.548C371.017 68.3928 371.111 68.2376 371.266 68.191L381.167 64.6216C381.26 64.5906 381.369 64.6061 381.446 64.6526C381.539 64.6992 381.601 64.7923 381.617 64.901L383.697 78.8682C383.728 79.0544 383.603 79.2251 383.417 79.2562C383.231 79.2872 383.06 79.163 383.029 78.9768L380.996 65.4131L371.747 68.7342L373.097 79.7372C373.128 79.9235 372.988 80.0942 372.802 80.1097C372.792 80.1097 372.781 80.1097 372.771 80.1097Z" fill="#171717"/>
<path d="M381.105 62.527C381.431 61.751 382.518 61.4717 383.294 61.8596C384.054 62.2321 384.504 63.0856 384.613 63.9392C384.768 65.0876 384.349 66.3136 383.464 67.0585C382.564 67.7879 381.198 67.9276 380.236 67.3069C378.436 69.2312 375.891 71.109 373.268 71.2797C371.794 71.3884 370.211 71.1401 369.062 70.1934C368.271 69.5416 367.743 68.6105 367.433 67.6172C367.138 66.624 367.045 65.5842 367.014 64.56C366.921 61.5803 367.293 58.5851 368.116 55.7141C368.24 55.264 368.395 54.7829 368.69 54.4104C369.109 53.8828 369.776 53.6035 370.428 53.4172C371.918 52.9672 373.517 52.8585 375.022 53.231C376.527 53.619 377.924 54.5191 378.746 55.8382C379.538 57.0953 381.105 62.527 381.105 62.527Z" fill="white"/>
<path fill-rule="evenodd" clip-rule="evenodd" d="M372.661 71.6518C371.466 71.6518 370.007 71.4035 368.858 70.4569C368.067 69.8206 367.462 68.8739 367.105 67.7255C366.779 66.6236 366.701 65.5063 366.67 64.5596C366.577 61.5489 366.95 58.5382 367.788 55.6206C367.927 55.1395 368.082 54.6274 368.424 54.1928C368.92 53.5565 369.712 53.2617 370.333 53.0754C371.993 52.5944 373.638 52.5323 375.097 52.9047C376.773 53.3238 378.201 54.3325 379.023 55.6516C379.675 56.6914 380.793 60.3074 381.243 61.7972C381.398 61.6627 381.579 61.5541 381.786 61.4713C382.329 61.2851 382.95 61.3006 383.446 61.5489C384.253 61.9524 384.812 62.8215 384.952 63.8923C385.122 65.1959 384.626 66.5305 383.679 67.322C382.717 68.098 381.336 68.2532 380.296 67.741C378.899 69.1843 376.277 71.4191 373.281 71.6208C373.085 71.6312 372.878 71.6415 372.661 71.6518ZM373.126 53.3393C372.288 53.3393 371.404 53.4789 370.519 53.7428C369.991 53.898 369.34 54.1307 368.952 54.6274C368.703 54.9533 368.564 55.3723 368.439 55.8068C367.632 58.6623 367.26 61.5955 367.353 64.5441C367.384 65.4442 367.446 66.4995 367.757 67.5238C367.974 68.2376 368.424 69.2309 369.277 69.9292C370.472 70.9069 372.086 71.0156 373.235 70.938C375.361 70.7983 377.813 69.3861 379.97 67.0737C380.094 66.9651 380.265 66.934 380.405 67.0271C381.243 67.5548 382.438 67.4462 383.245 66.7944C384.005 66.1581 384.424 65.0562 384.284 63.9854C384.191 63.3336 383.85 62.5111 383.136 62.1541C382.81 61.9989 382.391 61.9834 382.034 62.1231C381.739 62.2317 381.522 62.418 381.413 62.6663C381.351 62.8059 381.227 62.8835 381.072 62.868C380.932 62.868 380.808 62.7594 380.762 62.6197C380.746 62.5732 379.21 57.2191 378.449 56.0241C377.704 54.8291 376.432 53.9445 374.942 53.5565C374.368 53.4169 373.762 53.3393 373.126 53.3393Z" fill="#171717"/>
<path d="M381.553 65.8171C381.533 65.8171 381.512 65.8171 381.491 65.8171C381.305 65.7861 381.181 65.6154 381.212 65.4291C381.336 64.5756 381.941 63.8307 382.733 63.5203C382.903 63.4582 383.105 63.5513 383.183 63.722C383.245 63.8927 383.152 64.0945 382.981 64.1721C382.422 64.3893 381.972 64.9325 381.879 65.5378C381.864 65.693 381.708 65.8171 381.553 65.8171Z" fill="#171717"/>
<path d="M373.641 51.6475C377.272 51.6475 380.205 54.8754 380.205 58.8639C380.205 59.226 380.185 59.5777 380.143 59.9192L378.731 56.6601L367.355 56.7998C368.162 53.8201 370.677 51.6475 373.641 51.6475Z" fill="#171717"/>
<path d="M406.787 111.878L404.879 131.432L388.227 131.618L406.787 111.878Z" fill="#5479F7"/>
<path d="M356.445 81.6774C357.702 81.2118 359.036 80.9014 360.48 80.7772L371.374 79.7685L372.181 76.6802L374.292 79.0701L375.828 77.1768L384.146 74.3213L385.853 79.0701C385.853 79.0701 395.305 78.3563 404.554 82.236C416.457 87.2177 413.555 104.723 409.939 111.459C406.339 118.178 399.883 140.976 381.275 140.448C375.425 140.293 367.231 139.44 361.023 138.71C355.995 138.105 354.676 136.118 354.645 131.044L354.66 112.762L356.445 81.6774Z" fill="#FFB755"/>
<path d="M377.098 84.005C376.958 84.005 376.834 83.9118 376.772 83.7722L376.058 81.6926C375.996 81.5219 376.089 81.3202 376.275 81.2581C376.446 81.196 376.648 81.2891 376.71 81.4753L377.315 83.2445C380.233 82.3755 383.042 81.1339 385.649 79.582C385.804 79.4734 386.022 79.5355 386.115 79.6906C386.208 79.8614 386.161 80.0631 386.006 80.1562C383.244 81.8168 380.279 83.1049 377.191 83.9894C377.16 83.9998 377.129 84.005 377.098 84.005Z" fill="white"/>
<path d="M363.348 122.104L373.187 82.5769L373.295 79.8145L374.289 79.892L375.685 80.0162L374.94 82.8872L370.983 123.159L365.908 128.808L363.348 122.104Z" fill="white"/>
<path d="M357.576 81.3047C357.576 81.3047 354.643 82.0186 352.3 83.974C350.034 85.8828 338.286 99.8656 333.584 104.661C329.828 101.417 327.019 97.2739 324.226 93.1147C323.481 95.4737 321.649 98.4688 317.257 101.092C313.812 103.156 310.429 103.264 308.07 102.907C311.345 109.813 315.426 116.316 320.253 122.229C322.503 125.007 325.048 127.738 328.385 128.979C331.737 130.205 335.554 129.771 338.798 128.297C342.057 126.838 344.804 124.417 347.178 121.763C353.169 115.043 358.492 111.676 359.625 102.768C360.199 98.3137 358.569 88.5366 357.793 84.1136C357.685 83.5084 357.576 81.3047 357.576 81.3047Z" fill="#FFB755"/>
<path d="M338.006 107.827C337.954 107.827 337.903 107.812 337.851 107.781C336.64 107.16 335.492 106.431 334.421 105.593C334.282 105.469 334.25 105.251 334.375 105.112C334.483 104.956 334.701 104.941 334.856 105.05C335.88 105.857 336.997 106.586 338.161 107.176C338.332 107.269 338.394 107.471 338.301 107.641C338.239 107.75 338.13 107.827 338.006 107.827Z" fill="white"/>
<path d="M311.686 108.137C311.515 108.137 311.375 107.998 311.36 107.827C311.329 107.641 311.468 107.47 311.655 107.454C318.887 106.694 323.713 101.945 325.296 97.5687C325.358 97.398 325.56 97.3049 325.731 97.367C325.917 97.429 326.01 97.6308 325.932 97.8015C324.287 102.38 319.259 107.346 311.732 108.137C311.722 108.137 311.706 108.137 311.686 108.137Z" fill="white"/>
<path d="M365.399 164.519L332.746 164.581L316.746 125.457H349.041L365.399 164.519Z" fill="#171717"/>
<path d="M363.753 136.568L357.452 137.562L352.625 136.739L353.712 139.533C353.712 139.533 339.481 138.71 339.481 141.581C339.496 143.443 342.848 143.63 342.848 143.63C342.848 143.63 338.674 143.862 338.891 145.554C339.108 147.23 344.23 147.463 344.23 147.463C344.23 147.463 340.738 147.044 340.862 149.185C340.971 151.312 351.011 151.203 351.011 151.203C351.011 151.203 344.121 150.473 344.199 152.258C344.292 154.555 358.833 156.262 369.184 152.941C369.184 152.941 367.663 143.024 363.753 136.568Z" fill="white"/>
<path d="M357.451 140.153C357.43 140.153 357.41 140.153 357.389 140.153C357.373 140.153 356.008 139.936 354.052 139.936C354.052 139.936 354.047 139.936 354.037 139.936C353.85 139.936 353.695 139.781 353.695 139.594C353.695 139.393 353.866 139.253 354.052 139.253C356.054 139.253 357.435 139.47 357.497 139.47C357.684 139.501 357.808 139.687 357.777 139.874C357.761 140.044 357.606 140.153 357.451 140.153Z" fill="#171717"/>
<path d="M356.475 137.654C356.454 137.654 356.433 137.654 356.412 137.654L352.75 136.91C352.564 136.879 352.44 136.692 352.486 136.506C352.517 136.32 352.703 136.196 352.89 136.242L356.552 136.987C356.738 137.018 356.847 137.204 356.816 137.391C356.785 137.546 356.645 137.654 356.475 137.654Z" fill="#171717"/>
<path d="M348.932 147.804C347.52 147.804 345.952 147.758 344.602 147.711C344.137 147.695 343.702 147.68 343.298 147.68C343.112 147.664 342.957 147.509 342.957 147.323C342.973 147.137 343.128 146.997 343.298 146.997C343.309 146.997 343.314 146.997 343.314 146.997C343.717 146.997 344.168 147.013 344.633 147.028C346.666 147.09 349.196 147.183 350.934 147.075C351.136 147.075 351.291 147.214 351.291 147.401C351.306 147.587 351.167 147.742 350.98 147.758C350.375 147.789 349.677 147.804 348.932 147.804Z" fill="#171717"/>
<path d="M351.137 151.576C349.926 151.576 348.607 151.545 347.474 151.498C347.071 151.498 346.698 151.483 346.357 151.467C346.171 151.467 346.016 151.312 346.016 151.126C346.031 150.939 346.171 150.784 346.357 150.784C346.367 150.784 346.373 150.784 346.373 150.784C346.714 150.8 347.086 150.8 347.49 150.815C349.213 150.877 351.37 150.939 352.829 150.862C353.03 150.846 353.185 150.986 353.185 151.172C353.201 151.374 353.061 151.529 352.875 151.545C352.347 151.576 351.758 151.576 351.137 151.576Z" fill="#171717"/>
<path d="M349.553 144.017C348.435 144.017 347.163 144.002 345.921 144.002C344.773 143.986 343.656 143.971 342.786 143.971C342.6 143.971 342.445 143.816 342.445 143.629C342.445 143.443 342.6 143.288 342.786 143.288C343.671 143.304 344.773 143.304 345.937 143.319C347.442 143.335 348.994 143.35 350.251 143.335C350.262 143.335 350.267 143.335 350.267 143.335C350.453 143.335 350.608 143.49 350.608 143.676C350.608 143.862 350.453 144.017 350.267 144.017C350.039 144.017 349.801 144.017 349.553 144.017Z" fill="#171717"/>
<path d="M368.719 153.097C368.719 153.097 364.808 154.602 360.184 154.602L368.719 153.097Z" fill="white"/>
<path d="M360.185 154.943C359.999 154.943 359.844 154.788 359.844 154.601C359.844 154.4 359.999 154.26 360.185 154.26C364.701 154.26 368.566 152.786 368.612 152.77C368.783 152.708 368.985 152.786 369.047 152.972C369.109 153.143 369.031 153.344 368.845 153.406C368.69 153.468 364.825 154.943 360.185 154.943Z" fill="#171717"/>
<path d="M389.252 99.9746L385.543 122.803L363.754 136.569L369.186 152.941L398.191 140.774C403.979 137.857 407.968 132.301 408.899 125.892L412.887 101.294L389.252 99.9746Z" fill="#FFB755"/>
<path d="M364.279 136.646C364.171 136.646 364.062 136.584 364 136.475C363.891 136.32 363.953 136.103 364.109 136.01L386.192 122.834L389.855 103.062C389.886 102.876 390.057 102.752 390.243 102.783C390.429 102.814 390.553 103 390.522 103.187L386.844 123.113C386.813 123.206 386.767 123.299 386.673 123.346L364.466 136.599C364.403 136.63 364.341 136.646 364.279 136.646Z" fill="white"/>
<path d="M317.755 102.054C321.93 99.0896 323.528 95.9547 324.087 93.5492C323 92.1835 321.914 90.8179 320.797 89.4832C316.451 84.3619 310.989 79.551 304.331 78.6819C303.151 78.5267 301.879 78.5112 300.824 79.0699C299.768 79.6286 299.008 80.9167 299.396 82.0496C300.265 84.5792 304.781 83.3842 306.193 85.6655C304.176 84.9361 301.739 86.907 302.003 89.0332C300.544 89.8091 300.11 91.9818 301.15 93.2699C300.529 94.4493 300.73 96.0168 301.615 97.01C302.515 98.0032 304.036 98.3912 305.278 97.9101C306.348 100.176 307.621 102.364 308.863 104.537C311.252 104.723 314.48 104.382 317.755 102.054Z" fill="white"/>
<path d="M308.616 104.444C308.507 104.444 308.383 104.382 308.321 104.273L308.072 103.823C306.986 101.945 306.055 100.316 305.108 98.3295C303.789 98.6865 302.284 98.2674 301.368 97.2432C300.422 96.1879 300.189 94.5894 300.747 93.3013C300.297 92.634 300.127 91.7649 300.313 90.8959C300.484 90.0268 300.965 89.2819 301.648 88.8473C301.601 87.8076 302.098 86.7523 303.029 86.0073C303.696 85.4642 304.488 85.1848 305.248 85.1693C304.581 84.7192 303.665 84.533 302.703 84.3313C301.182 84.0054 299.583 83.664 299.071 82.1586C298.621 80.8084 299.521 79.3807 300.67 78.7754C301.911 78.1236 303.386 78.2167 304.379 78.3409C309.997 79.0858 315.444 82.6552 321.046 89.2664C321.388 89.6699 321.714 90.0268 322.009 90.3837C322.676 91.1597 323.312 91.9046 324.073 92.8668C324.197 93.0065 324.166 93.2237 324.026 93.3479C323.871 93.4565 323.654 93.441 323.545 93.2858C322.785 92.3391 322.179 91.6408 321.496 90.8338C321.186 90.4768 320.876 90.1199 320.534 89.7009C315.041 83.2294 309.733 79.7376 304.286 79.0237C303.386 78.8996 302.051 78.8065 300.98 79.3807C300.111 79.8462 299.382 80.9481 299.723 81.9413C300.111 83.0742 301.446 83.3536 302.843 83.6639C304.27 83.9588 305.745 84.2692 306.489 85.4797C306.567 85.6038 306.552 85.759 306.474 85.8677C306.381 85.9918 306.226 86.0384 306.086 85.9763C305.248 85.6814 304.27 85.8987 303.463 86.5505C302.656 87.1868 302.237 88.1024 302.346 88.987C302.361 89.1267 302.284 89.2664 302.16 89.3284C301.554 89.6543 301.135 90.2751 300.98 91.0355C300.825 91.7805 300.98 92.5254 301.415 93.053C301.492 93.1617 301.508 93.3013 301.446 93.4255C300.903 94.4808 301.089 95.893 301.88 96.7776C302.672 97.6777 304.053 98.0191 305.17 97.5846C305.326 97.5225 305.512 97.6001 305.589 97.7708C306.583 99.8659 307.545 101.542 308.662 103.482L308.91 103.932C309.004 104.103 308.957 104.304 308.786 104.398C308.735 104.429 308.678 104.444 308.616 104.444Z" fill="#171717"/>
<path d="M316.513 100.487L270.235 43.1746C270.064 42.9729 270.095 42.647 270.312 42.4763C270.529 42.3056 270.84 42.3211 271.01 42.5383L318.654 98.7331L316.513 100.487Z" fill="white"/>
<path fill-rule="evenodd" clip-rule="evenodd" d="M316.468 100.968L269.972 43.3916C269.678 43.0346 269.74 42.507 270.097 42.2121C270.454 41.9173 270.981 41.9638 271.276 42.3208L319.137 98.7638L316.468 100.968ZM270.64 42.7087C270.598 42.6984 270.562 42.7087 270.531 42.7398C270.469 42.7863 270.454 42.895 270.516 42.957L316.576 100.005L318.175 98.6862L270.764 42.7553C270.733 42.7243 270.686 42.7087 270.64 42.7087Z" fill="#171717"/>
<path d="M307.452 94.2789C307.421 94.2789 307.384 94.2789 307.343 94.2789C306.536 94.2478 305.683 93.8909 304.782 93.177C303.541 92.2148 302.532 90.9578 301.88 89.5455C301.803 89.3748 301.865 89.1731 302.051 89.08C302.222 89.0024 302.424 89.08 302.501 89.2507C303.106 90.5698 304.053 91.7492 305.201 92.6338C305.993 93.2546 306.707 93.565 307.374 93.596C308.057 93.6115 308.895 93.2546 309.112 92.5407C309.174 92.37 309.361 92.2614 309.531 92.3235C309.718 92.37 309.826 92.5718 309.764 92.7425C309.454 93.7667 308.383 94.2789 307.452 94.2789Z" fill="#171717"/>
<path d="M305.774 96.5914C304.983 96.5914 304.145 96.3276 303.369 95.831C302.422 95.2257 301.646 94.3256 301.026 93.6117C300.901 93.472 300.917 93.2548 301.057 93.1306C301.212 93.0065 301.429 93.022 301.553 93.1772C302.298 94.0307 302.934 94.7291 303.741 95.2567C304.642 95.8309 305.619 96.0327 306.442 95.8154C307.357 95.5671 308.04 94.7291 307.994 93.9066C307.978 93.7203 308.133 93.5496 308.32 93.5496C308.506 93.5341 308.661 93.6738 308.677 93.86C308.739 95.0084 307.838 96.1569 306.628 96.4828C306.349 96.5552 306.064 96.5914 305.774 96.5914Z" fill="#171717"/>
<path d="M305.092 98.1743C304.921 98.1743 304.766 98.0501 304.75 97.8794C304.719 97.6932 304.859 97.5225 305.045 97.4914C305.713 97.4138 306.302 96.8551 306.442 96.2033C306.473 96.0171 306.659 95.8929 306.846 95.9395C307.032 95.9705 307.14 96.1568 307.109 96.343C306.908 97.2741 306.085 98.0501 305.138 98.1743C305.118 98.1743 305.102 98.1743 305.092 98.1743Z" fill="#171717"/>
<path d="M315.224 87.435C313.098 86.3331 309.094 83.788 307.713 82.9189C306.937 82.4223 305.897 82.3292 305.37 83.4C304.904 84.3777 305.168 85.5261 305.618 85.9607C305.944 86.2711 308.086 88.5369 311.5 90.6785C313.222 91.7493 315.364 92.6494 320.144 92.8201L315.224 87.435Z" fill="white"/>
<path d="M314.123 93.7821C314.029 93.7821 313.936 93.7355 313.874 93.6579C313.688 93.4407 313.502 93.2182 313.316 92.9906C312.478 91.9508 311.593 90.88 310.414 90.2748C307.232 88.6452 305.37 86.9847 304.873 85.3086C304.594 84.3775 304.827 83.6636 305.075 83.2291C305.37 82.7325 305.773 82.4066 306.239 82.2824C306.751 82.1583 307.341 82.2824 307.899 82.6238C308.272 82.8566 308.644 83.167 309.032 83.4774C310.165 84.3775 311.577 85.4793 314.092 86.1622C314.278 86.2087 314.386 86.395 314.34 86.5812C314.293 86.7519 314.107 86.8761 313.921 86.814C311.252 86.1001 309.793 84.9517 308.613 84.005C308.21 83.6946 307.868 83.4153 307.527 83.2136C307.139 82.9652 306.736 82.8721 306.41 82.9497C306.12 83.0221 305.872 83.2291 305.665 83.5705C305.494 83.8809 305.323 84.4085 305.525 85.1224C305.835 86.1311 306.968 87.7451 310.724 89.654C312.043 90.3368 313.005 91.5163 313.843 92.5561C314.029 92.7837 314.211 93.0061 314.386 93.2234C314.511 93.3631 314.495 93.5803 314.355 93.7045C314.293 93.751 314.2 93.7821 314.123 93.7821Z" fill="#171717"/>
<path d="M326.679 277.187C326.555 277.187 326.431 277.11 326.369 276.985L284.374 185.702C284.296 185.531 284.374 185.329 284.545 185.252C284.715 185.174 284.917 185.252 284.995 185.423L326.989 276.691C327.067 276.861 326.989 277.063 326.819 277.156C326.777 277.177 326.731 277.187 326.679 277.187Z" fill="#171717"/>
<path d="M325.109 280.679C325.109 282.324 326.444 283.659 328.089 283.659C329.734 283.659 331.053 282.324 331.053 280.679C331.053 279.05 329.734 277.715 328.089 277.715C326.444 277.715 325.109 279.05 325.109 280.679Z" fill="#171717"/>
<path d="M80.6051 277.187C80.5534 277.187 80.5017 277.177 80.4499 277.156C80.2792 277.063 80.2172 276.861 80.2947 276.691L122.274 185.423C122.352 185.252 122.553 185.174 122.724 185.252C122.895 185.329 122.972 185.531 122.895 185.702L80.9155 276.985C80.8534 277.11 80.7293 277.187 80.6051 277.187Z" fill="#171717"/>
<path d="M82.1584 280.679C82.1584 282.324 80.8238 283.659 79.1943 283.659C77.5492 283.659 76.2146 282.324 76.2146 280.679C76.2146 279.05 77.5492 277.715 79.1943 277.715C80.8238 277.715 82.1584 279.05 82.1584 280.679Z" fill="#171717"/>
<path d="M321.667 185.174H89.625V181.108H321.667V185.174Z" fill="white"/>
<path fill-rule="evenodd" clip-rule="evenodd" d="M321.665 185.515H89.6226C89.4208 185.515 89.2656 185.36 89.2656 185.174V181.108C89.2656 180.922 89.4208 180.767 89.6226 180.767H321.665C321.851 180.767 322.006 180.922 322.006 181.108V185.174C322.006 185.36 321.851 185.515 321.665 185.515ZM89.964 184.833H321.323V181.449H89.964V184.833Z" fill="#171717"/>
<path d="M165.451 181.108H114.905C114.61 181.108 114.3 181.03 114.067 180.86C113.477 180.456 113.276 179.758 113.509 179.137C114.114 177.895 115.34 177.445 117.156 177.445H168.772L168.105 179.277C167.686 180.378 166.63 181.108 165.451 181.108Z" fill="#171717"/>
<path d="M167.404 181.108L176.979 157.084C177.212 156.479 177.15 155.812 176.777 155.269C176.42 154.741 175.831 154.431 175.179 154.431H144.11C142.247 154.431 140.571 155.61 139.951 157.379L131.555 181.108H167.404Z" fill="#171717"/>
<path d="M159.972 162.811C159.972 163.463 159.46 163.991 158.808 163.991C158.157 163.991 157.629 163.463 157.629 162.811C157.629 162.159 158.157 161.632 158.808 161.632C159.46 161.632 159.972 162.159 159.972 162.811Z" fill="#00A82D"/>
<path d="M65.1032 267.953L61.8753 277.839C60.9441 280.694 62.9461 283.658 65.8171 283.658H92.7428L97.5848 267.953H65.1032Z" fill="white"/>
<path fill-rule="evenodd" clip-rule="evenodd" d="M92.7423 284H65.8166C64.3889 284 63.0852 283.317 62.2317 282.137C61.3161 280.88 61.0678 279.235 61.5489 277.73L64.7768 267.844C64.8234 267.704 64.9475 267.611 65.1027 267.611H97.5843C97.6929 267.611 97.8015 267.658 97.8636 267.751C97.9257 267.829 97.9412 267.937 97.9102 268.046L93.0682 283.751C93.0216 283.906 92.8975 284 92.7423 284ZM65.351 268.294L62.2007 277.947C61.7816 279.235 61.9989 280.647 62.7904 281.734C63.5043 282.742 64.6216 283.317 65.8166 283.317H92.494L97.1187 268.294H65.351Z" fill="#171717"/>
<path d="M96.9652 269.846L114.409 216.228L82.548 212.084L62.668 269.846H96.9652Z" fill="#3335CF"/>
<path d="M124.029 280.726L113.382 272.314C113.382 272.314 114.22 270.421 115.617 267.146H81.6458C79.9852 272.314 78.5575 276.784 77.5953 279.764C76.9745 281.672 78.2626 283.659 80.1094 283.659H123.159C124.603 283.659 125.192 281.641 124.029 280.726Z" fill="white"/>
<path fill-rule="evenodd" clip-rule="evenodd" d="M123.16 284H80.1095C79.1784 284 78.3248 283.55 77.7506 282.758C77.0988 281.874 76.9281 280.725 77.2695 279.655C78.2317 276.675 79.6595 272.205 81.32 267.053C81.3666 266.913 81.5063 266.805 81.6459 266.805H115.617C115.741 266.805 115.835 266.867 115.912 266.96C115.974 267.053 115.974 267.177 115.928 267.286C114.841 269.862 114.065 271.6 113.802 272.221L124.246 280.446C124.913 280.989 125.162 281.874 124.867 282.727C124.603 283.519 123.951 284 123.16 284ZM81.8942 267.488C80.2647 272.562 78.868 276.939 77.9213 279.872C77.642 280.725 77.7817 281.656 78.2938 282.355C78.7438 282.96 79.3957 283.317 80.1095 283.317H123.16C123.734 283.317 124.091 282.898 124.23 282.51C124.37 282.076 124.355 281.408 123.811 280.989L113.165 272.593C113.041 272.485 113.01 272.33 113.072 272.174C113.072 272.159 113.848 270.436 115.105 267.488H81.8942Z" fill="#171717"/>
<path d="M98.5139 221.318C98.5139 221.318 84.9657 252.062 78.5563 270.25H117.944C121.141 263.546 128.823 241.509 136.396 220.015C141.843 204.573 130.344 188.387 113.971 188.387H28.1502L22.9668 201.811C19.3508 211.169 26.2879 221.225 36.3132 221.163C60.073 221.023 98.5139 221.318 98.5139 221.318Z" fill="#3335CF"/>
<path d="M78.5601 270.591C78.5291 270.591 78.4929 270.586 78.4515 270.576C78.2808 270.514 78.1877 270.328 78.2498 270.141C84.147 253.381 96.252 225.617 97.9901 221.66C96.0347 221.644 88.7407 221.582 79.4137 221.551C79.2275 221.535 79.0723 221.396 79.0723 221.194C79.0723 221.008 79.2275 220.853 79.4137 220.853C90.3236 220.915 98.4402 220.977 98.5178 220.977C98.6264 220.977 98.735 221.039 98.7971 221.132C98.8592 221.225 98.8747 221.349 98.8281 221.458C98.6885 221.768 85.2179 252.403 78.8861 270.374C78.8395 270.514 78.7153 270.591 78.5601 270.591Z" fill="#171717"/>
<path fill-rule="evenodd" clip-rule="evenodd" d="M86.0523 273.99C84.0038 273.99 82.2501 273.943 81.2259 273.804C81.0396 273.773 80.9155 273.602 80.931 273.416C80.962 273.23 81.1327 273.105 81.319 273.121C86.4092 273.788 111.721 272.438 113.133 272.066C113.257 272.004 113.413 272.019 113.521 272.112C113.661 272.236 113.676 272.454 113.552 272.593C113.428 272.733 113.35 272.81 108.928 273.105C106.165 273.292 102.611 273.478 99.166 273.633C96.2173 273.757 90.4442 273.99 86.0523 273.99Z" fill="#171717"/>
<path d="M111.506 221.738H99.5875C99.3858 221.738 99.2461 221.582 99.2461 221.396C99.2461 221.21 99.3858 221.055 99.5875 221.055H111.506C111.692 221.055 111.848 221.21 111.848 221.396C111.848 221.582 111.692 221.738 111.506 221.738Z" fill="#171717"/>
<path d="M89.0791 277.342C88.9394 277.342 88.8153 277.264 88.7532 277.14L64.1864 223.755C64.1088 223.568 64.1864 223.367 64.3571 223.289C64.5278 223.211 64.7296 223.289 64.8072 223.46L89.3739 276.861C89.4671 277.032 89.3895 277.233 89.2188 277.311C89.167 277.332 89.1205 277.342 89.0791 277.342Z" fill="#171717"/>
<path d="M87.543 280.757C87.543 282.355 88.8466 283.659 90.445 283.659C92.059 283.659 93.3471 282.355 93.3471 280.757C93.3471 279.158 92.059 277.854 90.445 277.854C88.8466 277.854 87.543 279.158 87.543 280.757Z" fill="#171717"/>
<path d="M4.28482 277.342C4.23309 277.342 4.18136 277.332 4.12963 277.311C3.95892 277.233 3.89684 277.032 3.97444 276.861L28.5412 223.46C28.6188 223.289 28.8206 223.211 29.0068 223.289C29.1775 223.367 29.2396 223.568 29.162 223.755L4.5952 277.14C4.53312 277.264 4.40897 277.342 4.28482 277.342Z" fill="#171717"/>
<path d="M5.80415 280.757C5.80415 282.355 4.50055 283.659 2.90207 283.659C1.3036 283.659 0 282.355 0 280.757C0 279.158 1.3036 277.854 2.90207 277.854C4.50055 277.854 5.80415 279.158 5.80415 280.757Z" fill="#171717"/>
<path d="M23.1996 225.695H70.1449C72.659 225.695 74.692 223.662 74.692 221.163V221.008C74.692 218.51 72.659 216.477 70.1449 216.477H23.1996C20.6855 216.477 18.668 218.51 18.668 221.008V221.163C18.668 223.662 20.6855 225.695 23.1996 225.695Z" fill="white"/>
<path d="M70.1463 226.036H23.2009C20.5161 226.036 18.3279 223.848 18.3279 221.163V221.008C18.3279 218.323 20.5161 216.135 23.2009 216.135H25.6839C25.8702 216.135 26.0254 216.29 26.0254 216.476C26.0254 216.662 25.8702 216.818 25.6839 216.818H23.2009C20.8885 216.818 19.0107 218.695 19.0107 221.008V221.163C19.0107 223.475 20.8885 225.353 23.2009 225.353H70.1463C72.4586 225.353 74.3364 223.475 74.3364 221.163V221.085C74.3364 220.899 74.4916 220.744 74.6934 220.744C74.8796 220.744 75.0348 220.899 75.0348 221.085V221.163C75.0348 223.848 72.8466 226.036 70.1463 226.036Z" fill="#171717"/>
<path d="M7.18657 147.897C13.1614 131.494 39.4198 140.371 57.5306 112.964C59.9827 109.255 61.5191 104.863 64.8401 101.914C67.8043 99.2914 72.2738 97.7395 76.2467 97.7085C80.5455 97.6774 84.7201 99.1828 87.2498 102.24C90.8036 106.523 80.7007 120.925 80.7007 120.925C80.7007 120.925 79.7385 140.122 71.8393 150.799C69.6821 155.191 73.205 164.953 69.8683 168.553C63.5055 175.444 56.7236 176.468 47.5053 178.144C28.5719 181.558 -0.960977 170.214 7.18657 147.897Z" fill="#171717"/>
<path d="M67.8355 130.469L71.9325 120.553C72.2274 119.854 75.3002 117.713 75.983 118.054L80.9957 123.641C81.5699 123.951 81.8492 124.619 81.632 125.224L78.8075 133.232C78.3264 134.582 77.1314 135.575 75.7037 135.793C73.8879 136.056 71.2807 135.855 68.5959 133.62C67.6803 132.859 67.3699 131.571 67.8355 130.469Z" fill="white"/>
<path d="M67.3237 131.851C67.272 131.851 67.2254 131.841 67.184 131.82C67.0133 131.742 66.9357 131.541 66.9978 131.37L72.057 119.637C72.1346 119.467 72.3364 119.389 72.5071 119.467C72.6778 119.544 72.7554 119.746 72.6778 119.917L67.6341 131.634C67.572 131.773 67.4479 131.851 67.3237 131.851Z" fill="#171717"/>
<path d="M78.3886 134.582C78.3472 134.582 78.311 134.571 78.28 134.551C78.0937 134.489 78.0006 134.287 78.0782 134.116L81.7718 124.168C81.8494 123.998 82.0356 123.904 82.2218 123.967C82.3925 124.029 82.4857 124.23 82.4236 124.401L78.7145 134.349C78.6679 134.489 78.5283 134.582 78.3886 134.582Z" fill="#171717"/>
<path d="M74.6019 118.023C74.6019 118.023 73.5466 117.03 72.3672 117.775C71.2188 118.489 70.8929 120.196 71.4981 121.422C72.1189 122.648 73.5777 123.346 74.9278 123.144C75.6883 123.02 76.3866 122.849 76.9764 122.167C78.342 123.222 79.9405 124.013 81.6631 124.262C83.3702 124.494 85.2015 124.138 86.5827 123.113C88.9106 121.391 89.6245 118.101 89.0658 115.261C88.5071 112.421 87.0328 109.829 85.2791 107.501C84.6273 106.616 84.0531 105.809 82.2839 104.506C83.0754 107.268 78.0627 116.921 74.6019 118.023Z" fill="white"/>
<path fill-rule="evenodd" clip-rule="evenodd" d="M82.687 124.665C82.3352 124.665 81.9782 124.639 81.6161 124.587C80.0487 124.37 78.4657 123.687 77.0069 122.616C76.3707 123.222 75.6257 123.377 74.9739 123.485C73.4531 123.703 71.8546 122.911 71.1873 121.576C70.4734 120.149 70.939 118.271 72.196 117.479C73.1737 116.859 74.1514 117.247 74.6636 117.635C77.8915 116.331 82.687 107.144 81.9576 104.599C81.911 104.459 81.9731 104.304 82.0972 104.226C82.2059 104.133 82.3766 104.133 82.4852 104.226C84.2078 105.499 84.8131 106.306 85.4494 107.159L85.558 107.299C87.6376 110.061 88.8946 112.653 89.4067 115.198C90.0585 118.519 89.0343 121.732 86.784 123.392C85.6666 124.215 84.2078 124.665 82.687 124.665ZM76.9759 121.825C77.038 121.825 77.1156 121.84 77.1777 121.887C78.6209 123.004 80.1728 123.703 81.7092 123.92C83.4319 124.153 85.1235 123.765 86.3805 122.834C88.6929 121.126 89.236 117.836 88.7239 115.338C88.2428 112.886 87.0323 110.387 85.0148 107.718L84.9062 107.578C84.3785 106.864 83.8819 106.197 82.7025 105.25C82.6404 108.897 78.0312 117.278 74.7101 118.333C74.586 118.38 74.4618 118.348 74.3687 118.271C74.3221 118.224 73.4841 117.479 72.553 118.054C71.6063 118.659 71.2493 120.164 71.808 121.266C72.3357 122.337 73.6393 122.989 74.8808 122.802C75.6723 122.678 76.231 122.508 76.7121 121.933C76.7742 121.856 76.8673 121.825 76.9759 121.825Z" fill="#171717"/>
<path d="M75.6393 121.142C75.5772 121.142 75.4997 121.111 75.4376 121.08C74.8478 120.63 74.0874 120.413 73.358 120.491C73.1718 120.506 73.0011 120.367 72.9856 120.18C72.97 119.994 73.1097 119.823 73.2959 119.808C74.196 119.73 75.1272 119.979 75.8566 120.522C75.9963 120.63 76.0273 120.848 75.9187 121.003C75.8566 121.096 75.748 121.142 75.6393 121.142Z" fill="#171717"/>
<path d="M112.949 126.683C112.949 126.683 126.311 105.437 127.584 103.932C128.872 102.427 131.2 103.125 128.779 107.594L126.916 111.738C126.916 111.738 129.524 110.698 129.71 113.554C129.71 113.554 131.572 112.669 131.65 115.276C131.65 115.276 133.838 114.469 133.652 116.968C133.481 119.389 126.761 136.258 126.761 136.258C126.761 136.258 116.332 132.689 112.949 126.683Z" fill="white"/>
<path d="M126.76 136.6C126.719 136.6 126.677 136.595 126.636 136.584C126.465 136.507 126.388 136.32 126.45 136.134C128.762 130.314 133.185 118.815 133.325 116.952C133.371 116.301 133.247 115.866 132.968 115.664C132.595 115.385 131.974 115.525 131.757 115.602C131.664 115.633 131.54 115.618 131.447 115.556C131.354 115.494 131.307 115.401 131.307 115.276C131.276 114.547 131.105 114.05 130.795 113.864C130.407 113.616 129.864 113.864 129.864 113.864C129.755 113.911 129.631 113.911 129.538 113.849C129.445 113.802 129.383 113.693 129.367 113.585C129.321 112.84 129.088 112.343 128.7 112.095C128.033 111.676 127.055 112.048 127.039 112.048C126.915 112.095 126.76 112.064 126.667 111.971C126.574 111.862 126.543 111.723 126.605 111.598L128.467 107.455C129.817 104.972 129.553 103.885 129.196 103.637C128.871 103.42 128.281 103.637 127.846 104.149C126.605 105.623 113.367 126.652 113.243 126.869C113.134 127.024 112.932 127.071 112.762 126.978C112.607 126.869 112.56 126.652 112.669 126.497C113.212 125.628 126.046 105.204 127.334 103.699C128.001 102.908 128.964 102.644 129.584 103.078C130.034 103.389 130.873 104.444 129.072 107.765L127.505 111.241C127.97 111.179 128.56 111.195 129.057 111.521C129.569 111.831 129.879 112.359 130.003 113.119C130.314 113.042 130.748 113.026 131.136 113.274C131.602 113.554 131.866 114.081 131.959 114.842C132.347 114.78 132.921 114.764 133.371 115.106C133.852 115.463 134.069 116.099 133.992 116.999C133.821 119.436 127.365 135.7 127.086 136.398C127.039 136.522 126.9 136.6 126.76 136.6Z" fill="#171717"/>
<path d="M120.367 122.042C120.264 122.042 120.16 122.032 120.057 122.011C119.871 121.995 119.731 121.809 119.762 121.623C119.793 121.437 119.964 121.313 120.15 121.344C120.895 121.452 121.609 120.987 122.028 120.506C122.494 119.993 122.788 119.373 123.114 118.705L123.238 118.473C123.58 117.743 124.03 116.921 124.728 116.346C124.992 116.145 125.256 115.974 125.52 115.819C125.69 115.71 125.861 115.617 126.016 115.508C126.451 115.214 126.715 114.888 126.808 114.562C126.839 114.422 126.808 114.282 126.777 114.251C126.725 114.22 126.596 114.241 126.389 114.313L121.081 116.176C120.895 116.238 120.709 116.145 120.647 115.974C120.585 115.788 120.678 115.602 120.848 115.539L126.156 113.677C126.373 113.6 126.808 113.444 127.165 113.693C127.46 113.894 127.568 114.298 127.46 114.717C127.335 115.214 126.979 115.679 126.404 116.067C126.234 116.191 126.047 116.3 125.877 116.409C125.613 116.548 125.38 116.703 125.163 116.874C124.558 117.371 124.17 118.116 123.844 118.767L123.735 119C123.409 119.683 123.068 120.381 122.54 120.971C121.919 121.654 121.128 122.042 120.367 122.042Z" fill="#171717"/>
<path d="M126.079 119.482C125.753 119.482 125.443 119.389 125.21 119.218C124.806 118.923 124.589 118.396 124.62 117.806C124.636 117.325 124.806 116.89 124.962 116.487C125.024 116.316 125.225 116.238 125.396 116.3C125.582 116.363 125.66 116.564 125.598 116.735C125.458 117.107 125.318 117.48 125.303 117.837C125.287 118.116 125.365 118.473 125.613 118.675C125.831 118.83 126.188 118.846 126.513 118.706C126.793 118.582 127.057 118.349 127.351 117.977C128.376 116.673 128.841 114.966 129.26 113.46C129.307 113.274 129.493 113.181 129.679 113.228C129.866 113.274 129.974 113.46 129.928 113.647C129.478 115.214 128.997 116.983 127.895 118.396C127.662 118.69 127.289 119.109 126.793 119.327C126.56 119.435 126.312 119.482 126.079 119.482Z" fill="#171717"/>
<path d="M128.112 120.537C127.77 120.537 127.46 120.444 127.212 120.273C126.637 119.901 126.451 119.125 126.777 118.582C126.87 118.427 127.087 118.365 127.243 118.473C127.398 118.566 127.46 118.768 127.351 118.939C127.227 119.156 127.336 119.544 127.584 119.715C127.848 119.885 128.251 119.901 128.608 119.746C128.934 119.606 129.229 119.358 129.57 118.954C130.486 117.884 131.06 116.518 131.184 115.121C131.2 114.935 131.371 114.795 131.557 114.811C131.743 114.826 131.883 114.981 131.867 115.183C131.728 116.72 131.107 118.225 130.098 119.404C129.834 119.715 129.431 120.149 128.888 120.367C128.624 120.475 128.36 120.537 128.112 120.537Z" fill="#171717"/>
<path d="M131.136 121.871C130.826 121.871 130.531 121.778 130.298 121.623C129.91 121.359 129.647 120.878 129.6 120.335C129.553 119.885 129.631 119.435 129.709 119.031C129.74 118.845 129.926 118.721 130.112 118.768C130.298 118.799 130.423 118.969 130.376 119.156C130.314 119.528 130.236 119.916 130.283 120.257C130.314 120.614 130.469 120.909 130.671 121.049C130.919 121.22 131.292 121.235 131.602 121.08C131.974 120.894 132.207 120.552 132.347 120.288C132.518 119.947 132.626 119.559 132.735 119.109C132.781 118.923 132.968 118.814 133.154 118.861C133.34 118.907 133.449 119.094 133.402 119.28C133.278 119.761 133.154 120.195 132.952 120.599C132.688 121.111 132.316 121.483 131.897 121.701C131.649 121.809 131.4 121.871 131.136 121.871Z" fill="#171717"/>
<path d="M91.0664 158.497L110.714 155.021C113.988 154.555 116.751 153.376 118.582 150.613C121.127 146.78 124.665 141.209 126.76 136.258C126.76 136.258 120.755 133.682 118.877 132.58C115.323 130.5 112.948 126.683 112.948 126.683L106.089 134.954C106.089 134.954 93.9495 136.386 81.9998 138L91.0664 158.497Z" fill="#FFB755"/>
<path d="M91.0679 158.838C90.9127 158.838 90.7731 158.714 90.742 158.559C90.711 158.372 90.8196 158.186 91.0058 158.155L110.901 154.461C114.129 154.011 117.342 152.009 119.111 149.356C121.222 146.174 123.937 141.844 126.296 136.49C125.303 136.18 122.463 135.171 118.397 132.486C115.247 130.407 113.524 128.157 112.919 127.256L106.354 135.171C106.292 135.233 106.215 135.28 106.121 135.295C106.013 135.311 94.0631 136.77 82.4548 138.492C82.2686 138.523 82.0979 138.399 82.0668 138.213C82.0358 138.027 82.1755 137.84 82.3617 137.825C93.3027 136.195 104.554 134.799 105.904 134.628L112.686 126.465C112.764 126.372 112.872 126.341 112.981 126.341C113.09 126.356 113.198 126.418 113.245 126.512C113.26 126.543 114.952 129.398 118.77 131.912C123.658 135.14 126.824 135.916 126.855 135.932C126.948 135.947 127.026 136.025 127.072 136.118C127.119 136.195 127.119 136.304 127.088 136.397C124.667 141.969 121.858 146.454 119.67 149.744C117.807 152.537 114.409 154.663 111.01 155.144L91.13 158.822C91.1093 158.833 91.0886 158.838 91.0679 158.838Z" fill="#171717"/>
<path d="M27.9961 188.79H68.4234L74.8639 174.388C74.8639 174.388 82.2355 181.977 91.64 180.689C101.045 179.385 111.334 171.269 120.195 171.347C120.195 171.347 122.74 171.89 124.137 174.016C125.518 176.142 127.536 175.832 127.893 174.481C128.234 173.116 125.953 169.283 125.953 169.283C125.953 169.283 127.148 171.021 128.777 173.954C130.019 176.204 131.4 173.799 131.4 173.799C131.4 173.799 133.542 172.386 132.936 168.972C132.936 168.972 133.728 167.901 133.324 166.442C132.921 164.984 128.731 156.883 117.153 158.388C109.565 159.381 102.286 161.197 98.1426 162.33C95.8923 162.966 93.4868 162.066 92.1832 160.126C91.0814 158.497 89.6536 156.417 89.0794 154.012C85.0134 137.018 76.5555 130.686 67.6475 130.671C60.9277 130.671 52.1904 134.752 41.5908 156.06C33.7692 171.735 27.9961 188.79 27.9961 188.79Z" fill="#FFB755"/>
<path d="M111 173.5L108 160L120 158C128 158 132.333 164 133.5 167L133 169L132.5 168C132.5 173 133 170.5 131.5 173.5C130.3 175.9 129 174.5 128.5 173.5H128C127 179 123 172 120.5 171.5C119 170.5 113.667 172.333 111 173.5Z" fill="white"/>
<path d="M27.9954 189.132C27.954 189.132 27.9126 189.121 27.8712 189.1C27.685 189.038 27.6074 188.837 27.6695 188.666C27.7471 188.464 35.2894 169.143 41.6212 155.145C51.8328 132.564 60.5545 129.973 68.4382 130.531C82.4986 131.54 86.5956 144.793 88.7838 151.917C89.0011 152.646 89.2184 153.313 89.4046 153.903C90.0564 155.858 91.0807 157.892 92.4619 159.94C93.6879 161.756 95.9381 162.594 98.0643 162.004C101.835 160.964 109.347 159.055 117.106 158.047C128.544 156.557 133.06 164.223 133.65 166.349C134.007 167.669 133.51 168.693 133.293 169.05C133.805 172.231 132.036 173.737 131.663 174.031C131.492 174.311 130.841 175.257 129.956 175.257C129.382 175.257 128.885 174.869 128.466 174.109C128.383 173.954 128.301 173.799 128.218 173.643C128.264 174 128.28 174.311 128.218 174.559C128.032 175.242 127.489 175.754 126.775 175.863C125.719 176.033 124.633 175.413 123.842 174.202C122.631 172.355 120.427 171.766 120.148 171.688C115.43 171.657 110.417 173.938 105.079 176.344C100.64 178.346 96.0623 180.425 91.6859 181.015C83.3987 182.163 76.5858 176.452 74.9718 174.963L68.7331 188.93C68.6555 189.1 68.4538 189.178 68.283 189.1C68.1123 189.023 68.0347 188.821 68.1123 188.65L74.5528 174.249C74.5993 174.14 74.6924 174.062 74.8011 174.047C74.9097 174.031 75.0183 174.062 75.0959 174.14C75.1735 174.218 82.4675 181.605 91.5928 180.348C95.8605 179.758 100.408 177.709 104.8 175.723C109.983 173.38 115.337 170.974 120.195 171.005C120.215 171.005 120.236 171.01 120.257 171.021C120.365 171.036 122.972 171.61 124.416 173.83C125.161 174.978 126.061 175.288 126.666 175.195C127.116 175.118 127.442 174.823 127.551 174.388C127.783 173.504 126.511 170.897 125.657 169.453C125.564 169.298 125.611 169.096 125.766 168.988C125.921 168.895 126.138 168.941 126.231 169.081C126.247 169.096 127.457 170.866 129.071 173.783C129.273 174.14 129.584 174.575 129.956 174.575C130.453 174.575 130.965 173.876 131.104 173.628C131.136 173.576 131.172 173.535 131.213 173.504C131.291 173.457 133.153 172.169 132.594 169.034C132.579 168.941 132.594 168.832 132.656 168.77C132.687 168.724 133.339 167.808 132.998 166.536C132.47 164.642 128.032 157.317 117.199 158.73C109.471 159.738 102.006 161.632 98.235 162.671C95.845 163.323 93.2844 162.392 91.8876 160.312C90.4909 158.217 89.4356 156.138 88.7528 154.12C88.5665 153.531 88.3493 152.848 88.132 152.118C85.9904 145.15 81.9864 132.192 68.3917 131.214C60.7563 130.671 52.2828 133.232 42.2419 155.424C35.9257 169.407 28.3834 188.713 28.3058 188.914C28.2592 189.054 28.1351 189.132 27.9954 189.132Z" fill="#171717"/>
<path d="M131.479 173.985C131.469 173.985 131.464 173.985 131.464 173.985C131.277 173.985 131.122 173.814 131.138 173.628C131.246 171.315 130.362 168.941 128.779 167.265C128.655 167.125 128.655 166.908 128.794 166.784C128.934 166.644 129.151 166.66 129.275 166.799C130.998 168.6 131.945 171.176 131.821 173.659C131.805 173.845 131.665 173.985 131.479 173.985Z" fill="#171717"/>
<path d="M132.951 169.437C132.811 169.437 132.672 169.344 132.625 169.205C132.02 167.404 130.964 165.759 129.568 164.471C129.428 164.332 129.428 164.114 129.552 163.99C129.676 163.851 129.894 163.835 130.033 163.959C131.523 165.34 132.641 167.079 133.277 168.987C133.323 169.174 133.23 169.36 133.06 169.422C133.018 169.432 132.982 169.437 132.951 169.437Z" fill="#171717"/>
<path d="M110.96 173.737C110.805 173.737 110.649 173.628 110.618 173.458L107.732 160.049C107.701 159.863 107.809 159.677 107.996 159.646C108.182 159.599 108.368 159.723 108.399 159.909L111.286 173.318C111.332 173.504 111.208 173.69 111.022 173.721C111.001 173.732 110.98 173.737 110.96 173.737Z" fill="#171717"/>
<path d="M73.9317 174.171C73.8386 174.171 73.7454 174.125 73.6678 174.047C68.0189 167.436 64.1857 159.413 62.5717 150.862C62.5406 150.675 62.6493 150.505 62.8355 150.474C63.0217 150.427 63.208 150.551 63.239 150.738C64.8375 159.164 68.6241 167.079 74.1955 173.597C74.3197 173.737 74.3041 173.954 74.1489 174.078C74.0869 174.14 74.0093 174.171 73.9317 174.171Z" fill="#171717"/>
<path d="M224.11 218.059C235.077 237.851 246.049 257.638 257.026 277.42C259.028 281.191 262.97 283.534 267.284 283.534H312.399C313.671 283.534 314.23 281.982 313.252 281.191L294.179 265.827C289.989 256.764 283.642 243.619 275.215 228.038C260.673 201.159 256.312 197.419 253.302 195.231C240.39 185.888 225.616 186.338 201.344 186.742C181.572 187.083 175.582 187.89 164.688 190.544C187.889 198.986 200.909 209.632 224.11 218.059Z" fill="#3335CF"/>
<path d="M257 278L252 269C260.5 271 293 268.5 295 266.5L312 280.5C314.8 282.1 313.167 283.167 312 283.5H268.5C262.5 284.3 258.333 280.167 257 278Z" fill="white"/>
<path fill-rule="evenodd" clip-rule="evenodd" d="M312.402 283.876H267.288C262.834 283.876 258.799 281.47 256.719 277.591L223.881 218.339C212.319 214.133 203.132 209.291 194.239 204.604C185.347 199.917 176.144 195.075 164.567 190.87C164.427 190.823 164.334 190.683 164.349 190.528C164.349 190.373 164.458 190.249 164.613 190.218C175.523 187.564 181.653 186.742 201.331 186.4L202.806 186.385C226.472 185.981 240.766 185.733 253.507 194.951C256.999 197.481 261.577 202.106 275.528 227.883C282.248 240.314 288.627 253.008 294.462 265.61L313.473 280.927C314.031 281.377 314.233 282.091 314 282.758C313.752 283.441 313.131 283.876 312.402 283.876ZM165.87 190.621C176.982 194.75 185.921 199.452 194.565 203.999C203.458 208.686 212.66 213.528 224.238 217.749C224.315 217.764 224.377 217.826 224.408 217.904L257.324 277.265C259.28 280.927 263.098 283.193 267.288 283.193H312.402C312.93 283.193 313.24 282.852 313.349 282.541C313.457 282.231 313.442 281.781 313.038 281.455L293.981 266.106C293.939 266.065 293.903 266.024 293.872 265.982C288.037 253.35 281.658 240.64 274.923 228.209C261.034 202.556 256.533 197.993 253.103 195.51C240.548 186.431 226.348 186.664 202.821 187.068L201.347 187.083C182.414 187.409 176.051 188.185 165.87 190.621Z" fill="#171717"/>
<path d="M267.38 270.002C262.352 270.002 257.308 269.738 252.28 269.21C252.093 269.195 251.954 269.024 251.985 268.838C252 268.651 252.171 268.512 252.357 268.527C265.735 269.939 279.236 269.458 292.474 267.099C292.66 267.068 292.847 267.193 292.878 267.379C292.909 267.565 292.785 267.751 292.598 267.782C284.265 269.257 275.822 270.002 267.38 270.002Z" fill="#171717"/>
<path d="M214.709 222.731C214.538 222.731 214.383 222.576 214.367 222.389C214.367 222.203 214.522 222.048 214.709 222.048L223.849 221.769C224.036 221.769 224.191 221.924 224.191 222.11C224.206 222.296 224.051 222.451 223.865 222.451L214.724 222.731C214.724 222.731 214.719 222.731 214.709 222.731Z" fill="#171717"/>
<path d="M216.555 222.327C206.633 239.946 196.711 257.566 186.789 275.185C184.694 278.925 187.41 283.534 191.693 283.534H252.606C253.94 283.534 254.545 281.889 253.537 281.036L236.326 266.277C241.83 255.103 247.329 243.93 252.823 232.756C256.454 223.972 261.265 208.236 253.847 197.822C253.475 197.31 253.056 196.767 252.528 196.224C242.828 186.307 225.882 186.369 208.004 186.742C192.64 187.083 180.364 187.316 162.92 187.688C161.788 189.411 157.954 195.712 159.056 204.154C159.273 205.815 160.096 212.053 164.798 216.709C168.383 220.263 173.07 221.458 188.667 222.405C195.48 222.824 205.024 223.087 216.555 222.327Z" fill="#3335CF"/>
<path d="M235.998 266.5C223.5 270 197 270.5 190.998 268L186.998 274.5C184.598 280.1 188.665 282.833 190.998 283.5H251.998C254.398 283.5 253.998 281.833 253.498 281L235.998 266.5Z" fill="white"/>
<path fill-rule="evenodd" clip-rule="evenodd" d="M252.604 283.876H191.691C189.565 283.876 187.641 282.789 186.554 280.942C185.468 279.096 185.437 276.876 186.477 275.014L215.948 222.715C206.791 223.289 197.62 223.289 188.634 222.746C173.208 221.799 168.242 220.62 164.548 216.957C161.382 213.807 159.411 209.508 158.713 204.185C157.658 196.13 161.103 189.83 162.624 187.502C162.686 187.409 162.795 187.347 162.903 187.347L177.74 187.036C188.184 186.819 197.34 186.633 207.986 186.4C224.25 186.059 242.672 185.655 252.759 195.991C253.24 196.472 253.675 197 254.125 197.636C261.233 207.615 257.508 222.311 253.132 232.88L236.743 266.184L253.752 280.772C254.326 281.268 254.528 282.029 254.264 282.727C254.001 283.426 253.349 283.876 252.604 283.876ZM216.553 221.985C216.677 221.985 216.786 222.047 216.848 222.141C216.91 222.249 216.925 222.389 216.863 222.497L187.082 275.356C186.166 277.001 186.182 278.956 187.144 280.601C188.106 282.231 189.798 283.193 191.691 283.193H252.604C253.163 283.193 253.504 282.836 253.628 282.494C253.752 282.153 253.737 281.656 253.318 281.299L236.107 266.541C235.983 266.432 235.952 266.261 236.014 266.122L252.511 232.6C256.81 222.203 260.488 207.754 253.566 198.024C253.132 197.419 252.728 196.922 252.278 196.472C242.392 186.353 224.111 186.741 208.002 187.083C197.356 187.316 188.184 187.502 177.755 187.719L163.105 188.014C161.569 190.404 158.387 196.425 159.396 204.107C160.079 209.275 161.972 213.434 165.029 216.461C168.583 219.983 173.441 221.132 188.681 222.063C197.837 222.622 207.21 222.591 216.537 221.985C216.548 221.985 216.553 221.985 216.553 221.985Z" fill="#171717"/>
<path d="M207.412 270.173C201.375 270.173 195.944 269.583 190.947 268.403C190.76 268.357 190.652 268.171 190.698 267.984C190.745 267.798 190.931 267.69 191.102 267.736C197.403 269.226 204.402 269.769 212.487 269.366C219.672 269.009 226.904 267.953 233.904 266.929C234.09 266.898 234.276 267.038 234.292 267.224C234.323 267.41 234.198 267.581 234.012 267.612C226.982 268.636 219.735 269.676 212.518 270.048C210.77 270.131 209.068 270.173 207.412 270.173Z" fill="#171717"/>
<path d="M197.358 108.416L187.953 124.572C192.159 126.48 197.963 129.646 199.841 132.192L207.756 117.666C207.569 116.626 201.625 103.372 197.358 108.416Z" fill="white"/>
<path fill-rule="evenodd" clip-rule="evenodd" d="M199.839 132.534C199.73 132.534 199.637 132.472 199.56 132.394C197.76 129.942 192.095 126.823 187.812 124.883C187.719 124.852 187.657 124.774 187.626 124.681C187.594 124.588 187.61 124.495 187.657 124.402L197.061 108.246C197.072 108.225 197.082 108.21 197.092 108.2C198.008 107.113 199.079 106.725 200.258 107.051C204.2 108.107 207.94 116.797 208.095 117.604C208.095 117.682 208.095 117.759 208.049 117.821L200.134 132.347C200.087 132.456 199.979 132.518 199.87 132.534C199.86 132.534 199.849 132.534 199.839 132.534ZM188.433 124.417C192.514 126.295 197.682 129.166 199.777 131.571L207.381 117.62C207.024 116.425 203.471 108.619 200.087 107.703C199.172 107.455 198.365 107.75 197.635 108.619L188.433 124.417Z" fill="#171717"/>
<path d="M198.456 92.525C199.962 91.2679 201.343 90.7403 202.91 90.7868C204.478 90.8334 206.061 92.1836 205.859 93.7355C208.87 90.3989 213.805 88.9556 218.135 90.135C220.928 90.8955 223.613 92.9906 224.001 95.8616C224.327 98.2981 222.899 100.704 220.959 102.224C219.019 103.745 216.629 104.537 214.301 105.313C216.086 105.654 216.878 107.765 216.707 109.565C216.536 111.132 215.683 112.731 214.162 113.724C211.073 115.711 206.418 116.44 202.802 115.726C199.76 115.105 194.996 111.319 194.468 107.842C193.878 103.869 192.714 101.681 194.251 97.8325C195.182 95.5202 196.78 93.9372 198.456 92.525Z" fill="#171717"/>
<path d="M197.312 110.264C197.141 110.264 197.002 110.14 196.97 109.969C196.924 109.566 196.707 109.193 196.35 108.929C196.008 108.65 195.574 108.526 195.186 108.588C195 108.603 194.829 108.479 194.813 108.293C194.782 108.107 194.906 107.936 195.108 107.905C195.667 107.827 196.272 107.998 196.769 108.386C197.265 108.759 197.576 109.302 197.653 109.876C197.684 110.062 197.545 110.233 197.358 110.264C197.348 110.264 197.333 110.264 197.312 110.264Z" fill="#171717"/>
<path d="M199.296 107.222C199.032 106.493 198.815 105.748 198.287 105.142C197.511 104.242 196.301 103.761 195.121 103.979C193.724 104.227 192.561 105.406 192.219 106.788C191.878 108.169 192.328 109.69 193.274 110.745C194.237 111.8 195.649 112.39 197.077 112.436C197.097 112.519 197.123 112.602 197.154 112.685C197.682 112.064 198.101 111.335 198.396 110.574C198.83 109.503 199.079 108.37 199.296 107.222Z" fill="white"/>
<path fill-rule="evenodd" clip-rule="evenodd" d="M197.153 113.026C197.133 113.026 197.107 113.021 197.076 113.01C196.952 112.995 196.858 112.902 196.827 112.777L196.812 112.762C195.338 112.669 193.956 112.017 193.025 110.977C191.97 109.798 191.535 108.168 191.892 106.709C192.28 105.142 193.553 103.916 195.058 103.637C196.315 103.404 197.65 103.901 198.534 104.909C199.047 105.499 199.279 106.182 199.512 106.834L199.621 107.113C199.642 107.165 199.647 107.222 199.636 107.284C199.419 108.401 199.171 109.581 198.721 110.698C198.379 111.551 197.929 112.296 197.402 112.902C197.34 112.979 197.246 113.026 197.153 113.026ZM195.679 104.273C195.513 104.273 195.348 104.289 195.182 104.32C193.956 104.537 192.87 105.592 192.56 106.865C192.249 108.106 192.622 109.518 193.537 110.512C194.391 111.458 195.71 112.048 197.076 112.095C197.107 112.095 197.138 112.1 197.169 112.11C197.526 111.629 197.836 111.07 198.084 110.45C198.503 109.41 198.736 108.308 198.938 107.253L198.876 107.066C198.659 106.446 198.441 105.84 198.022 105.359C197.417 104.661 196.548 104.273 195.679 104.273Z" fill="#171717"/>
<path d="M211.588 102.302C211.185 101.169 203.332 103.466 204.248 105.871C205.318 108.696 202.447 109.115 202.525 109.285C203.86 112.094 203.379 116.517 206.343 117.479C208.034 118.023 212.721 116.005 214.382 115.4C214.351 114.655 214.288 113.91 214.195 113.181C213.807 109.859 212.737 105.437 211.588 102.302Z" fill="white"/>
<path d="M207.088 115.121C204.124 114.174 203.861 112.095 202.526 109.286C202.448 109.115 202.386 108.944 202.309 108.774C202.231 108.898 202.138 109.006 202.014 109.099C201.3 109.627 200.26 109.084 199.795 108.324C199.577 107.982 199.438 107.61 199.298 107.222C199.081 108.37 198.832 109.503 198.398 110.574C198.103 111.334 197.684 112.064 197.156 112.684C197.901 115.059 198.988 117.325 200.384 119.373C201.502 121.034 202.852 122.57 204.605 123.548C206.344 124.526 209.478 125.395 211.325 124.603C213.219 123.796 214.336 122.71 214.864 120.708C215.189 119.42 214.305 114.981 214.243 113.647C212.086 113.6 208.78 115.664 207.088 115.121Z" fill="#171717"/>
<path d="M196.969 109.938C196.829 109.938 196.705 109.86 196.659 109.721C196.348 108.976 195.728 108.355 194.967 108.091C194.796 108.013 194.703 107.827 194.765 107.641C194.827 107.47 195.029 107.377 195.2 107.439C196.147 107.781 196.923 108.541 197.295 109.472C197.357 109.643 197.279 109.845 197.093 109.907C197.052 109.927 197.011 109.938 196.969 109.938Z" fill="#171717"/>
<path d="M238.45 145.384C240.235 142.202 243.726 136.445 245.03 133.822C245.03 133.822 249.624 135.234 253.069 135.219C256.53 135.203 259.696 135.622 259.99 134.381C260.27 133.123 257.849 132.099 256.064 131.96C256.064 131.96 265.267 132.161 265.065 129.275C264.848 126.388 261.061 127.63 261.061 127.63C261.061 127.63 265.422 126.062 264.367 123.952C263.296 121.826 260.084 123.859 260.084 123.859C260.084 123.859 262.551 122.182 261.449 120.739C260.332 119.296 255.257 122.555 251.222 120.848C251.222 120.848 256.452 119.529 255.986 117.558C255.521 115.602 251.827 116.72 248.336 117.17C244.828 117.635 239.955 117.728 235.331 123.346C230.721 128.964 227.664 133.511 227.664 133.511C227.664 133.511 232.987 140.371 238.45 145.384Z" fill="white"/>
<path fill-rule="evenodd" clip-rule="evenodd" d="M238.45 145.725C238.372 145.725 238.294 145.693 238.217 145.647C232.801 140.65 227.447 133.79 227.4 133.713C227.307 133.604 227.307 133.433 227.385 133.325C227.416 133.278 230.488 128.7 235.066 123.129C239.381 117.883 243.99 117.34 247.358 116.952C247.678 116.911 247.989 116.874 248.289 116.843C248.987 116.75 249.701 116.626 250.384 116.518C253.208 116.036 255.878 115.602 256.328 117.48C256.716 119.156 254 120.32 252.386 120.863C254.264 121.266 256.281 120.801 257.957 120.428C259.711 120.025 261.077 119.714 261.713 120.537C262.008 120.925 262.132 121.359 262.054 121.825C261.992 122.166 261.837 122.508 261.635 122.803C262.194 122.648 262.83 122.57 263.404 122.725C263.963 122.88 264.398 123.237 264.661 123.796C264.91 124.293 264.941 124.789 264.739 125.286C264.46 126 263.761 126.589 263.047 127.024C263.544 127.055 264.041 127.179 264.46 127.459C265.018 127.831 265.344 128.436 265.391 129.243C265.437 129.724 265.267 130.159 264.91 130.531C263.792 131.711 260.735 132.114 258.531 132.238C259.168 132.518 259.726 132.89 260.052 133.325C260.316 133.682 260.409 134.07 260.316 134.458C260.037 135.699 258.019 135.653 255.21 135.591C254.527 135.57 253.819 135.56 253.084 135.56C253.063 135.56 253.048 135.56 253.038 135.56C250.027 135.56 246.256 134.535 245.2 134.24C244.331 135.947 242.733 138.694 241.165 141.364C240.265 142.931 239.396 144.405 238.76 145.554C238.698 145.647 238.605 145.709 238.512 145.725C238.491 145.725 238.47 145.725 238.45 145.725ZM228.083 133.495C228.983 134.628 233.608 140.401 238.372 144.84C238.993 143.754 239.769 142.419 240.576 141.022C242.221 138.229 243.897 135.327 244.719 133.682C244.797 133.526 244.968 133.449 245.123 133.495C245.169 133.511 249.67 134.877 253.038 134.877C253.1 134.877 253.157 134.877 253.208 134.877C253.907 134.877 254.574 134.892 255.241 134.908C257.321 134.954 259.494 135.001 259.649 134.302C259.695 134.116 259.649 133.93 259.494 133.728C258.997 133.045 257.445 132.409 256.033 132.285C255.862 132.285 255.722 132.114 255.722 131.928C255.738 131.742 255.893 131.602 256.079 131.602C257.942 131.649 263.079 131.462 264.413 130.05C264.646 129.817 264.739 129.569 264.724 129.305C264.677 128.7 264.46 128.281 264.072 128.017C263.234 127.459 261.697 127.784 261.17 127.955C260.999 128.002 260.797 127.909 260.751 127.738C260.689 127.552 260.782 127.365 260.952 127.303C261.682 127.04 263.668 126.124 264.103 125.038C264.227 124.727 264.211 124.417 264.056 124.106C263.87 123.718 263.591 123.486 263.218 123.392C262.225 123.113 260.751 123.843 260.27 124.153C260.114 124.246 259.913 124.2 259.804 124.044C259.695 123.889 259.742 123.687 259.897 123.579C260.27 123.33 261.247 122.492 261.371 121.716C261.418 121.437 261.356 121.189 261.17 120.956C260.813 120.475 259.556 120.77 258.112 121.096C256.017 121.561 253.426 122.151 251.082 121.173C250.943 121.111 250.865 120.972 250.88 120.832C250.88 120.677 250.989 120.552 251.129 120.521C252.401 120.196 255.971 118.97 255.66 117.635C255.365 116.378 252.991 116.766 250.492 117.185C249.794 117.309 249.08 117.418 248.382 117.511C248.072 117.552 247.756 117.594 247.435 117.635C244.005 118.023 239.722 118.535 235.594 123.563C231.59 128.436 228.735 132.549 228.083 133.495Z" fill="#171717"/>
<path d="M256.113 132.316C256.103 132.316 256.092 132.316 256.082 132.316L253.351 132.13C253.164 132.115 253.025 131.959 253.04 131.773C253.056 131.587 253.226 131.447 253.397 131.447L256.129 131.633C256.315 131.649 256.47 131.804 256.454 131.99C256.439 132.177 256.284 132.316 256.113 132.316Z" fill="#171717"/>
<path d="M257.603 128.11C256.222 128.11 254.825 128.002 253.459 127.784C253.273 127.753 253.133 127.583 253.164 127.396C253.196 127.21 253.382 127.086 253.568 127.117C255.88 127.474 258.239 127.536 260.567 127.257C260.753 127.241 260.924 127.381 260.955 127.567C260.971 127.753 260.831 127.924 260.645 127.94C259.631 128.053 258.617 128.11 257.603 128.11Z" fill="#171717"/>
<path d="M256.795 124.665C255.553 124.665 254.296 124.525 253.086 124.23C252.899 124.184 252.791 124.013 252.822 123.827C252.868 123.64 253.054 123.532 253.241 123.563C255.305 124.059 257.493 124.122 259.588 123.734C259.774 123.687 259.945 123.811 259.992 123.997C260.023 124.184 259.898 124.37 259.712 124.401C258.75 124.572 257.772 124.665 256.795 124.665Z" fill="#171717"/>
<path d="M246.895 126.466C246.818 126.466 246.74 126.45 246.678 126.404C246.539 126.28 246.507 126.062 246.616 125.923C247.159 125.224 247.47 124.371 247.78 123.533L247.92 123.145C248.478 121.655 249.922 120.708 251.086 120.537C251.272 120.522 251.443 120.646 251.458 120.832C251.489 121.019 251.365 121.189 251.179 121.22C250.248 121.344 249.022 122.151 248.556 123.393L248.416 123.765C248.09 124.65 247.765 125.566 247.159 126.342C247.097 126.419 246.989 126.466 246.895 126.466Z" fill="#171717"/>
<path d="M244.487 133.993C244.466 133.993 244.445 133.988 244.425 133.977C243.726 133.869 242.997 133.853 242.298 133.977C242.097 134.008 241.926 133.884 241.895 133.698C241.864 133.512 242.004 133.341 242.19 133.31C242.966 133.17 243.757 133.17 244.549 133.31C244.735 133.341 244.859 133.512 244.828 133.698C244.797 133.869 244.657 133.993 244.487 133.993Z" fill="#171717"/>
<path d="M172.341 155.75L209.261 157.116L229.063 130.454L245.281 143.071L226.379 174.311C222.111 180.038 215.313 183.328 208.175 183.111L166.195 181.822L172.341 155.75Z" fill="#FFB755"/>
<path d="M209.274 196.13L211.384 187.285L217.53 187.3L221.782 157.953C221.782 157.953 199.916 119.078 190.946 121.809C169.995 128.203 158.371 199.964 158.371 199.964C158.371 199.964 192.606 199.964 204.447 199.948C206.744 199.948 208.746 198.365 209.274 196.13Z" fill="#FFB755"/>
<path d="M209.399 162.314L202.152 141.271L180.906 147.975L187.036 168.926C189.147 176.158 195.774 180.643 203.269 181.108C212.41 181.682 226.486 181.481 232.383 181.465C234.106 174.466 236.744 166.815 238.668 163.09C223.894 162.873 209.399 162.314 209.399 162.314Z" fill="#FFB755"/>
<path d="M232.913 163.308C232.913 163.308 232.908 163.308 232.897 163.308L209.556 162.517C209.417 162.517 209.293 162.424 209.246 162.299L201.828 141.38C201.766 141.209 201.859 141.007 202.03 140.945C202.216 140.883 202.402 140.976 202.48 141.147L209.805 161.849L232.928 162.625C233.114 162.625 233.254 162.78 233.254 162.967C233.254 163.153 233.099 163.308 232.913 163.308Z" fill="#171717"/>
<path d="M217.469 181.838C212.829 181.838 208.064 181.822 203.44 181.45C195.168 180.798 188.728 175.956 186.648 168.848L180.58 148.068C180.518 147.882 180.627 147.696 180.813 147.649C180.984 147.587 181.185 147.696 181.232 147.882L187.3 168.647C189.302 175.491 195.509 180.131 203.486 180.767C208.344 181.155 213.341 181.155 218.198 181.155C218.385 181.155 218.54 181.31 218.54 181.497C218.54 181.698 218.385 181.838 218.198 181.838C217.96 181.838 217.717 181.838 217.469 181.838Z" fill="#171717"/>
<path d="M209.57 162.532C209.088 162.532 204.821 162.361 204.634 162.346C204.448 162.346 204.309 162.175 204.309 161.989C204.324 161.803 204.464 161.663 204.65 161.663C204.65 161.663 204.655 161.663 204.666 161.663C204.712 161.663 209.104 161.834 209.57 161.834C209.756 161.834 209.911 161.989 209.911 162.175C209.911 162.377 209.756 162.532 209.57 162.532Z" fill="#171717"/>
<path d="M260.022 163.867C259.184 163.541 249.081 163.401 238.404 163.091C235.859 168.662 233.423 175.475 232.383 181.109C240.468 180.736 250.789 181 251.828 180.829C253.815 180.534 255.165 176.546 255.165 176.546C259.107 175.739 257.601 172.666 257.601 172.666C260.178 171.269 257.865 168.46 257.865 168.46C261.373 167.436 261.761 164.581 260.022 163.867Z" fill="white"/>
<path d="M232.384 181.45C232.198 181.45 232.043 181.294 232.043 181.108C232.043 180.922 232.183 180.767 232.384 180.767C234.557 180.767 236.9 180.767 239.197 180.767C245.203 180.767 251.395 180.767 252.125 180.658C253.568 180.441 254.577 177.554 254.841 176.468C254.872 176.344 254.965 176.235 255.104 176.22C256.268 175.971 257.013 175.506 257.355 174.838C257.805 173.892 257.293 172.836 257.293 172.821C257.215 172.666 257.277 172.464 257.432 172.371C258.022 172.061 258.348 171.657 258.441 171.145C258.674 169.996 257.618 168.693 257.603 168.677C257.541 168.584 257.51 168.476 257.541 168.367C257.587 168.258 257.665 168.165 257.774 168.134C259.853 167.529 260.645 166.318 260.691 165.449C260.722 164.86 260.427 164.41 259.884 164.192C259.326 163.96 253.102 163.804 246.522 163.649C243.962 163.572 241.199 163.509 238.39 163.432C238.204 163.416 238.064 163.261 238.064 163.075C238.064 162.889 238.235 162.749 238.421 162.749C241.215 162.827 243.977 162.889 246.538 162.966C255.042 163.168 259.496 163.292 260.148 163.556C260.94 163.882 261.421 164.611 261.374 165.48C261.328 166.505 260.505 167.886 258.425 168.646C258.782 169.205 259.326 170.245 259.124 171.285C259 171.905 258.627 172.417 258.022 172.821C258.193 173.287 258.41 174.233 257.96 175.133C257.556 175.971 256.703 176.53 255.446 176.84C255.198 177.725 254.173 181.046 252.218 181.341C251.457 181.45 245.777 181.45 239.197 181.45C236.9 181.45 234.557 181.45 232.384 181.45Z" fill="#171717"/>
<path d="M226.298 277.016C226.158 277.016 226.05 276.938 225.987 276.814L200.831 222.14C200.753 221.97 200.831 221.768 201.002 221.69C201.172 221.613 201.374 221.69 201.452 221.861L226.608 276.535C226.686 276.706 226.608 276.907 226.437 276.985C226.386 277.006 226.339 277.016 226.298 277.016Z" fill="#171717"/>
<path d="M224.746 280.524C224.746 282.153 226.065 283.488 227.71 283.488C229.34 283.488 230.674 282.153 230.674 280.524C230.674 278.879 229.34 277.544 227.71 277.544C226.065 277.544 224.746 278.879 224.746 280.524Z" fill="#171717"/>
<path d="M139.532 277.016C139.491 277.016 139.444 277.006 139.392 276.985C139.222 276.907 139.144 276.706 139.222 276.535L164.378 221.861C164.456 221.69 164.657 221.613 164.828 221.69C164.999 221.768 165.076 221.97 164.999 222.14L139.842 276.814C139.796 276.938 139.672 277.016 139.532 277.016Z" fill="#171717"/>
<path d="M141.1 280.524C141.1 282.153 139.765 283.488 138.136 283.488C136.491 283.488 135.156 282.153 135.156 280.524C135.156 278.879 136.491 277.544 138.136 277.544C139.765 277.544 141.1 278.879 141.1 280.524Z" fill="#171717"/>
<path d="M158.96 227.557H206.868C209.475 227.557 211.57 225.462 211.57 222.854V222.823C211.57 220.232 209.475 218.121 206.868 218.121H158.96C156.368 218.121 154.258 220.232 154.258 222.823V222.854C154.258 225.462 156.368 227.557 158.96 227.557Z" fill="white"/>
<path fill-rule="evenodd" clip-rule="evenodd" d="M206.869 227.914H158.962C156.184 227.914 153.918 225.648 153.918 222.855C153.918 220.046 156.184 217.78 158.962 217.78H206.869C209.647 217.78 211.913 220.046 211.913 222.824C211.913 225.648 209.647 227.914 206.869 227.914ZM158.962 218.463C156.556 218.463 154.601 220.419 154.601 222.824C154.601 225.26 156.556 227.216 158.962 227.216H206.869C209.275 227.216 211.23 225.26 211.23 222.855C211.23 220.419 209.275 218.463 206.869 218.463H158.962Z" fill="#171717"/>
<path d="M300.215 181.108H244.766C244.44 181.108 244.114 181.015 243.834 180.829C243.198 180.394 242.981 179.618 243.229 178.951C243.881 177.57 245.231 177.089 247.233 177.089H303.862L303.133 179.091C302.667 180.301 301.519 181.108 300.215 181.108Z" fill="white"/>
<path fill-rule="evenodd" clip-rule="evenodd" d="M300.218 181.449H244.769C244.35 181.449 243.962 181.341 243.651 181.123C242.906 180.611 242.596 179.665 242.922 178.827C243.806 176.964 245.808 176.747 247.236 176.747H303.865C303.974 176.747 304.083 176.809 304.145 176.902C304.207 176.995 304.222 177.104 304.191 177.213L303.446 179.215C302.95 180.549 301.646 181.449 300.218 181.449ZM247.236 177.43C245.234 177.43 244.086 177.942 243.543 179.09C243.356 179.603 243.543 180.223 244.039 180.549C244.225 180.689 244.489 180.767 244.769 180.767H300.218C301.367 180.767 302.407 180.037 302.81 178.966L303.369 177.43H247.236Z" fill="#171717"/>
<path d="M302.376 181.108L312.867 154.741C313.131 154.089 313.053 153.344 312.665 152.77C312.262 152.18 311.61 151.839 310.896 151.839H276.816C274.768 151.839 272.936 153.127 272.254 155.067L263.035 181.108H302.376Z" fill="white"/>
<path fill-rule="evenodd" clip-rule="evenodd" d="M302.374 181.45H263.033C262.924 181.45 262.816 181.388 262.753 181.31C262.691 181.217 262.676 181.093 262.707 181L271.925 154.959C272.655 152.879 274.626 151.498 276.814 151.498H310.894C311.716 151.498 312.477 151.902 312.942 152.569C313.392 153.252 313.486 154.105 313.191 154.866L302.684 181.233C302.638 181.357 302.513 181.45 302.374 181.45ZM263.514 180.767H302.141L312.554 154.617C312.772 154.074 312.71 153.453 312.368 152.957C312.042 152.476 311.484 152.181 310.894 152.181H276.814C274.905 152.181 273.198 153.391 272.562 155.176L263.514 180.767Z" fill="#171717"/>
<path d="M294.211 161.492C294.211 162.454 293.435 163.23 292.473 163.23C291.51 163.23 290.734 162.454 290.734 161.492C290.734 160.53 291.51 159.754 292.473 159.754C293.435 159.754 294.211 160.53 294.211 161.492Z" fill="#00A82D"/>
</svg>
