<svg width="426" height="284" viewBox="0 0 426 284" fill="none" xmlns="http://www.w3.org/2000/svg">
<path fill-rule="evenodd" clip-rule="evenodd" d="M202.561 134.022H134.322C134.136 134.022 133.98 133.867 133.98 133.68V13.6393C133.98 13.453 134.136 13.2979 134.322 13.2979H202.561C202.747 13.2979 202.902 13.453 202.902 13.6393V133.68C202.902 133.867 202.747 134.022 202.561 134.022ZM134.663 133.339H202.219V13.9962H134.663V133.339Z" fill="#171717"/>
<path d="M202.561 27.218H134.322C134.136 27.218 133.98 27.0628 133.98 26.8766C133.98 26.6904 134.136 26.5352 134.322 26.5352H202.561C202.747 26.5352 202.902 26.6904 202.902 26.8766C202.902 27.0628 202.747 27.218 202.561 27.218Z" fill="#171717"/>
<path d="M158.318 92.0579C158.116 92.0579 157.961 91.9027 157.961 91.7165V13.6393C157.961 13.453 158.116 13.2979 158.318 13.2979C158.504 13.2979 158.659 13.453 158.659 13.6393V91.7165C158.659 91.9027 158.504 92.0579 158.318 92.0579Z" fill="#171717"/>
<path d="M153.493 38.0821H138.508V33.7988H153.493V38.0821Z" fill="#D8E8DB"/>
<path d="M188.75 38.0821H163.449V33.7988H188.75V38.0821Z" fill="#D8E8DB"/>
<path d="M153.493 47.5637H138.508V43.2959H153.493V47.5637Z" fill="#D8E8DB"/>
<path d="M195.172 47.5637H163.449V43.2959H195.172V47.5637Z" fill="#D8E8DB"/>
<path d="M153.493 57.0616H138.508V52.7783H153.493V57.0616Z" fill="#D8E8DB"/>
<path d="M177.488 57.0616H163.449V52.7783H177.488V57.0616Z" fill="#D8E8DB"/>
<path d="M153.493 66.5597H138.508V62.2764H153.493V66.5597Z" fill="#D8E8DB"/>
<path d="M196.382 66.5597H163.449V62.2764H196.382V66.5597Z" fill="#D8E8DB"/>
<path d="M153.493 76.0567H138.508V71.7734H153.493V76.0567Z" fill="#D8E8DB"/>
<path d="M188.75 76.0567H163.449V71.7734H188.75V76.0567Z" fill="#D8E8DB"/>
<path d="M312.296 143.054H124.751C124.565 143.054 124.41 142.899 124.41 142.713V4.62267C124.41 4.43644 124.565 4.28125 124.751 4.28125H413.886C414.072 4.28125 414.227 4.43644 414.227 4.62267V106.553C414.227 106.739 414.072 106.894 413.886 106.894C413.7 106.894 413.545 106.739 413.545 106.537V4.96409H125.093V142.371H312.296C312.482 142.371 312.637 142.526 312.637 142.713C312.637 142.899 312.482 143.054 312.296 143.054Z" fill="#171717"/>
<path d="M211.931 98.2802C211.745 98.2802 211.59 98.125 211.59 97.9388V78.6949C211.59 78.5087 211.745 78.3535 211.931 78.3535C212.117 78.3535 212.273 78.5087 212.273 78.6949V97.9388C212.273 98.125 212.117 98.2802 211.931 98.2802Z" fill="#171717"/>
<path d="M214.583 91.7151H209.277V84.7314H214.583V91.7151Z" fill="#00A82D"/>
<path d="M221.314 93.2204C221.128 93.2204 220.973 93.0652 220.973 92.879V67.5826C220.973 67.3964 221.128 67.2412 221.314 67.2412C221.5 67.2412 221.656 67.3964 221.656 67.5826V92.879C221.656 93.0652 221.5 93.2204 221.314 93.2204Z" fill="#171717"/>
<path d="M223.965 86.6729H218.66V73.6367H223.965V86.6729Z" fill="#00A82D"/>
<path d="M230.701 81.2103C230.515 81.2103 230.359 81.0551 230.359 80.8688V68.1276C230.359 67.9413 230.515 67.7861 230.701 67.7861C230.887 67.7861 231.042 67.9413 231.042 68.1276V80.8688C231.042 81.0551 230.887 81.2103 230.701 81.2103Z" fill="#171717"/>
<path d="M233.352 77.7336H228.047V71.1689H233.352V77.7336Z" fill="#00A82D"/>
<path d="M240.088 93.5153C239.902 93.5153 239.746 93.3601 239.746 93.1738V71.8815C239.746 71.6952 239.902 71.54 240.088 71.54C240.29 71.54 240.429 71.6952 240.429 71.8815V93.1738C240.429 93.3601 240.29 93.5153 240.088 93.5153Z" fill="#171717"/>
<path d="M242.739 87.9447H237.449V76.9727H242.739V87.9447Z" fill="#00A82D"/>
<path d="M249.486 80.0769C249.284 80.0769 249.145 79.9217 249.145 79.7355V65.194C249.145 64.9922 249.284 64.8525 249.486 64.8525C249.672 64.8525 249.827 64.9922 249.827 65.194V79.7355C249.827 79.9217 249.672 80.0769 249.486 80.0769Z" fill="#171717"/>
<path d="M252.122 76.1502H246.832V68.6699H252.122V76.1502Z" fill="#00A82D"/>
<path d="M258.873 69.4622C258.686 69.4622 258.531 69.307 258.531 69.1208V47.2076C258.531 47.0214 258.686 46.8662 258.873 46.8662C259.059 46.8662 259.214 47.0214 259.214 47.2076V69.1208C259.214 69.307 259.059 69.4622 258.873 69.4622Z" fill="#171717"/>
<path d="M261.524 63.7356H256.219V52.4531H261.524V63.7356Z" fill="#00A82D"/>
<path d="M268.259 65.2405C268.073 65.2405 267.918 65.0853 267.918 64.8991V40.1149C267.918 39.9131 268.073 39.7734 268.259 39.7734C268.446 39.7734 268.601 39.9131 268.601 40.1149V64.8991C268.601 65.0853 268.446 65.2405 268.259 65.2405Z" fill="#171717"/>
<path d="M270.911 58.7998H265.605V46.043H270.911V58.7998Z" fill="#00A82D"/>
<path d="M277.482 83.103C277.28 83.103 277.141 82.9478 277.141 82.7615V55.7115C277.141 55.5253 277.28 55.3701 277.482 55.3701C277.668 55.3701 277.823 55.5253 277.823 55.7115V82.7615C277.823 82.9478 277.668 83.103 277.482 83.103Z" fill="#171717"/>
<path d="M280.126 74.024H274.836V64.2158H280.126V74.024Z" fill="#00A82D"/>
<path d="M286.865 76.0108C286.679 76.0108 286.523 75.8556 286.523 75.6694V40.1149C286.523 39.9131 286.679 39.7734 286.865 39.7734C287.051 39.7734 287.206 39.9131 287.206 40.1149V75.6694C287.206 75.8556 287.051 76.0108 286.865 76.0108Z" fill="#171717"/>
<path d="M289.524 66.9162H284.219V48.6035H289.524V66.9162Z" fill="#00A82D"/>
<path d="M296.252 59.1107C296.065 59.1107 295.91 58.9555 295.91 58.7693V40.8756C295.91 40.6739 296.065 40.5342 296.252 40.5342C296.438 40.5342 296.593 40.6739 296.593 40.8756V58.7693C296.593 58.9555 296.438 59.1107 296.252 59.1107Z" fill="#171717"/>
<path d="M298.911 54.361H293.605V45.1426H298.911V54.361Z" fill="#00A82D"/>
<path d="M305.638 76.4144C305.452 76.4144 305.297 76.2592 305.297 76.0729V46.1363C305.297 45.9501 305.452 45.7949 305.638 45.7949C305.825 45.7949 305.98 45.9501 305.98 46.1363V76.0729C305.98 76.2592 305.825 76.4144 305.638 76.4144Z" fill="#171717"/>
<path d="M308.293 68.7171H302.988V53.291H308.293V68.7171Z" fill="#00A82D"/>
<path d="M315.025 80.0769C314.839 80.0769 314.684 79.9217 314.684 79.7355V65.194C314.684 64.9922 314.839 64.8525 315.025 64.8525C315.227 64.8525 315.366 64.9922 315.366 65.194V79.7355C315.366 79.9217 315.227 80.0769 315.025 80.0769Z" fill="#171717"/>
<path d="M317.676 76.1502H312.387V68.6699H317.676V76.1502Z" fill="#00A82D"/>
<path d="M324.423 69.4622C324.222 69.4622 324.082 69.307 324.082 69.1208V47.2076C324.082 47.0214 324.222 46.8662 324.423 46.8662C324.61 46.8662 324.765 47.0214 324.765 47.2076V69.1208C324.765 69.307 324.61 69.4622 324.423 69.4622Z" fill="#171717"/>
<path d="M327.059 63.7356H321.77V52.4531H327.059V63.7356Z" fill="#00A82D"/>
<path d="M333.81 58.1633C333.624 58.1633 333.469 58.0081 333.469 57.8219V33.0377C333.469 32.8515 333.624 32.6963 333.81 32.6963C333.996 32.6963 334.152 32.8515 334.152 33.0377V57.8219C334.152 58.0081 333.996 58.1633 333.81 58.1633Z" fill="#171717"/>
<path d="M336.458 51.7236H331.152V38.9668H336.458V51.7236Z" fill="#00A82D"/>
<path d="M343.197 51.0405C343.011 51.0405 342.855 50.8853 342.855 50.699V23.649C342.855 23.4473 343.011 23.3076 343.197 23.3076C343.383 23.3076 343.538 23.4473 343.538 23.649V50.699C343.538 50.8853 343.383 51.0405 343.197 51.0405Z" fill="#171717"/>
<path d="M345.848 41.9458H340.543V32.1377H345.848V41.9458Z" fill="#00A82D"/>
<path d="M352.58 54.2686C352.393 54.2686 352.238 54.1134 352.238 53.9272V18.3727C352.238 18.1864 352.393 18.0312 352.58 18.0312C352.766 18.0312 352.921 18.1864 352.921 18.3727V53.9272C352.921 54.1134 352.766 54.2686 352.58 54.2686Z" fill="#171717"/>
<path d="M355.231 45.1896H349.926V26.877H355.231V45.1896Z" fill="#00A82D"/>
<path d="M361.966 52.0335C361.78 52.0335 361.625 51.8783 361.625 51.6921V33.7985C361.625 33.6122 361.78 33.457 361.966 33.457C362.168 33.457 362.308 33.6122 362.308 33.7985V51.6921C362.308 51.8783 362.168 52.0335 361.966 52.0335Z" fill="#171717"/>
<path d="M364.618 47.2849H359.328V38.082H364.618V47.2849Z" fill="#00A82D"/>
<path d="M371.369 62.0126C371.167 62.0126 371.027 61.8574 371.027 61.6712V35.5524C371.027 35.3661 371.167 35.2109 371.369 35.2109C371.555 35.2109 371.71 35.3661 371.71 35.5524V61.6712C371.71 61.8574 371.555 62.0126 371.369 62.0126Z" fill="#171717"/>
<path d="M374.005 55.2462H368.715V41.791H374.005V55.2462Z" fill="#00A82D"/>
<path d="M380.752 51.7224C380.565 51.7224 380.41 51.5672 380.41 51.381V36.8395C380.41 36.6532 380.565 36.498 380.752 36.498C380.938 36.498 381.093 36.6532 381.093 36.8395V51.381C381.093 51.5672 380.938 51.7224 380.752 51.7224Z" fill="#171717"/>
<path d="M383.403 47.8122H378.098V40.3164H383.403V47.8122Z" fill="#00A82D"/>
<path d="M390.138 47.3313C389.952 47.3313 389.797 47.1761 389.797 46.9899V25.0768C389.797 24.8905 389.952 24.7354 390.138 24.7354C390.325 24.7354 390.48 24.8905 390.48 25.0768V46.9899C390.48 47.1761 390.325 47.3313 390.138 47.3313Z" fill="#171717"/>
<path d="M392.79 41.6047H387.484V30.3223H392.79V41.6047Z" fill="#00A82D"/>
<path d="M399.521 41.3411C399.335 41.3411 399.179 41.1859 399.179 40.9996V16.2154C399.179 16.0292 399.335 15.874 399.521 15.874C399.707 15.874 399.862 16.0292 399.862 16.2154V40.9996C399.862 41.1859 399.707 41.3411 399.521 41.3411Z" fill="#171717"/>
<path d="M402.172 34.9004H396.883V22.1436H402.172V34.9004Z" fill="#00A82D"/>
<path d="M324.426 16.5569H214.583C214.382 16.5569 214.242 16.4017 214.242 16.2154C214.242 16.0292 214.382 15.874 214.583 15.874H324.426C324.613 15.874 324.768 16.0292 324.768 16.2154C324.768 16.4017 324.613 16.5569 324.426 16.5569Z" fill="#171717"/>
<path d="M286.871 27.218H214.583C214.382 27.218 214.242 27.0628 214.242 26.8766C214.242 26.6904 214.382 26.5352 214.583 26.5352H286.871C287.057 26.5352 287.212 26.6904 287.212 26.8766C287.212 27.0628 287.057 27.218 286.871 27.218Z" fill="#171717"/>
<path d="M407.494 117.013C407.494 136.862 391.408 152.94 371.583 152.94C351.743 152.94 335.656 136.862 335.656 117.013C335.656 97.1638 351.743 81.0859 371.583 81.0859C391.408 81.0859 407.494 97.1638 407.494 117.013Z" fill="#00A82D"/>
<path fill-rule="evenodd" clip-rule="evenodd" d="M371.585 145.599C355.825 145.599 342.996 132.78 342.996 117.012C342.996 101.245 355.825 88.4258 371.585 88.4258C387.346 88.4258 400.159 101.245 400.159 117.012C400.159 132.78 387.346 145.599 371.585 145.599ZM371.585 89.1086C356.197 89.1086 343.679 101.633 343.679 117.012C343.679 132.407 356.197 144.916 371.585 144.916C386.958 144.916 399.477 132.407 399.477 117.012C399.477 101.633 386.958 89.1086 371.585 89.1086Z" fill="white"/>
<path d="M369.736 139.33V133.836C366.572 133.789 363.314 132.811 361.422 131.446L362.725 127.814C364.679 129.118 367.503 130.142 370.543 130.142C374.406 130.142 377.012 127.923 377.012 124.819C377.012 121.824 374.887 119.977 370.869 118.348C365.331 116.175 361.903 113.676 361.903 108.943C361.903 104.427 365.114 101.013 370.109 100.19V94.6963H373.475V99.9728C376.733 100.081 378.966 100.951 380.549 101.882L379.184 105.467C378.051 104.815 375.817 103.62 372.343 103.62C368.154 103.62 366.572 106.118 366.572 108.291C366.572 111.116 368.589 112.528 373.32 114.483C378.92 116.765 381.743 119.605 381.743 124.431C381.743 128.73 378.749 132.749 373.149 133.681V139.33H369.736Z" fill="white"/>
<path d="M341.77 148.408H401.383V155.78H341.77V148.408Z" fill="white"/>
<path d="M401.381 148.749H392.322C392.136 148.749 391.98 148.594 391.98 148.408C391.98 148.206 392.136 148.066 392.322 148.066H401.381C401.567 148.066 401.722 148.206 401.722 148.408C401.722 148.594 401.567 148.749 401.381 148.749Z" fill="#171717"/>
<path d="M350.19 148.749H341.767C341.581 148.749 341.426 148.594 341.426 148.408V142.091C341.426 141.905 341.581 141.75 341.767 141.75C341.953 141.75 342.108 141.905 342.108 142.091V148.066H350.19C350.376 148.066 350.532 148.206 350.532 148.408C350.532 148.594 350.376 148.749 350.19 148.749Z" fill="#171717"/>
<path d="M422.449 278.521H328.352V156.524H422.449V278.521Z" fill="white"/>
<path fill-rule="evenodd" clip-rule="evenodd" d="M422.451 278.863H328.353C328.167 278.863 328.012 278.708 328.012 278.522V156.525C328.012 156.323 328.167 156.184 328.353 156.184H422.451C422.637 156.184 422.792 156.323 422.792 156.525V278.522C422.792 278.708 422.637 278.863 422.451 278.863ZM328.694 278.18H422.11V156.866H328.694V278.18Z" fill="#171717"/>
<path d="M425.645 160.295H325.156V153.109H425.645V160.295Z" fill="white"/>
<path fill-rule="evenodd" clip-rule="evenodd" d="M425.643 160.638H325.154C324.968 160.638 324.812 160.483 324.812 160.296V153.111C324.812 152.925 324.968 152.77 325.154 152.77H425.643C425.844 152.77 426 152.925 426 153.111V160.296C426 160.483 425.844 160.638 425.643 160.638ZM325.495 159.955H425.301V153.452H325.495V159.955Z" fill="#171717"/>
<path d="M424.078 190.154H326.738V185.933H424.078V190.154Z" fill="white"/>
<path fill-rule="evenodd" clip-rule="evenodd" d="M424.076 190.497H326.736C326.55 190.497 326.395 190.357 326.395 190.155V185.934C326.395 185.732 326.55 185.593 326.736 185.593H424.076C424.262 185.593 424.417 185.732 424.417 185.934V190.155C424.417 190.357 424.262 190.497 424.076 190.497ZM327.077 189.814H423.734V186.276H327.077V189.814Z" fill="#171717"/>
<path d="M424.078 249.113H326.738V244.876H424.078V249.113Z" fill="white"/>
<path fill-rule="evenodd" clip-rule="evenodd" d="M424.076 249.454H326.736C326.55 249.454 326.395 249.299 326.395 249.112V244.876C326.395 244.689 326.55 244.534 326.736 244.534H424.076C424.262 244.534 424.417 244.689 424.417 244.876V249.112C424.417 249.299 424.262 249.454 424.076 249.454ZM327.077 248.771H423.734V245.217H327.077V248.771Z" fill="#171717"/>
<path d="M425.645 283.658H325.156V276.473H425.645V283.658Z" fill="white"/>
<path fill-rule="evenodd" clip-rule="evenodd" d="M425.643 283.999H325.154C324.968 283.999 324.812 283.844 324.812 283.658V276.472C324.812 276.286 324.968 276.131 325.154 276.131H425.643C425.844 276.131 426 276.286 426 276.472V283.658C426 283.844 425.844 283.999 425.643 283.999ZM325.495 283.316H425.301V276.814H325.495V283.316Z" fill="#171717"/>
<path d="M362.461 223.428C362.461 230.566 368.247 236.371 375.398 236.371C382.549 236.371 388.336 230.566 388.336 223.428C388.336 216.273 375.398 197.619 375.398 197.619C375.398 197.619 362.461 216.273 362.461 223.428Z" fill="#171717"/>
<path d="M310.107 106.134H163.794C159.141 106.134 155.371 109.889 155.371 114.545V228.984C155.371 233.624 159.141 237.395 163.794 237.395H310.107C314.76 237.395 318.53 233.624 318.53 228.984V114.545C318.53 109.889 314.76 106.134 310.107 106.134Z" fill="white"/>
<path fill-rule="evenodd" clip-rule="evenodd" d="M310.104 237.736H163.792C158.952 237.736 155.027 233.81 155.027 228.984V114.545C155.027 109.718 158.952 105.792 163.792 105.792H310.104C314.944 105.792 318.869 109.718 318.869 114.545V228.984C318.869 233.81 314.944 237.736 310.104 237.736ZM163.792 106.475C159.34 106.475 155.71 110.091 155.71 114.545V228.984C155.71 233.422 159.34 237.054 163.792 237.054H310.104C314.556 237.054 318.186 233.422 318.186 228.984V114.545C318.186 110.091 314.556 106.475 310.104 106.475H163.792Z" fill="#171717"/>
<path d="M302.291 228.332H171.615C171.429 228.332 171.273 228.177 171.273 227.991V152.008C171.273 151.807 171.429 151.667 171.615 151.667C171.816 151.667 171.956 151.807 171.956 152.008V227.649H302.291C302.477 227.649 302.632 227.789 302.632 227.991C302.632 228.177 302.477 228.332 302.291 228.332Z" fill="#171717"/>
<path d="M187.281 223.288H177.059V173.999H187.281V223.288Z" fill="#D8E8DB"/>
<path d="M203.398 223.287H193.16V203.826H203.398V223.287Z" fill="#D8E8DB"/>
<path d="M219.515 223.287H209.277V192.947H219.515V223.287Z" fill="#D8E8DB"/>
<path d="M235.629 223.289H225.391V171.967H235.629V223.289Z" fill="#D8E8DB"/>
<path d="M251.488 223.289H241.762V167.652H251.488V223.289Z" fill="#D8E8DB"/>
<path d="M267.851 223.288H257.613V182.752H267.851V223.288Z" fill="#D8E8DB"/>
<path d="M283.969 223.288H273.73V156.509H283.969V223.288Z" fill="#D8E8DB"/>
<path d="M300.086 223.288H289.848V133.68H300.086V223.288Z" fill="#D8E8DB"/>
<path d="M198.278 214.333C198.201 214.333 198.123 214.301 198.061 214.239L181.478 199.558C181.339 199.434 181.323 199.217 181.447 199.077C181.572 198.937 181.789 198.922 181.928 199.046L198.278 213.526L230.28 182.86C230.358 182.766 230.497 182.735 230.622 182.782L262.592 193.49L294.672 144.636C294.781 144.481 294.998 144.434 295.153 144.543C295.308 144.651 295.355 144.853 295.246 145.008L263.027 194.08C262.934 194.204 262.779 194.266 262.624 194.22L230.591 183.496L198.511 214.239C198.449 214.301 198.371 214.333 198.278 214.333Z" fill="#171717"/>
<path d="M234.701 183.11C234.701 185.469 232.824 187.377 230.512 187.377C228.186 187.377 226.309 185.469 226.309 183.11C226.309 180.751 228.186 178.842 230.512 178.842C232.824 178.842 234.701 180.751 234.701 183.11Z" fill="white"/>
<path fill-rule="evenodd" clip-rule="evenodd" d="M230.514 187.718C228.016 187.718 225.969 185.654 225.969 183.109C225.969 180.564 228.016 178.5 230.514 178.5C233.011 178.5 235.043 180.564 235.043 183.109C235.043 185.654 233.011 187.718 230.514 187.718ZM230.514 179.183C228.389 179.183 226.651 180.937 226.651 183.109C226.651 185.282 228.389 187.036 230.514 187.036C232.639 187.036 234.361 185.282 234.361 183.109C234.361 180.937 232.639 179.183 230.514 179.183Z" fill="#171717"/>
<path d="M266.939 193.895C266.939 196.254 265.062 198.163 262.735 198.163C260.424 198.163 258.547 196.254 258.547 193.895C258.547 191.536 260.424 189.627 262.735 189.627C265.062 189.627 266.939 191.536 266.939 193.895Z" fill="white"/>
<path fill-rule="evenodd" clip-rule="evenodd" d="M262.733 198.505C260.235 198.505 258.203 196.441 258.203 193.895C258.203 191.35 260.235 189.286 262.733 189.286C265.23 189.286 267.278 191.35 267.278 193.895C267.278 196.441 265.23 198.505 262.733 198.505ZM262.733 189.969C260.608 189.969 258.886 191.723 258.886 193.895C258.886 196.068 260.608 197.822 262.733 197.822C264.858 197.822 266.595 196.068 266.595 193.895C266.595 191.723 264.858 189.969 262.733 189.969Z" fill="#171717"/>
<path d="M299.158 144.823C299.158 147.182 297.281 149.107 294.969 149.107C292.643 149.107 290.766 147.182 290.766 144.823C290.766 142.465 292.643 140.556 294.969 140.556C297.281 140.556 299.158 142.465 299.158 144.823Z" fill="#00A82D"/>
<path d="M202.482 213.992C202.482 216.351 200.605 218.26 198.278 218.26C195.967 218.26 194.09 216.351 194.09 213.992C194.09 211.633 195.967 209.725 198.278 209.725C200.605 209.725 202.482 211.633 202.482 213.992Z" fill="white"/>
<path fill-rule="evenodd" clip-rule="evenodd" d="M198.28 218.602C195.782 218.602 193.75 216.538 193.75 213.993C193.75 211.448 195.782 209.384 198.28 209.384C200.777 209.384 202.825 211.448 202.825 213.993C202.825 216.538 200.777 218.602 198.28 218.602ZM198.28 210.067C196.154 210.067 194.433 211.82 194.433 213.993C194.433 216.166 196.154 217.919 198.28 217.919C200.405 217.919 202.142 216.166 202.142 213.993C202.142 211.82 200.405 210.067 198.28 210.067Z" fill="#171717"/>
<path d="M312.604 125.315H158.318C158.116 125.315 157.961 125.175 157.961 124.973C157.961 124.787 158.116 124.632 158.318 124.632H312.604C312.79 124.632 312.945 124.787 312.945 124.973C312.945 125.175 312.79 125.315 312.604 125.315Z" fill="#171717"/>
<path fill-rule="evenodd" clip-rule="evenodd" d="M284.187 120.659C281.736 120.659 279.75 118.673 279.75 116.236C279.75 113.784 281.736 111.798 284.187 111.798C286.622 111.798 288.608 113.784 288.608 116.236C288.608 118.673 286.622 120.659 284.187 120.659ZM284.187 112.481C282.123 112.481 280.433 114.172 280.433 116.236C280.433 118.3 282.123 119.976 284.187 119.976C286.25 119.976 287.925 118.3 287.925 116.236C287.925 114.172 286.25 112.481 284.187 112.481Z" fill="#171717"/>
<path fill-rule="evenodd" clip-rule="evenodd" d="M296.351 120.659C293.915 120.659 291.93 118.673 291.93 116.236C291.93 113.784 293.915 111.798 296.351 111.798C298.802 111.798 300.787 113.784 300.787 116.236C300.787 118.673 298.802 120.659 296.351 120.659ZM296.351 112.481C294.288 112.481 292.612 114.172 292.612 116.236C292.612 118.3 294.288 119.976 296.351 119.976C298.414 119.976 300.089 118.3 300.089 116.236C300.089 114.172 298.414 112.481 296.351 112.481Z" fill="#171717"/>
<path fill-rule="evenodd" clip-rule="evenodd" d="M308.519 120.659C306.083 120.659 304.098 118.673 304.098 116.236C304.098 113.784 306.083 111.798 308.519 111.798C310.954 111.798 312.94 113.784 312.94 116.236C312.94 118.673 310.954 120.659 308.519 120.659ZM308.519 112.481C306.456 112.481 304.78 114.172 304.78 116.236C304.78 118.3 306.456 119.976 308.519 119.976C310.582 119.976 312.257 118.3 312.257 116.236C312.257 114.172 310.582 112.481 308.519 112.481Z" fill="#171717"/>
<path d="M138.416 279.266L127.93 270.327L127.231 264.988L114.31 260.922L92.9492 273.368L93.5697 278.893C93.88 281.609 96.1758 283.658 98.906 283.658H136.803C139.114 283.658 140.184 280.771 138.416 279.266Z" fill="white"/>
<path fill-rule="evenodd" clip-rule="evenodd" d="M136.799 284H98.9019C95.9856 284 93.5502 281.812 93.2244 278.925L92.6039 273.416C92.5884 273.276 92.6504 273.152 92.7745 273.075L114.135 260.628C114.228 260.582 114.321 260.566 114.414 260.597L127.336 264.663C127.46 264.71 127.553 264.818 127.569 264.958L128.251 270.142L138.629 279.019C139.544 279.794 139.87 281.021 139.451 282.153C139.032 283.271 137.993 284 136.799 284ZM93.302 273.556L93.9069 278.848C94.1862 281.393 96.3424 283.317 98.9019 283.317H136.799C137.9 283.317 138.567 282.588 138.815 281.905C139.063 281.238 139.032 280.245 138.195 279.531L127.708 270.576C127.646 270.53 127.6 270.452 127.6 270.359L126.917 265.253L114.352 261.296L93.302 273.556Z" fill="#171717"/>
<path d="M5.87736 276.783C4.82252 280.197 7.36655 283.658 10.9499 283.658H46.861C49.374 283.658 51.5457 281.889 52.0576 279.421L54.5241 267.394L41.3231 262.738L7.66128 271.026L5.87736 276.783Z" fill="white"/>
<path fill-rule="evenodd" clip-rule="evenodd" d="M46.8601 284H10.949C9.13409 284 7.47427 283.162 6.40392 281.703C5.31806 280.245 5.00781 278.413 5.55074 276.675L7.33466 270.933C7.36569 270.824 7.45876 270.731 7.58286 270.7L41.2291 262.413C41.3015 262.392 41.3687 262.392 41.4308 262.413L54.6473 267.069C54.8024 267.131 54.8955 267.302 54.8645 267.457L52.3825 279.5C51.8396 282.107 49.5127 284 46.8601 284ZM7.92413 271.321L6.20226 276.877C5.73689 278.398 6.0006 280.012 6.94685 281.3C7.89311 282.588 9.35127 283.317 10.949 283.317H46.8601C49.2025 283.317 51.2346 281.657 51.7155 279.36L54.1354 267.612L41.3067 263.096L7.92413 271.321Z" fill="#171717"/>
<path d="M108.091 119.325L89.3365 91.0801L64.3151 99.0104L56.2953 114.39L7.66406 271.025L54.5269 267.394L79.4862 154.259L92.9509 273.369L127.233 264.988L108.091 119.325Z" fill="#3335CF"/>
<path d="M79.2994 151.652C79.2787 151.652 79.258 151.652 79.2373 151.652C79.0512 151.621 78.9271 151.434 78.9581 151.248L82.9603 129.94C83.4877 127.147 85.0079 124.633 87.2417 122.864L89.1187 121.374C89.2583 121.25 89.4755 121.281 89.5996 121.42C89.7082 121.575 89.6927 121.777 89.5375 121.901L87.6605 123.391C85.5664 125.052 84.1392 127.426 83.6428 130.064L79.6251 151.372C79.5941 151.543 79.4545 151.652 79.2994 151.652Z" fill="#171717"/>
<path d="M62.8853 79.4874L52.4766 122.507C52.4766 122.507 70.3002 127.892 84.0752 107.67C84.0752 107.67 88.8065 123.717 109.205 122.507L96.1903 76.9268L62.8853 79.4874Z" fill="#FFB755"/>
<path d="M109.206 122.848C109.051 122.848 108.911 122.755 108.864 122.6L95.9272 77.2838L63.1651 79.8135L52.8029 122.6C52.7719 122.771 52.5857 122.895 52.3996 122.848C52.2134 122.802 52.1048 122.615 52.1514 122.429L62.5602 79.41C62.5912 79.2703 62.7153 79.1616 62.8704 79.1461L96.1599 76.5855C96.315 76.5699 96.4701 76.6786 96.5167 76.8338L109.532 122.414C109.578 122.6 109.469 122.786 109.299 122.848C109.268 122.848 109.237 122.848 109.206 122.848Z" fill="#171717"/>
<path d="M84.3638 107.375C84.3121 107.375 84.2656 107.365 84.2242 107.344C84.0536 107.251 83.976 107.049 84.0536 106.878C85.9306 103.045 87.1871 98.9481 87.8076 94.7268C87.8231 94.5406 88.0092 94.4165 88.1954 94.432C88.3815 94.463 88.5056 94.6337 88.4746 94.82C87.8541 99.1188 86.5666 103.278 84.6741 107.173C84.612 107.297 84.4879 107.375 84.3638 107.375Z" fill="#D8E8DB"/>
<path d="M61.5635 35.9402L73.4304 34.9004L76.6415 40.3476L89.0203 40.208C92.8363 40.1614 96.4973 41.7133 99.1189 44.4913C106.658 52.4837 118.959 63.8437 116.663 83.4445L91.9677 74.4744L61.7341 74.971L60.6327 66.0785L42.2196 81.6908L53.6211 87.3709L44.9032 106.134C44.9032 106.134 31.0972 99.4914 19.8973 92.9268C12.8702 88.7831 11.0708 79.3785 16.1588 72.9846C23.5427 63.7041 36.9454 50.7145 59.5003 40.0683L61.5635 35.9402Z" fill="#FFB755"/>
<path fill-rule="evenodd" clip-rule="evenodd" d="M44.9094 106.475C44.8681 106.475 44.8215 106.46 44.7698 106.429C44.6302 106.366 30.8087 99.7242 19.7329 93.2216C16.2892 91.1886 13.8847 87.7589 13.1557 83.817C12.4266 79.9061 13.4194 75.8712 15.9013 72.7673C23.1456 63.6575 36.5638 50.5438 59.2428 39.8045L61.2594 35.785C61.306 35.6764 61.4146 35.6143 61.5387 35.5988L73.4056 34.559C73.5297 34.5435 73.6538 34.6055 73.7314 34.7297L76.8493 40.0062L89.0265 39.8666C92.9201 39.82 96.6897 41.4185 99.3733 44.2585C99.8593 44.7758 100.361 45.3086 100.878 45.857C108.603 53.927 119.167 64.9922 117.011 83.4911C116.995 83.5997 116.933 83.6928 116.856 83.7394C116.763 83.8015 116.654 83.8015 116.561 83.7704L91.9118 74.8158L61.7558 75.3125C61.7455 75.3125 61.7403 75.3125 61.7403 75.3125C61.5697 75.3125 61.4301 75.1883 61.3991 75.0176L60.3752 66.7458L42.8463 81.6133L53.7825 87.076C53.9531 87.1536 54.0152 87.3554 53.9376 87.5261L45.2197 106.273C45.1887 106.351 45.1111 106.413 45.0335 106.444C44.9922 106.465 44.9508 106.475 44.9094 106.475ZM61.7869 36.2661L59.8013 40.208C59.7703 40.2856 59.7082 40.3321 59.6462 40.3787C37.0137 51.0714 23.6575 64.1231 16.4288 73.1863C14.0864 76.1505 13.1246 79.9837 13.8227 83.6928C14.5207 87.4485 16.8011 90.692 20.0897 92.6319C30.2037 98.5758 42.6446 104.644 44.7543 105.668L53.1775 87.5261L42.0862 81.9857C41.9776 81.9392 41.9 81.8461 41.8845 81.7219C41.8845 81.6133 41.9156 81.5046 42.0086 81.427L60.4218 65.8147C60.5149 65.7371 60.6545 65.7061 60.763 65.7526C60.8871 65.7992 60.9647 65.9078 60.9802 66.032L62.0506 74.6141L91.9739 74.133C92.0204 74.133 92.0514 74.1485 92.098 74.1485L116.375 82.979C118.298 65.0543 107.952 54.2374 100.397 46.3226C99.8697 45.7742 99.3629 45.2414 98.8769 44.7241C96.3639 42.0703 92.8426 40.5494 89.1972 40.5494C89.1455 40.5494 89.0886 40.5494 89.0265 40.5494L76.6632 40.7046C76.5391 40.7046 76.415 40.627 76.353 40.5339L73.2505 35.2573L61.7869 36.2661Z" fill="#171717"/>
<path d="M41.0909 81.4275C41.0392 81.4275 40.9927 81.4171 40.9513 81.3964C38.066 79.9997 35.0256 78.8668 31.9386 78.0443C31.7525 77.9822 31.6439 77.796 31.6904 77.6253C31.737 77.439 31.9231 77.3304 32.1093 77.377C35.2428 78.215 38.3142 79.3634 41.246 80.7757C41.4167 80.8533 41.4787 81.0705 41.4012 81.2257C41.3391 81.3499 41.215 81.4275 41.0909 81.4275Z" fill="#D8E8DB"/>
<path d="M37.2457 101.727C37.1681 101.727 37.075 101.696 37.013 101.633C36.8734 101.509 36.8734 101.292 36.9975 101.152C39.3088 98.7158 42.1941 96.8691 45.3586 95.7517C43.373 92.1823 43.2024 87.5575 44.9708 83.864C45.0484 83.6932 45.25 83.6156 45.4207 83.6932C45.5913 83.7708 45.6689 83.9881 45.5758 84.1588C43.8539 87.7748 44.0866 92.3374 46.1498 95.7672C46.2118 95.8603 46.2118 95.9689 46.1808 96.0621C46.1497 96.1552 46.0722 96.2328 45.9636 96.2638C42.7526 97.3191 39.8207 99.1814 37.4939 101.618C37.4318 101.696 37.3387 101.727 37.2457 101.727Z" fill="#D8E8DB"/>
<path d="M75.0499 51.2421C74.9568 51.2421 74.8637 51.2111 74.8017 51.1335L64.9513 39.6493C64.8272 39.4941 64.8427 39.2768 64.9824 39.1682C65.1375 39.044 65.3547 39.0595 65.4632 39.1992L75.3136 50.6834C75.4377 50.8231 75.4222 51.0404 75.2826 51.1645C75.2205 51.2266 75.1274 51.2421 75.0499 51.2421Z" fill="#171717"/>
<path d="M55.2734 41.5425C55.2734 41.5425 60.0823 64.0144 58.8723 79.1922C58.6862 81.489 60.377 83.522 62.6728 83.7548C69.2811 84.4066 82.8234 85.1515 98.4598 82.6219C100.135 82.3581 101.252 80.7596 100.942 79.099C99.375 70.998 94.6903 48.7279 89.0283 39.8509L87.0737 39.7578C87.0737 39.7578 88.9197 46.338 90.2227 51.9249C90.9828 55.1994 88.625 58.3654 85.2743 58.5826L70.429 59.5759C66.8767 59.8086 63.6346 57.5428 62.6418 54.1286C61.1992 49.178 59.1515 42.5513 57.895 40.3475L55.2734 41.5425Z" fill="#FFA121"/>
<path d="M53.6278 87.3705C53.6278 87.3705 45.9337 94.0438 44.9099 106.133C44.9099 106.133 54.1398 109.811 56.0167 109.889C57.6921 109.951 67.9768 103.324 72.3978 101.105C73.1113 100.764 73.4371 99.9256 73.1579 99.1806L72.9562 98.6375L74.8798 97.9391C75.6399 97.6598 76.0742 96.8683 75.8881 96.0923L75.857 95.9837C75.7019 95.2853 75.0504 94.8197 74.3523 94.8663L72.1186 95.0525L76.9429 93.1592C77.6565 92.8798 78.1373 92.197 78.1373 91.421C78.1373 90.6606 77.5169 90.0398 76.7568 90.0243C74.9728 89.9933 71.9169 90.0088 70.4587 90.4278C70.4587 90.4278 76.7568 88.9069 76.9584 88.2086C77.2532 87.1843 75.9811 85.4772 69.6056 86.6722C63.23 87.8671 60.2206 90.5209 60.2206 90.5209L53.6278 87.3705Z" fill="white"/>
<path fill-rule="evenodd" clip-rule="evenodd" d="M56.0319 110.23C56.0215 110.23 56.0112 110.23 56.0008 110.23C54.0928 110.153 45.1732 106.599 44.7854 106.444C44.6458 106.382 44.5682 106.242 44.5837 106.102C45.592 94.0282 53.3327 87.1843 53.4103 87.1222C53.5033 87.0291 53.6585 87.0135 53.7826 87.0601L60.1736 90.1174C60.9182 89.5277 63.9276 87.386 69.5431 86.3307C74.383 85.4306 76.2289 86.1755 76.9425 86.9515C77.2993 87.3394 77.4234 87.8361 77.2838 88.3172C77.1752 88.6741 76.26 89.1397 74.5381 89.6829C75.2982 89.6673 76.0583 89.6673 76.7563 89.6829C77.7026 89.6984 78.4782 90.4743 78.4782 91.421C78.4782 92.3366 77.9198 93.1436 77.0666 93.4851L74.383 94.5248C75.2517 94.4938 75.9962 95.068 76.1979 95.9061L76.2134 96.0147C76.4461 96.9614 75.9187 97.9236 75.0035 98.265L73.3902 98.8392L73.4832 99.072C73.809 99.9721 73.4212 100.981 72.5525 101.415C70.8927 102.238 68.4728 103.666 65.8977 105.171C60.6545 108.213 57.1332 110.23 56.0319 110.23ZM45.2818 105.9C48.5239 107.189 54.6202 109.501 56.0163 109.547C56.9626 109.594 61.7249 106.801 65.5409 104.581C68.1315 103.06 70.5824 101.633 72.2423 100.81C72.8007 100.531 73.0489 99.879 72.8317 99.3048L72.6301 98.7461C72.599 98.6685 72.599 98.5754 72.6456 98.4822C72.6766 98.4046 72.7542 98.3426 72.8317 98.3115L74.7708 97.6132C75.3602 97.4114 75.7015 96.7907 75.5619 96.1699L75.5309 96.0612C75.4068 95.5181 74.9104 95.1767 74.3674 95.2077L72.1492 95.3939C71.9785 95.4094 71.8234 95.2853 71.7924 95.1301C71.7459 94.9594 71.8389 94.7887 71.9941 94.7266L76.8184 92.8488C77.4079 92.616 77.7802 92.0573 77.7802 91.421C77.7802 90.8468 77.3148 90.3657 76.7408 90.3657C75.1741 90.3347 72.4594 90.3502 70.9082 90.6606C70.7944 90.6916 70.6703 90.7226 70.5359 90.7537C70.3653 90.8002 70.1791 90.6916 70.1326 90.5054C70.086 90.3347 70.1946 90.1484 70.3653 90.0863C70.4894 90.0553 70.6186 90.0243 70.7531 89.9932C73.3902 89.3569 76.291 88.4723 76.6478 88.0844C76.6943 87.8516 76.6167 87.6188 76.4306 87.4015C76.0428 86.9825 74.6001 86.0824 69.6672 87.0135C63.4778 88.162 60.4839 90.7382 60.4529 90.7692C60.3443 90.8623 60.2047 90.8778 60.0806 90.8158L53.6895 87.774C52.5881 88.8293 46.2591 95.2387 45.2818 105.9Z" fill="#171717"/>
<path d="M69.1985 96.2637C69.0589 96.2637 68.9193 96.1706 68.8728 96.0154C68.8107 95.8291 68.9193 95.6429 69.1054 95.5963L71.6029 94.8359C71.7736 94.7738 71.9752 94.8825 72.0218 95.0687C72.0838 95.2394 71.9752 95.4256 71.8046 95.4877L69.2916 96.2482C69.2606 96.2585 69.2295 96.2637 69.1985 96.2637Z" fill="#171717"/>
<path d="M67.6644 100.856C67.5247 100.856 67.4006 100.779 67.3541 100.655C67.2765 100.484 67.3541 100.282 67.5248 100.205C69.2621 99.4441 71.0926 98.7923 72.923 98.2647C73.1092 98.2181 73.2953 98.3267 73.3419 98.513C73.4039 98.6837 73.2953 98.8854 73.1092 98.932C71.2943 99.4441 69.5103 100.08 67.804 100.841C67.7523 100.851 67.7057 100.856 67.6644 100.856Z" fill="#171717"/>
<path d="M59.2422 23.3074L62.3136 35.909L71.6676 46.9587L73.7152 40.3475C73.7152 40.3475 71.9623 34.4191 70.1474 27.6683C68.3479 20.9329 59.2422 23.3074 59.2422 23.3074Z" fill="white"/>
<path fill-rule="evenodd" clip-rule="evenodd" d="M71.6681 47.2997C71.5751 47.2997 71.4665 47.2532 71.4044 47.1756L62.066 36.1414C62.0246 36.1 61.9988 36.0535 61.9884 36.0017L58.917 23.3846C58.8705 23.1984 58.979 23.0277 59.1652 22.9811C59.2583 22.9501 68.6122 20.5912 70.4892 27.5903C72.2731 34.2481 74.026 40.1919 74.0415 40.254C74.0622 40.3264 74.0622 40.3937 74.0415 40.4558L71.9939 47.0514C71.9629 47.1756 71.8543 47.2687 71.7302 47.2842C71.7095 47.2946 71.6888 47.2997 71.6681 47.2997ZM62.64 35.7534L71.5285 46.26L73.359 40.3471C73.1263 39.5401 71.482 33.9532 69.8222 27.761C68.2865 22.05 61.2904 23.2139 59.6616 23.5553L62.64 35.7534Z" fill="#171717"/>
<path d="M54.9472 9.54178C55.4436 7.04319 56.3898 4.52907 58.2513 2.79092C59.787 1.33211 61.8502 0.525111 63.9443 0.199208C66.0385 -0.126696 68.1637 -0.00254132 70.2734 0.214728C72.3365 0.431997 74.4617 0.773422 76.1681 1.95288C78.1537 3.31857 79.3016 5.72405 79.5032 8.12953C79.7204 10.535 79.0689 12.956 78.0606 15.1597C79.6583 15.6564 80.6356 17.5031 80.2943 19.1482C79.9531 20.7777 78.4639 22.0503 76.8196 22.3141C75.1598 22.5779 73.4379 21.8951 72.259 20.7311C70.9869 19.4741 70.1493 17.5807 68.4429 17.0686C67.5277 18.0618 66.7986 19.1947 65.9765 20.25C65.1543 21.3053 64.2236 22.3141 63.0291 22.9349C61.8347 23.5556 60.361 23.7419 59.1665 23.1366C58.3134 22.7021 57.5377 21.8485 57.0879 21.026C56.6535 20.2345 56.1571 19.4741 55.7693 18.6826C54.8851 16.8824 54.5749 14.8649 54.5904 12.8784C54.6059 11.761 54.73 10.6436 54.9472 9.54178Z" fill="#171717"/>
<path d="M59.726 19.5825C59.059 18.8531 57.8335 18.7755 57.0114 19.3342C56.1737 19.8773 55.7704 20.9637 55.91 21.9414C56.0496 22.9346 56.6546 23.8192 57.4612 24.4089C58.2523 25.0142 59.2296 25.3401 60.2069 25.4953C61.2462 27.6214 62.5803 29.701 64.5659 31.0046C66.5514 32.2927 69.2971 32.6341 71.2517 31.2995C72.4927 30.4459 73.2683 29.0181 73.6096 27.5438C73.9508 26.085 73.9043 24.5486 73.7802 23.0432C73.4544 19.0703 72.6168 15.144 71.3137 11.3728C69.809 11.2952 68.2888 11.2486 66.8151 11.5745C65.3415 11.9004 63.9143 12.6143 62.9991 13.8248C61.8822 15.2992 61.6961 17.3011 61.8822 19.1634C61.9443 19.7376 62.27 21.6776 61.1997 21.6155C60.4861 21.5689 60.1604 20.0636 59.726 19.5825Z" fill="white"/>
<path fill-rule="evenodd" clip-rule="evenodd" d="M68.3494 32.4951C66.9067 32.4951 65.4796 31.9985 64.3782 31.2846C62.191 29.8568 60.8259 27.4979 59.9727 25.8063C58.9024 25.6046 57.9716 25.2321 57.2425 24.6889C56.3273 23.9906 55.7068 23.0129 55.5672 21.9886C55.4121 20.8402 55.9085 19.6452 56.8082 19.0399C57.801 18.3726 59.2281 18.5123 59.9882 19.3658C60.1589 19.5676 60.314 19.878 60.4691 20.2039C60.6708 20.6229 60.9655 21.2592 61.2292 21.2747C61.3533 21.2747 61.4154 21.2437 61.4464 21.1971C61.7411 20.8867 61.617 19.8004 61.5705 19.3814L61.5394 19.1951C61.3068 16.8517 61.6946 14.9739 62.7339 13.6082C63.6026 12.4598 65.0297 11.6217 66.7516 11.2493C68.2718 10.9079 69.8541 10.9544 71.3433 11.032C71.4829 11.032 71.5915 11.1251 71.638 11.2648C72.9565 15.0515 73.7942 19.0089 74.12 23.0129C74.2441 24.4872 74.3061 26.0701 73.9493 27.6221C73.546 29.3447 72.6618 30.7414 71.4518 31.5795C70.4901 32.2313 69.4197 32.4951 68.3494 32.4951ZM58.2198 19.3038C57.863 19.3038 57.4907 19.4124 57.196 19.6141C56.4979 20.0797 56.1256 20.9954 56.2497 21.8955C56.3583 22.749 56.8702 23.556 57.6614 24.1458C58.3284 24.6424 59.2126 24.9838 60.2674 25.1545C60.376 25.17 60.4691 25.2476 60.5156 25.3407C61.3223 26.9858 62.6253 29.3292 64.7505 30.7104C66.7826 32.045 69.3732 32.1692 71.064 31.0053C72.1344 30.2758 72.9255 29.0188 73.2823 27.4669C73.6236 26.0081 73.5615 24.4872 73.4374 23.0749C73.1272 19.1951 72.3205 15.3774 71.064 11.6993C69.6989 11.6373 68.2563 11.6062 66.8912 11.9166C65.34 12.2425 64.0525 13.003 63.2768 14.0272C62.3461 15.2377 62.0048 16.9604 62.222 19.133L62.2375 19.3038C62.3461 20.1884 62.4237 21.1661 61.9428 21.6782C61.7411 21.88 61.4774 21.9731 61.1827 21.9575C60.5156 21.911 60.1589 21.1661 59.8486 20.4987C59.7245 20.2349 59.5849 19.9401 59.4763 19.8159C59.1816 19.49 58.7007 19.3038 58.2198 19.3038Z" fill="#171717"/>
<path d="M60.868 24.4097C60.7594 24.4097 60.6508 24.3631 60.5732 24.27C60.0924 23.5406 59.2702 23.044 58.4015 22.9353C58.2154 22.9198 58.0913 22.7491 58.1068 22.5629C58.1378 22.3766 58.3084 22.237 58.4946 22.268C59.5494 22.3922 60.5422 22.9974 61.1472 23.882C61.2558 24.0372 61.2092 24.2545 61.0541 24.3476C60.9921 24.389 60.93 24.4097 60.868 24.4097Z" fill="#171717"/>
<path d="M57.336 30.3067C56.3897 30.3067 55.6451 29.4842 55.459 28.6617C55.2418 27.6995 55.6141 26.7839 55.9709 26.1786C56.5604 25.1388 57.4756 24.2853 58.5459 23.7576C58.7166 23.6645 58.9337 23.7421 59.0113 23.9128C59.0889 24.0835 59.0268 24.2853 58.8562 24.3629C57.8944 24.8284 57.0878 25.6044 56.5604 26.52C56.2656 27.0166 55.9554 27.7616 56.126 28.5065C56.2501 29.0807 56.7775 29.6704 57.4135 29.6239C57.7548 29.5928 58.1116 29.3756 58.3908 29.0341C58.67 28.6927 58.8562 28.2582 59.0423 27.8392C59.1044 27.6685 59.3061 27.5909 59.4922 27.6684C59.6628 27.746 59.7404 27.9478 59.6628 28.1185C59.4612 28.5841 59.2595 29.0497 58.9182 29.4687C58.5149 29.9653 58.003 30.2602 57.4601 30.2912C57.4187 30.3015 57.3773 30.3067 57.336 30.3067Z" fill="#171717"/>
<path d="M112.509 69.2284L108.057 68.6697C108.057 68.6697 92.1258 42.194 87.3325 35.9087C82.5392 29.6079 76.4894 26.5351 75.0467 27.0472C73.6041 27.5438 79.9486 34.8999 79.9486 34.8999C79.9486 34.8999 75.4345 31.1908 75.0467 36.7312C75.0467 36.7312 71.603 36.0794 71.696 39.416C71.696 39.416 69.9276 38.966 70.1293 41.7594C70.331 44.5529 73.4334 48.3085 73.573 44.3356L79.4677 52.0176C79.4677 52.0176 87.3635 91.5761 104.613 93.0504C117.194 94.1213 117.426 81.2093 116.62 74.117C115.456 72.3168 114.107 70.6407 112.509 69.2284Z" fill="white"/>
<path d="M101.5 57.5C95.1 66.7 86.8333 66.8333 83 66.5C90.5 88.5 100.009 92.7339 104 93C111.5 93.5 114 90 115.5 86.5L117 80.5L116.5 73.5L113 69L108 68L101.5 57.5Z" fill="#FFB755"/>
<path d="M106.072 93.4541C105.596 93.4541 105.105 93.4334 104.598 93.392C97.2921 92.7712 90.7924 85.6013 85.2545 72.1151C81.3609 62.5863 79.3443 53.1196 79.1582 52.1574L73.8219 45.2203C73.6203 46.167 73.1704 46.3998 72.7671 46.3998C72.7671 46.3998 72.7619 46.3998 72.7516 46.3998C71.4796 46.3998 69.9283 43.6994 69.7887 41.7906C69.7111 40.6421 69.9283 39.8351 70.4557 39.3851C70.766 39.1368 71.1073 39.0592 71.3555 39.0592C71.402 38.1746 71.6967 37.4917 72.2552 37.0262C73.0463 36.3433 74.1632 36.3123 74.7372 36.3588C74.9078 34.8379 75.4352 33.8758 76.2884 33.5033C76.9709 33.2084 77.7465 33.3481 78.4291 33.6119C76.6917 31.4858 74.2408 28.2423 74.52 27.1715C74.582 26.9542 74.7372 26.799 74.9388 26.7214C76.7382 26.0851 82.9897 29.6545 87.6124 35.707C92.3592 41.9302 108.197 68.2353 108.352 68.4991C108.461 68.6543 108.399 68.8716 108.244 68.9647C108.073 69.0578 107.872 69.0113 107.778 68.8561C107.608 68.5923 91.8007 42.3182 87.0695 36.1105C82.3072 29.8718 76.397 26.9387 75.1715 27.3577C74.9543 27.9009 77.2657 31.253 80.213 34.6672C80.3216 34.8069 80.3216 35.0087 80.1975 35.1328C80.0734 35.257 79.8717 35.2725 79.7321 35.1639C79.2047 34.7293 77.5914 33.6895 76.5521 34.1396C75.8851 34.4189 75.4973 35.3035 75.3887 36.7623C75.3887 36.8555 75.3421 36.9486 75.2646 37.0106C75.187 37.0727 75.0939 37.0882 74.9853 37.0727C74.9698 37.0727 73.5427 36.8089 72.6895 37.5383C72.2397 37.9418 72.0225 38.5626 72.038 39.4006C72.038 39.5092 71.9915 39.6179 71.9139 39.6799C71.8363 39.7575 71.7122 39.7731 71.6192 39.742C71.6037 39.742 71.2003 39.6489 70.8901 39.9283C70.5488 40.2076 70.4092 40.8439 70.4713 41.7285C70.6109 43.6218 72.0535 45.7169 72.7516 45.7169C72.7516 45.7169 72.7567 45.7169 72.7671 45.7169C72.9532 45.7169 73.2014 45.3445 73.2325 44.3202C73.2325 44.1805 73.3255 44.0564 73.4651 44.0098C73.6047 43.9632 73.7599 44.0098 73.8374 44.134L79.7476 51.8005C79.7787 51.8522 79.7993 51.9039 79.8097 51.9557C79.8873 52.3436 87.8451 91.2814 104.645 92.7091C110.54 93.2213 114.294 90.614 115.814 85.0116C115.86 84.8254 116.047 84.7167 116.233 84.7633C116.403 84.8099 116.512 84.9961 116.465 85.1823C114.992 90.6761 111.501 93.4541 106.072 93.4541Z" fill="#171717"/>
<path d="M116.143 85.4312C116.112 85.4312 116.081 85.4312 116.05 85.4312C115.864 85.3846 115.755 85.1829 115.818 85.0121C117.587 78.3699 115.569 69.8033 115.554 69.7257C115.507 69.5395 115.616 69.3533 115.802 69.3067C115.973 69.2601 116.159 69.3843 116.206 69.5705C116.237 69.6481 118.301 78.3854 116.469 85.1829C116.423 85.3381 116.299 85.4312 116.143 85.4312Z" fill="#171717"/>
<path d="M84.8033 67.3817C84.6326 67.3817 84.4775 67.242 84.462 67.0713C84.4465 66.8851 84.6016 66.7143 84.7878 66.6988C90.5584 66.2488 96.0342 63.4708 99.7882 59.0478C99.9123 58.9082 100.129 58.8926 100.269 59.0168C100.409 59.1254 100.424 59.3427 100.316 59.4979C96.4375 64.045 90.791 66.9316 84.8343 67.3817C84.824 67.3817 84.8136 67.3817 84.8033 67.3817Z" fill="#171717"/>
<path d="M89.182 74.7384C88.6132 74.7384 88.0547 74.6866 87.5066 74.5832C87.3205 74.5366 87.1964 74.3659 87.2274 74.1797C87.2739 73.9934 87.4446 73.8693 87.6307 73.9003C90.2058 74.3969 93.0135 73.621 94.9681 71.8673C96.9226 70.1291 98.0085 67.4133 97.8068 64.8061C97.8068 64.6664 97.8689 64.5422 97.9775 64.4802C98.086 64.4181 98.2257 64.4181 98.3342 64.4802C99.7614 65.3803 101.638 65.582 103.221 65.0233C103.391 64.9612 103.593 65.0544 103.655 65.2251C103.717 65.4113 103.624 65.5975 103.453 65.6596C101.871 66.2338 100.025 66.1097 98.5204 65.3647C98.5359 67.9875 97.388 70.6258 95.4334 72.3794C93.7426 73.8848 91.4468 74.7384 89.182 74.7384Z" fill="#D8E8DB"/>
<path d="M302.398 283.999H0.356787C0.155126 283.999 0 283.843 0 283.657V133.679C0 133.493 0.155126 133.338 0.356787 133.338H37.2451C37.4313 133.338 37.5864 133.493 37.5864 133.679C37.5864 133.866 37.4313 134.021 37.2451 134.021H0.698055V283.316H302.056V249.111C302.056 248.925 302.211 248.77 302.398 248.77C302.584 248.77 302.739 248.925 302.739 249.111V283.657C302.739 283.843 302.584 283.999 302.398 283.999Z" fill="#171717"/>
</svg>
