<svg width="426" height="284" viewBox="0 0 426 284" fill="none" xmlns="http://www.w3.org/2000/svg">
<path d="M412.13 284C411.944 284 411.789 283.845 411.789 283.659V213.776C411.789 213.574 411.944 213.435 412.13 213.435C412.332 213.435 412.472 213.574 412.472 213.776V283.659C412.472 283.845 412.332 284 412.13 284Z" fill="#171717"/>
<path d="M12.8297 284C12.6435 284 12.4883 283.845 12.4883 283.659V213.776C12.4883 213.574 12.6435 213.435 12.8297 213.435C13.0159 213.435 13.1711 213.574 13.1711 213.776V283.659C13.1711 283.845 13.0159 284 12.8297 284Z" fill="#171717"/>
<path d="M0.339844 162.097H246.945V140.712H406.667V162.097H425.952V213.248H0.339844V162.097Z" fill="white"/>
<path fill-rule="evenodd" clip-rule="evenodd" d="M425.659 213.589H0.341318C0.155143 213.589 0 213.434 0 213.248V162.097C0 161.895 0.155143 161.755 0.341318 161.755H246.605V140.712C246.605 140.525 246.76 140.37 246.946 140.37H406.669C406.855 140.37 407.01 140.525 407.01 140.712V161.755H425.659C425.845 161.755 426 161.895 426 162.097V213.248C426 213.434 425.845 213.589 425.659 213.589ZM0.682642 212.907H425.317V162.438H406.669C406.483 162.438 406.327 162.283 406.327 162.097V141.053H247.287V162.097C247.287 162.283 247.132 162.438 246.946 162.438H0.682642V212.907Z" fill="#171717"/>
<path d="M402.761 162.346H367.326C367.14 162.346 366.984 162.191 366.984 162.005C366.984 161.818 367.14 161.663 367.326 161.663H402.761C402.947 161.663 403.102 161.818 403.102 162.005C403.102 162.191 402.947 162.346 402.761 162.346Z" fill="#171717"/>
<path d="M257.762 162.361H340.051C341.029 162.361 341.82 161.57 341.82 160.592V154.648C341.82 153.686 341.029 152.895 340.051 152.895H257.762V153.903C257.762 154.276 258.056 154.586 258.413 154.633L259.205 154.695V160.468L258.336 160.654C257.994 160.716 257.762 161.011 257.762 161.352V162.361Z" fill="#00A82D"/>
<path d="M259.203 160.483H298.703C299.479 160.483 300.1 159.847 300.1 159.086V156.091C300.1 155.315 299.479 154.694 298.703 154.694H259.203V160.483Z" fill="white"/>
<path d="M262.457 152.895H345.243C345.941 152.895 346.515 152.321 346.515 151.607V148.487C346.515 147.789 345.941 147.215 345.243 147.215H262.457V147.587C262.457 147.929 262.736 148.224 263.078 148.239L263.9 148.301V151.762L263.047 151.855C262.721 151.886 262.457 152.165 262.457 152.507V152.895Z" fill="#D8E8DB"/>
<path d="M263.902 151.762H303.961C304.427 151.762 304.814 151.389 304.814 150.908V149.154C304.814 148.673 304.427 148.301 303.961 148.301H263.902V151.762Z" fill="white"/>
<path d="M288.773 140.882L289.813 137.996C290.092 137.204 290.852 136.677 291.675 136.677H359.256C360.032 136.677 360.746 137.08 361.134 137.748L362.483 140.882H288.773Z" fill="#171717"/>
<path d="M337.086 136.863H320.594V117.495H337.086V136.863Z" fill="#171717"/>
<path d="M239.546 119.373H408.749C409.726 119.373 410.548 118.66 410.688 117.682L425.598 2.54551C425.737 1.38158 424.837 0.341797 423.658 0.341797H254.456C253.479 0.341797 252.656 1.07119 252.532 2.03338L237.623 117.185C237.468 118.349 238.383 119.373 239.546 119.373Z" fill="white"/>
<path fill-rule="evenodd" clip-rule="evenodd" d="M408.745 119.715H239.543C238.892 119.715 238.271 119.435 237.837 118.939C237.402 118.442 237.2 117.79 237.278 117.138L252.188 2.00197C252.343 0.853551 253.32 0 254.453 0H423.655C424.322 0 424.943 0.279344 425.377 0.775956C425.811 1.27257 426.013 1.92437 425.92 2.57618L411.011 117.728C410.871 118.861 409.893 119.715 408.745 119.715ZM254.453 0.682841C253.661 0.682841 252.979 1.28809 252.87 2.07956L237.961 117.231C237.899 117.682 238.038 118.147 238.349 118.489C238.643 118.845 239.093 119.032 239.543 119.032H408.745C409.552 119.032 410.235 118.442 410.343 117.635L425.253 2.49858C425.315 2.03301 425.16 1.58295 424.865 1.22601C424.555 0.884589 424.12 0.682841 423.655 0.682841H254.453Z" fill="#171717"/>
<path d="M405.289 113.755H277.449C277.263 113.755 277.107 113.6 277.107 113.414C277.107 113.228 277.263 113.073 277.449 113.073H404.994L418.771 6.89074H258.474L247.257 93.3788C247.226 93.5651 247.056 93.6892 246.869 93.6737C246.683 93.6426 246.544 93.4719 246.575 93.2857L257.838 6.50277C257.854 6.33205 257.993 6.19238 258.164 6.19238H419.159C419.252 6.19238 419.345 6.23894 419.407 6.31654C419.485 6.39413 419.516 6.48725 419.5 6.58036L405.63 113.461C405.615 113.631 405.46 113.755 405.289 113.755Z" fill="#171717"/>
<path d="M303.188 37.4326C302.055 46.2164 294.003 53.3397 285.207 53.3397C276.41 53.3397 270.204 46.2164 271.336 37.4326C272.469 28.6643 280.521 21.541 289.318 21.541C298.115 21.541 304.321 28.6643 303.188 37.4326Z" fill="white"/>
<path fill-rule="evenodd" clip-rule="evenodd" d="M285.206 53.6808C280.862 53.6808 276.999 52.0047 274.315 48.9474C271.616 45.8591 270.436 41.7621 270.995 37.4012C272.159 28.4622 280.366 21.1992 289.318 21.1992C293.646 21.1992 297.509 22.8753 300.193 25.9326C302.908 29.0209 304.088 33.1179 303.529 37.4788C302.365 46.4178 294.143 53.6808 285.206 53.6808ZM289.318 21.8821C280.707 21.8821 272.795 28.8812 271.678 37.4788C271.135 41.6534 272.252 45.5642 274.827 48.4974C277.387 51.3994 281.064 52.9979 285.206 52.9979C293.817 52.9979 301.729 45.9988 302.846 37.4012C303.389 33.2265 302.257 29.3157 299.681 26.3826C297.137 23.4805 293.445 21.8821 289.318 21.8821Z" fill="#171717"/>
<path d="M305.67 33.071C304.801 25.0165 298.332 19.0106 289.69 18.9951L287.316 37.3698C287.316 37.3698 302.614 33.7538 305.67 33.071Z" fill="#D8E8DB"/>
<path d="M278.66 23.6973C274.564 26.4907 271.632 30.6653 270.438 35.1659C274.58 35.7246 287.333 37.4317 287.333 37.4317C287.333 37.4317 280.088 25.9941 278.66 23.6973Z" fill="white"/>
<path fill-rule="evenodd" clip-rule="evenodd" d="M287.331 37.7735C287.31 37.7735 287.295 37.7735 287.285 37.7735C287.285 37.7735 274.532 36.0663 270.389 35.4921C270.296 35.4921 270.203 35.4301 270.141 35.3525C270.094 35.2749 270.079 35.1662 270.11 35.0731C271.336 30.4484 274.392 26.1962 278.472 23.4183C278.55 23.3562 278.643 23.3407 278.736 23.3562C278.829 23.3872 278.907 23.4338 278.953 23.5269C280.35 25.7927 287.533 37.1372 287.61 37.2458C287.688 37.37 287.688 37.5096 287.61 37.6183C287.548 37.7269 287.44 37.7735 287.331 37.7735ZM270.87 34.8714C274.702 35.399 283.98 36.6406 286.648 36.9975C285.175 34.6851 280.07 26.6307 278.565 24.1787C274.873 26.8014 272.096 30.6657 270.87 34.8714Z" fill="#171717"/>
<path d="M315.645 53.3392H311.875L313.333 42.0723H317.103L315.645 53.3392Z" fill="#D8E8DB"/>
<path d="M321.602 53.3398H317.816L321.509 24.8467H325.279L321.602 53.3398Z" fill="#D8E8DB"/>
<path d="M327.543 53.3392H323.773L326.395 33.0557H330.165L327.543 53.3392Z" fill="#D8E8DB"/>
<path d="M333.485 53.3393H329.715L330.692 45.8125H334.462L333.485 53.3393Z" fill="#D8E8DB"/>
<path d="M339.445 53.3392H335.66L337.118 42.0723H340.904L339.445 53.3392Z" fill="#D8E8DB"/>
<path d="M345.387 53.3395H341.602L342.579 45.8438H346.349L345.387 53.3395Z" fill="#D8E8DB"/>
<path d="M351.329 53.3389H347.559L349.56 37.8818H353.33L351.329 53.3389Z" fill="#D8E8DB"/>
<path d="M357.289 53.3391H353.504L355.955 34.3281H359.741L357.289 53.3391Z" fill="#D8E8DB"/>
<path d="M363.227 53.3389H359.441L361.598 36.7334H365.368L363.227 53.3389Z" fill="#D8E8DB"/>
<path d="M369.172 53.3392H365.402L366.845 42.0723H370.631L369.172 53.3392Z" fill="#D8E8DB"/>
<path d="M375.11 53.3391H371.34L374.877 26.0254H378.647L375.11 53.3391Z" fill="#D8E8DB"/>
<path d="M381.071 53.3389H377.285L379.954 32.7295H383.724L381.071 53.3389Z" fill="#D8E8DB"/>
<path d="M387.012 53.3392H383.227L384.685 42.0723H388.471L387.012 53.3392Z" fill="#D8E8DB"/>
<path d="M392.954 53.3389H389.184L390.239 45.1914H394.009L392.954 53.3389Z" fill="#D8E8DB"/>
<path d="M398.914 53.3398H395.129L397.472 35.291H401.242L398.914 53.3398Z" fill="#D8E8DB"/>
<path d="M281.386 82.4999L283.496 66.1738C274.529 66.1738 266.321 73.4833 265.158 82.4999C263.994 91.5166 270.309 98.8261 279.276 98.8261C288.228 98.8261 296.435 91.5166 297.614 82.4999C297.956 79.7686 297.63 77.2079 296.745 74.9421L281.386 82.4999Z" fill="white"/>
<path d="M296.745 74.9421L283.496 66.1738C274.529 66.1738 266.321 73.4833 265.158 82.4999C263.994 91.5166 270.309 98.8261 279.276 98.8261C288.228 98.8261 296.435 91.5166 297.614 82.4999C297.956 79.7686 297.63 77.2079 296.745 74.9421Z" fill="#D8E8DB"/>
<path d="M296.75 74.9421C294.718 69.7277 289.753 66.1738 283.501 66.1738L281.391 82.4999L296.75 74.9421Z" fill="#00A82D"/>
<path d="M289.179 82.4996C288.62 86.7984 284.679 90.2902 280.382 90.2902C276.069 90.2902 273.043 86.7984 273.586 82.4996C274.145 78.2008 278.086 74.709 282.399 74.709C286.696 74.709 289.737 78.2008 289.179 82.4996Z" fill="white"/>
<path d="M291.596 66.7324C291.503 66.7324 291.409 66.7014 291.347 66.6238C291.223 66.4686 291.223 66.2669 291.378 66.1272L294.962 62.9613C295.024 62.8992 295.102 62.8682 295.195 62.8682H306.071C306.257 62.8682 306.412 63.0234 306.412 63.2096C306.412 63.3958 306.257 63.551 306.071 63.551H295.319L291.828 66.6548C291.766 66.7014 291.673 66.7324 291.596 66.7324Z" fill="#171717"/>
<path d="M392.722 99.1676H306.213C306.12 99.1676 306.026 99.1365 305.964 99.0589C305.902 98.9813 305.871 98.8882 305.887 98.7951L309.719 69.1536C309.734 68.9674 309.905 68.8432 310.091 68.8587C310.277 68.8898 310.417 69.0605 310.386 69.2467L306.616 98.4847H392.722C392.924 98.4847 393.063 98.6399 393.063 98.8262C393.063 99.0279 392.924 99.1676 392.722 99.1676Z" fill="#171717"/>
<path d="M309.627 95.1947C309.549 95.1947 309.471 95.1636 309.409 95.1171C309.254 95.0084 309.239 94.7912 309.347 94.636C309.378 94.6049 312.14 91.1131 315.026 87.8075C321.076 80.886 321.821 81.4292 322.224 81.724C322.876 82.1896 323.388 83.8657 324.179 86.5505C324.955 89.2043 326.134 93.2082 327.267 93.2082C327.277 93.2082 327.293 93.2082 327.313 93.2082C328.446 93.084 330.54 89.4991 332.061 86.8919C333.922 83.726 335.024 81.9258 335.893 81.9258C337.056 81.9258 337.305 84.3313 337.599 88.2731C337.708 89.7785 337.848 91.6097 338.08 92.3081C338.965 91.2373 341.587 85.7125 343.712 81.1964C348.553 70.9538 350.213 67.7568 351.097 67.7568C352.044 67.7568 352.292 70.0847 352.773 79.272C353.052 84.4399 353.455 92.2615 354.324 92.7116C355.209 92.6961 357.753 86.3332 359.444 82.1276C362.097 75.5319 363.369 72.6143 364.331 72.4902C365.557 72.3039 366.131 74.9577 367.046 79.6135C367.512 82.0189 368.303 86.0229 368.954 86.116C369.575 86.0073 371.514 81.9724 372.926 79.0237C375.998 72.5833 378.31 68.0207 380.156 68.0207C382.049 68.0207 382.731 72.5522 383.647 80.0014C384.159 84.2226 384.733 89.018 385.695 89.8716C385.788 89.9647 385.896 89.9802 386.021 89.9492C387.96 89.5147 392.257 80.8084 394.678 75.0508C394.755 74.8801 394.957 74.8025 395.128 74.8646C395.314 74.9422 395.391 75.1439 395.314 75.3147C394.678 76.82 389.061 89.9802 386.176 90.6165C385.819 90.7096 385.493 90.6165 385.245 90.3837C384.081 89.3595 383.569 85.0607 382.964 80.079C382.375 75.2836 381.583 68.7035 380.156 68.7035C378.605 68.7035 375.672 74.8491 373.531 79.3186C370.894 84.8589 369.792 86.9385 368.846 86.7988C367.791 86.6436 367.248 84.145 366.379 79.7531C366.038 78.046 365.681 76.2768 365.309 74.9888C364.781 73.142 364.424 73.1575 364.424 73.1575C363.695 73.3903 361.616 78.5892 360.08 82.3759C357.458 88.9094 355.783 92.9133 354.572 93.3479C354.324 93.441 354.123 93.3789 353.998 93.3168C352.881 92.7271 352.525 87.6213 352.09 79.3031C351.857 74.8646 351.563 69.3864 351.051 68.5018C350.089 69.3088 346.769 76.3234 344.333 81.4913C340.113 90.4148 338.779 93.022 338.065 93.1306C337.925 93.1461 337.786 93.084 337.677 92.9754C337.243 92.4788 337.103 90.8803 336.917 88.3197C336.777 86.6126 336.482 82.6086 335.893 82.6086C335.365 82.6086 333.736 85.4021 332.65 87.2489C330.37 91.1597 328.756 93.7359 327.391 93.8755C325.669 94.0773 324.583 90.3527 323.528 86.7522C322.954 84.8124 322.318 82.6397 321.821 82.2827C320.844 82.0965 314.871 88.7542 309.89 95.0705C309.813 95.1481 309.72 95.1947 309.627 95.1947Z" fill="#171717"/>
<path d="M381.769 93.3939C381.66 93.3939 381.552 93.3474 381.458 93.2853C381.024 92.9128 380.636 91.1126 379.798 86.7673C379.193 83.6479 378.2 78.4645 377.533 77.8593C376.649 78.6352 374.151 83.291 372.491 86.3948C371.048 89.1262 370.474 90.166 370.226 90.3832C370.086 90.5074 369.916 90.5694 369.714 90.5539C368.876 90.5074 367.619 89.1262 366.177 87.4656C366.146 87.4346 366.115 87.4035 366.099 87.4035C365.789 87.4501 365.122 88.6606 364.672 89.4676C363.818 91.0195 362.841 92.7887 361.615 93.0835C360.126 93.456 358.854 90.1659 357.085 85.1222C356.402 83.1513 355.549 80.6993 355.161 80.482C354.758 80.3113 353.548 81.9874 352.958 82.7944C352.027 84.0824 351.515 84.7653 351.003 84.7808C350.833 84.7963 350.677 84.7187 350.569 84.5946C350.274 84.2687 350.01 83.0271 349.374 79.8457C348.8 76.9902 347.621 71.0464 346.845 70.8136C346.194 70.8136 344.348 74.0261 343.355 75.7642C341.772 78.4956 341.369 79.1163 340.872 79.0543C340.795 79.0387 340.577 78.9922 340.484 78.6818C340.345 78.1386 340.391 76.8505 340.438 75.3607C340.484 73.9329 340.577 71.3412 340.267 70.8446C339.678 71.2326 337.816 74.1657 336.435 76.3384C334.03 80.1096 332.991 81.6615 332.401 81.8167C332.246 81.8477 332.075 81.8167 331.951 81.708C331.501 81.3666 331.455 80.2182 331.393 78.0145C331.362 76.5867 331.284 73.6536 330.757 73.4363C330.012 73.8088 327.545 78.9922 325.73 82.7788C322.472 89.6228 320.827 92.8663 319.85 93.1146C319.679 93.1611 319.524 93.1301 319.385 93.037C318.609 92.4628 318.438 89.6383 318.236 85.0757C318.112 82.3909 317.926 78.3559 317.43 77.8903C316.313 78.3404 313.365 83.6169 311.767 86.8759C311.674 87.0466 311.472 87.1087 311.301 87.0311C311.131 86.9535 311.069 86.7362 311.146 86.5655C311.875 85.1067 315.568 77.7662 317.259 77.223C317.445 77.1609 317.631 77.192 317.787 77.3006C318.516 77.7972 318.686 80.1561 318.919 85.0446C319.043 87.9157 319.229 91.8265 319.741 92.4317C320.579 91.9817 323.201 86.5034 325.109 82.484C328.786 74.8175 329.966 72.5983 330.834 72.7535C331.874 72.9242 331.998 74.8486 332.075 77.9989C332.107 79.1318 332.138 80.6527 332.324 81.0873C332.882 80.6372 334.589 77.9524 335.861 75.9659C338.685 71.512 339.662 70.1152 340.298 70.1152C340.453 70.1152 340.609 70.1928 340.733 70.317C341.245 70.8446 341.214 72.5828 341.121 75.3762C341.089 76.4315 341.043 77.5179 341.089 78.1386C341.493 77.611 342.176 76.416 342.75 75.4228C344.596 72.2258 345.868 70.1152 346.845 70.1152C347.947 70.1152 348.692 72.9552 350.041 79.7061C350.414 81.5218 350.817 83.5703 351.034 84.0669C351.345 83.8652 351.965 82.9961 352.4 82.3909C353.486 80.8855 354.51 79.4578 355.425 79.8457C356.015 80.094 356.558 81.5063 357.737 84.8894C358.683 87.6053 360.452 92.6645 361.445 92.4162C362.391 92.199 363.322 90.5074 364.067 89.1417C364.904 87.6519 365.401 86.7983 366.037 86.7362C366.208 86.7052 366.456 86.7517 366.704 87.0156C367.34 87.7605 369.295 90.0108 369.776 89.8711C369.978 89.6693 370.955 87.8381 371.886 86.0689C374.337 81.4908 376.292 77.9214 377.192 77.2696C377.363 77.1454 377.564 77.1144 377.75 77.192C378.588 77.5334 379.24 80.2492 380.466 86.6431C380.931 89.002 381.489 91.8886 381.831 92.618C382.56 91.873 384.468 87.5432 385.896 84.3152C387.354 81.0097 388.735 77.8748 389.511 76.8195C389.836 76.3694 390.162 76.3539 390.395 76.416C392.195 76.8816 393.529 87.2018 393.901 90.3522C393.917 90.5384 393.777 90.7091 393.591 90.7402C393.42 90.7557 393.234 90.616 393.219 90.4298C392.381 83.2599 391 77.1299 390.209 77.0678C390.209 77.0678 390.162 77.0833 390.054 77.223C389.34 78.2162 387.897 81.4597 386.516 84.5946C383.879 90.5694 382.653 93.1922 381.877 93.3784C381.846 93.3888 381.81 93.3939 381.769 93.3939Z" fill="#00A82D"/>
<path d="M155.066 237.815C155.066 237.815 216.985 237.815 237.464 246.599C257.944 255.383 262.831 283.69 262.831 283.69L160.528 283.659L155.066 237.815Z" fill="#3335CF"/>
<path d="M182.373 70.3633C182.916 74.0568 181.209 77.3779 178.572 77.7504C175.934 78.1383 173.374 75.438 172.847 71.729C172.304 68.0199 174.01 64.7143 176.648 64.3263C179.285 63.9539 181.845 66.6542 182.373 70.3633Z" fill="white"/>
<path fill-rule="evenodd" clip-rule="evenodd" d="M178.076 78.1387C176.866 78.1387 175.687 77.5645 174.679 76.5092C173.546 75.3142 172.77 73.6382 172.507 71.7759C171.948 67.8961 173.779 64.4043 176.602 63.9853C177.983 63.799 179.38 64.3577 180.543 65.5837C181.676 66.7632 182.451 68.4393 182.715 70.3016C182.994 72.1638 182.715 73.9951 181.97 75.4539C181.195 76.9593 180.016 77.8904 178.619 78.0922C178.443 78.1232 178.262 78.1387 178.076 78.1387ZM177.145 64.6371C176.99 64.6371 176.84 64.6474 176.695 64.6681C174.244 65.0251 172.677 68.1599 173.174 71.6828C173.422 73.4054 174.136 74.9573 175.175 76.0436C176.168 77.0989 177.363 77.58 178.526 77.4093C179.69 77.2541 180.698 76.4471 181.365 75.1435C182.048 73.8089 182.296 72.1328 182.048 70.4102C181.8 68.6876 181.086 67.1356 180.047 66.0493C179.178 65.1337 178.154 64.6371 177.145 64.6371Z" fill="#171717"/>
<path d="M119.852 109.984C125.452 112.513 145.435 109.378 150.586 112.311L163.044 98.3132C165.651 98.3132 168.211 97.6769 170.569 96.0785C182.763 87.8068 174.184 60.7414 174.184 60.7414C162.594 51.7248 134.296 87.1084 134.296 87.1084C134.296 87.1084 136.545 89.2966 140.005 91.7486L119.852 109.984Z" fill="white"/>
<path fill-rule="evenodd" clip-rule="evenodd" d="M150.586 112.653C150.534 112.653 150.477 112.638 150.415 112.607C147.824 111.132 141.168 111.241 134.714 111.35C128.431 111.458 122.489 111.551 119.712 110.294C119.603 110.248 119.541 110.155 119.525 110.046C119.494 109.922 119.541 109.813 119.618 109.736L139.462 91.78C136.219 89.4521 134.078 87.3725 134.063 87.357C133.923 87.2329 133.923 87.0311 134.032 86.8914C135.195 85.4326 162.671 51.3526 174.4 60.4779C174.452 60.5193 174.488 60.5762 174.509 60.6486C174.54 60.7107 176.681 67.5391 177.286 75.2831C178.109 85.6189 175.859 92.9129 170.77 96.3581C168.552 97.8635 166.007 98.6394 163.199 98.6549L150.849 112.545C150.772 112.622 150.679 112.653 150.586 112.653ZM139.679 110.605C144.24 110.605 148.383 110.822 150.508 111.893L162.78 98.0962C162.858 98.0187 162.935 97.9721 163.044 97.9721C165.79 97.9721 168.257 97.2427 170.382 95.7994C181.848 88.0243 174.447 62.7747 173.889 60.959C163.152 52.858 137.29 83.9738 134.761 87.0777C135.412 87.6829 137.429 89.4987 140.206 91.4696C140.284 91.5317 140.33 91.6248 140.346 91.7179C140.346 91.8265 140.315 91.9352 140.237 91.9972L120.487 109.875C123.342 110.853 129.113 110.76 134.699 110.667C136.374 110.636 138.05 110.605 139.679 110.605Z" fill="#171717"/>
<path d="M170.301 78.1391C170.208 78.1391 170.1 78.0926 170.038 77.9995C169.913 77.8598 169.944 77.6425 170.1 77.5184L181.767 68.4086C181.922 68.2845 182.123 68.3155 182.248 68.4707C182.356 68.6104 182.341 68.8277 182.185 68.9518L170.518 78.0615C170.456 78.1081 170.379 78.1391 170.301 78.1391Z" fill="#171717"/>
<path d="M150.772 100.3C152.757 99.1674 156.078 96.0171 162.702 89.7163C164.192 88.304 164.967 87.6057 165.309 87.1867C168.722 82.7482 170.553 78.558 172.399 73.2815C173.175 71.1089 174.152 68.1913 174.586 65.7858C175.238 66.0186 175.579 66.6704 175.781 67.1204C175.797 67.3067 176.091 68.1913 176.122 68.3775C177.286 68.1913 178.372 67.3222 179.287 66.5307C182.887 63.3338 185.214 58.8332 185.943 54.0844C186.672 49.2579 185.617 44.3539 182.918 40.2724C180.311 36.3305 176.34 33.3043 171.902 31.7368C169.668 30.9609 167.295 30.5419 164.905 30.5729C163.587 30.5884 162.252 30.7436 161.042 31.3178C159.196 32.1869 157.815 32.8232 157.458 33.056C153.828 35.3838 147.42 36.2219 143.216 37.5875C142.223 37.8979 133.55 40.831 128.57 48.5751C123.714 56.1019 124.723 64.5287 124.986 66.7014C126.057 75.656 130.525 78.0149 131.875 88.3972C132.48 92.9753 132.17 96.7775 131.859 99.1054C143.123 103.87 148.77 101.433 150.772 100.3Z" fill="#171717"/>
<path d="M171.14 78.8374C171.14 78.8374 167.929 73.9023 163.274 75.2525C158.62 76.6182 161.071 86.5814 166.408 88.0868C171.745 89.6077 171.14 78.8374 171.14 78.8374Z" fill="white"/>
<path d="M166.411 88.4278C166.38 88.4278 166.349 88.4227 166.318 88.4123C162.842 87.4346 160.484 82.9651 160.469 79.4268C160.469 77.0678 161.446 75.4383 163.184 74.9262C168.024 73.514 171.407 78.6042 171.438 78.6508C171.546 78.8215 171.5 79.0233 171.344 79.1319C171.174 79.225 170.972 79.194 170.864 79.0233C170.833 78.9767 167.73 74.321 163.37 75.5935C161.958 75.997 161.151 77.3937 161.151 79.4268C161.167 82.7168 163.323 86.8604 166.504 87.7605C166.69 87.8071 166.799 87.9933 166.737 88.1795C166.706 88.3347 166.566 88.4278 166.411 88.4278Z" fill="#171717"/>
<path d="M169.033 82.8257C168.893 82.8257 168.754 82.7326 168.707 82.5929C168.257 81.3204 167.637 80.4513 166.83 79.9857C165.992 79.4891 164.689 79.5202 164.084 80.3427C163.975 80.4823 163.758 80.5289 163.603 80.4047C163.448 80.2961 163.417 80.0788 163.525 79.9237C164.379 78.7908 166.085 78.7597 167.171 79.3805C168.118 79.9392 168.847 80.9324 169.359 82.3602C169.421 82.5464 169.328 82.7481 169.142 82.8102C169.1 82.8206 169.064 82.8257 169.033 82.8257Z" fill="#171717"/>
<path d="M222.121 142.186C222.121 142.186 248.124 98.6702 258.487 94.2783C268.851 89.9019 265.05 101.634 259.822 109.58C259.822 109.58 265.128 109.208 265.779 113.755C265.779 113.755 270.558 114.174 271.194 117.216C271.194 117.216 278.082 120.226 274.591 125.192C272.466 128.203 269.704 125.177 269.704 125.177L251.614 167.078C251.614 167.078 226.698 154.353 222.121 142.186Z" fill="white"/>
<path d="M252.297 165.821C252.256 165.821 252.214 165.811 252.173 165.79C251.987 165.713 251.909 165.511 251.987 165.34L269.394 125.037C269.441 124.929 269.534 124.851 269.643 124.835C269.767 124.82 269.875 124.851 269.953 124.944C269.968 124.96 271.178 126.263 272.513 126.186C273.18 126.139 273.785 125.736 274.312 124.991C275.15 123.796 275.429 122.616 275.104 121.499C274.421 119.016 271.101 117.541 271.054 117.526C270.961 117.479 270.884 117.386 270.868 117.278C270.279 114.531 265.795 114.096 265.748 114.096C265.593 114.081 265.454 113.972 265.438 113.801C264.848 109.611 260.039 109.906 259.837 109.922C259.713 109.937 259.589 109.86 259.511 109.751C259.449 109.642 259.449 109.503 259.527 109.394C263.235 103.776 265.95 96.6217 264.088 94.4025C263.018 93.0989 260.52 93.7972 258.627 94.6042C250.094 98.2047 230.592 128.777 223.797 140.261C223.704 140.417 223.487 140.479 223.331 140.37C223.161 140.277 223.114 140.075 223.207 139.905C223.456 139.486 247.876 98.4064 258.348 93.9679C261.435 92.6643 263.545 92.6643 264.616 93.9524C266.943 96.7614 263.499 104.428 260.442 109.239C261.916 109.316 265.407 109.86 266.074 113.444C267.114 113.584 270.775 114.267 271.489 116.967C272.202 117.309 275.073 118.814 275.771 121.313C276.143 122.647 275.833 124.013 274.871 125.379C274.219 126.31 273.444 126.806 272.544 126.868C271.38 126.931 270.356 126.217 269.829 125.751L252.623 165.62C252.561 165.744 252.437 165.821 252.297 165.821Z" fill="#171717"/>
<path d="M251.104 118.054C251.042 118.054 250.985 118.039 250.933 118.008C250.762 117.914 250.716 117.697 250.809 117.526C252.702 114.252 255.448 111.567 258.783 109.767C258.954 109.674 259.156 109.736 259.249 109.907C259.342 110.077 259.28 110.279 259.109 110.372C255.929 112.079 253.198 114.749 251.398 117.868C251.336 117.992 251.228 118.054 251.104 118.054Z" fill="#171717"/>
<path d="M257.34 121.546C257.289 121.546 257.242 121.535 257.201 121.515C257.03 121.437 256.953 121.235 257.03 121.065C258.535 117.821 261.142 115.198 264.353 113.662C264.524 113.569 264.725 113.646 264.818 113.817C264.896 113.988 264.818 114.19 264.648 114.267C261.622 115.726 259.078 118.302 257.651 121.344C257.589 121.468 257.465 121.546 257.34 121.546Z" fill="#171717"/>
<path d="M261.993 125.038C261.952 125.038 261.916 125.032 261.885 125.022C261.699 124.96 261.606 124.758 261.668 124.588C262.971 120.925 266.074 117.945 269.766 116.781C269.952 116.735 270.139 116.828 270.201 117.014C270.263 117.185 270.154 117.387 269.983 117.433C266.477 118.535 263.545 121.36 262.319 124.82C262.273 124.96 262.133 125.038 261.993 125.038Z" fill="#171717"/>
<path d="M46.576 246.382C30.7511 226.005 52.6577 185.004 82.7405 123.284C84.4471 119.777 86.2158 116.192 88.9929 113.445C95.4004 107.129 117.323 108.603 126.306 108.991C149.608 110 154.232 107.811 163.432 111.676C167.466 113.367 171.251 115.571 179.164 121.965C188.116 129.212 200.248 140.122 213.342 155.626C216.735 150.442 220.122 145.259 223.505 140.076C234.851 144.524 246.197 148.968 257.544 153.407C256.178 157.566 254.022 163.308 250.671 169.764C242.851 184.833 235.839 198.319 223.52 201.826C206.051 206.823 186.037 189.395 175.921 180.596C172.601 177.71 170.041 175.102 168.304 173.24C160.722 196.767 153.141 220.294 145.559 243.821C102.615 260.085 60.5546 264.384 46.576 246.382Z" fill="#FFA121"/>
<path d="M167.93 172.821C167.899 172.821 167.868 172.816 167.837 172.805C167.651 172.759 167.542 172.572 167.589 172.386C168.38 169.267 169.358 166.163 170.506 163.152C170.568 162.982 170.769 162.889 170.94 162.966C171.111 163.028 171.204 163.23 171.142 163.401C169.994 166.38 169.032 169.453 168.256 172.557C168.209 172.712 168.07 172.821 167.93 172.821Z" fill="#171717"/>
<path d="M219.778 164.612C219.654 164.612 219.545 164.55 219.483 164.441C217.932 161.865 216.07 159.475 213.914 157.364C213.774 157.24 213.774 157.023 213.914 156.883C214.038 156.743 214.255 156.743 214.395 156.883C216.582 159.025 218.49 161.461 220.073 164.099C220.166 164.255 220.104 164.472 219.949 164.565C219.887 164.596 219.83 164.612 219.778 164.612Z" fill="#171717"/>
<path d="M134.001 122.973L30.9686 122.337C23.7232 122.306 17.8277 129.336 17.7656 138.058L31.5736 283.689L160.531 283.658L147.002 138.834C147.049 130.112 141.231 123.02 134.001 122.973Z" fill="white"/>
<path d="M31.5751 283.969C31.4044 283.969 31.2493 283.83 31.2338 283.659L17.4258 138.089C17.4258 138.079 17.4258 138.069 17.4258 138.058C17.4878 129.181 23.523 121.996 30.8925 121.996C30.9235 121.996 30.9493 121.996 30.97 121.996L82.3079 122.306C82.494 122.322 82.6492 122.462 82.6492 122.663C82.6492 122.85 82.494 123.005 82.3079 123.005L30.97 122.679C30.939 122.679 30.9131 122.679 30.8925 122.679C23.8954 122.679 18.1705 129.554 18.1084 138.043L31.9164 283.581C31.9319 283.783 31.7923 283.938 31.6061 283.954C31.5958 283.964 31.5854 283.969 31.5751 283.969Z" fill="#171717"/>
<path d="M156.22 237.846C156.049 237.846 155.909 237.721 155.878 237.535L153.876 216.103C153.861 215.902 154 215.746 154.187 215.731C154.373 215.715 154.544 215.839 154.559 216.026L156.561 237.473C156.592 237.659 156.452 237.83 156.251 237.846C156.24 237.846 156.23 237.846 156.22 237.846Z" fill="#171717"/>
<path d="M147.079 283.504C146.893 283.504 146.753 283.364 146.737 283.193L134.372 148.27C134.403 144.095 133.085 140.2 130.68 137.267C128.291 134.349 125.11 132.735 121.712 132.704L30.0366 132.161C29.8349 132.161 29.6953 132.006 29.6953 131.804C29.6953 131.618 29.8505 131.463 30.0366 131.463L121.712 132.022C125.327 132.053 128.694 133.76 131.207 136.833C133.721 139.89 135.086 143.94 135.055 148.239L147.405 283.116C147.436 283.318 147.296 283.473 147.11 283.488C147.1 283.499 147.089 283.504 147.079 283.504Z" fill="#171717"/>
<path d="M104.367 51.3842L98.0991 51.3997L107.098 66.4377L82.8482 51.4152L23.148 51.4773L23.0859 0.434908L104.305 0.341797L104.367 51.3842Z" fill="white"/>
<path fill-rule="evenodd" clip-rule="evenodd" d="M107.095 66.7788C107.033 66.7788 106.976 66.7581 106.924 66.7167L82.7527 51.7563L23.1456 51.8184C22.9594 51.8184 22.8042 51.6787 22.8042 51.4769L22.7422 0.434534C22.7422 0.341419 22.7732 0.263827 22.8353 0.186231C22.9128 0.124155 22.9904 0.0931157 23.0835 0.0931157L104.302 0C104.489 0 104.644 0.155193 104.644 0.341423L104.706 51.3838C104.706 51.4769 104.675 51.5701 104.597 51.6321C104.535 51.6942 104.458 51.7252 104.365 51.7252L98.6862 51.7408L107.39 66.2512C107.467 66.3908 107.452 66.5615 107.343 66.6702C107.266 66.7478 107.188 66.7788 107.095 66.7788ZM82.8458 51.0734C82.9078 51.0734 82.9699 51.089 83.0319 51.12L106.087 65.3976L97.8018 51.5701C97.7243 51.4614 97.7243 51.3373 97.7863 51.2286C97.8484 51.12 97.9725 51.0579 98.0811 51.0579L104.023 51.0424L103.961 0.682841L23.4248 0.775956L23.4869 51.1355L82.8458 51.0734Z" fill="#171717"/>
<path d="M28.0352 15.1777V41.4827H77.5888V15.1777H28.0352Z" fill="#D8E8DB"/>
<path d="M33.7006 38.2542C33.6075 38.2542 33.5144 38.2231 33.4524 38.1611C33.3127 38.0369 33.3127 37.8196 33.4524 37.68L53.0163 17.7534C53.1559 17.6293 53.3731 17.6293 53.5128 17.7534L60.5874 24.9698L79.1739 6.03647C79.3136 5.91232 79.5308 5.91232 79.6549 6.03647C79.7945 6.17615 79.7945 6.39341 79.6704 6.51757L60.8357 25.6837C60.696 25.8234 60.4633 25.8234 60.3392 25.6837L53.2645 18.4828L33.9333 38.1611C33.8713 38.2231 33.7782 38.2542 33.7006 38.2542Z" fill="#00A82D"/>
<path d="M79.8232 9.87038L79.1405 9.83934L79.2336 6.47169L75.867 6.62688L75.8359 5.94404L79.9318 5.75781L79.8232 9.87038Z" fill="#00A82D"/>
<path d="M92.3895 33.2576C92.3895 39.8377 87.068 45.1607 80.5053 45.1607C73.9426 45.1607 68.6211 39.8377 68.6211 33.2576C68.6211 26.6774 73.9426 21.3389 80.5053 21.3389C87.068 21.3389 92.3895 26.6774 92.3895 33.2576Z" fill="white"/>
<path fill-rule="evenodd" clip-rule="evenodd" d="M80.5068 45.5173C73.7734 45.5173 68.2812 40.008 68.2812 33.2572C68.2812 26.4908 73.7734 20.9971 80.5068 20.9971C87.2556 20.9971 92.7323 26.4908 92.7323 33.2572C92.7323 40.008 87.2556 45.5173 80.5068 45.5173ZM80.5068 21.6799C74.1458 21.6799 68.9639 26.8633 68.9639 33.2572C68.9639 39.6355 74.1458 44.8189 80.5068 44.8189C86.8833 44.8189 92.0496 39.6355 92.0496 33.2572C92.0496 26.8633 86.8833 21.6799 80.5068 21.6799Z" fill="#171717"/>
<path d="M95.4949 33.2576C95.4949 39.8377 90.1734 45.1607 83.6107 45.1607C77.0481 45.1607 71.7266 39.8377 71.7266 33.2576C71.7266 26.6774 77.0481 21.3389 83.6107 21.3389C90.1734 21.3389 95.4949 26.6774 95.4949 33.2576Z" fill="white"/>
<path fill-rule="evenodd" clip-rule="evenodd" d="M83.6083 45.5173C76.8595 45.5173 71.3828 40.008 71.3828 33.2572C71.3828 26.4908 76.8595 20.9971 83.6083 20.9971C90.3417 20.9971 95.8338 26.4908 95.8338 33.2572C95.8338 40.008 90.3417 45.5173 83.6083 45.5173ZM83.6083 21.6799C77.2473 21.6799 72.0654 26.8633 72.0654 33.2572C72.0654 39.6355 77.2473 44.8189 83.6083 44.8189C89.9693 44.8189 95.1512 39.6355 95.1512 33.2572C95.1512 26.8633 89.9693 21.6799 83.6083 21.6799Z" fill="#171717"/>
<path d="M98.8096 33.3817C98.8096 40.0394 93.4415 45.4401 86.8013 45.4401C80.1765 45.4401 74.793 40.0394 74.793 33.3817C74.793 26.724 80.1765 21.3389 86.8013 21.3389C93.4415 21.3389 98.8096 26.724 98.8096 33.3817Z" fill="#00A82D"/>
<path fill-rule="evenodd" clip-rule="evenodd" d="M86.8053 43.2049C81.4063 43.2049 77.0156 38.7975 77.0156 33.3813C77.0156 27.9652 81.4063 23.5732 86.8053 23.5732C92.2044 23.5732 96.5951 27.9652 96.5951 33.3813C96.5951 38.7975 92.2044 43.2049 86.8053 43.2049ZM86.8053 24.2561C81.7941 24.2561 77.7138 28.3531 77.7138 33.3813C77.7138 38.425 81.7941 42.5221 86.8053 42.5221C91.8321 42.5221 95.9124 38.425 95.9124 33.3813C95.9124 28.3531 91.8321 24.2561 86.8053 24.2561Z" fill="white"/>
<path d="M86.1834 40.8773V39.0305C85.1284 39.015 84.0423 38.6891 83.4062 38.2236L83.8407 37.0131C84.4923 37.4476 85.4387 37.789 86.4626 37.789C87.7503 37.789 88.6192 37.0441 88.6192 36.0043C88.6192 34.9956 87.921 34.3748 86.5712 33.8316C84.725 33.1022 83.5769 32.2642 83.5769 30.6813C83.5769 29.1604 84.6474 28.012 86.323 27.7481V25.9014H87.44V27.6705C88.5261 27.7016 89.2863 27.9965 89.7983 28.3068L89.3483 29.5173C88.976 29.3001 88.2313 28.8966 87.0677 28.8966C85.6559 28.8966 85.1284 29.7346 85.1284 30.464C85.1284 31.4107 85.811 31.8762 87.3935 32.5436C89.2553 33.304 90.2016 34.2507 90.2016 35.8802C90.2016 37.3234 89.2087 38.6736 87.3314 38.9685V40.8773H86.1834Z" fill="white"/>
</svg>
