<svg width="427" height="284" viewBox="0 0 427 284" fill="none" xmlns="http://www.w3.org/2000/svg">
<path d="M193.486 4.42188H38V145.247H193.486V4.42188Z" fill="white"/>
<path d="M193.485 145.59H37.9986C37.8094 145.59 37.6562 145.437 37.6562 145.247V4.42259C37.6562 4.23325 37.8094 4.08008 37.9986 4.08008H193.485C193.674 4.08008 193.827 4.23325 193.827 4.42259V145.247C193.827 145.437 193.674 145.59 193.485 145.59ZM38.3411 144.905H193.142V4.76509H38.3411V144.905Z" fill="#D8E8DB"/>
<path d="M193.485 52.5602H37.9986C37.8094 52.5602 37.6562 52.407 37.6562 52.2177C37.6562 52.0283 37.8094 51.875 37.9986 51.875H193.485C193.674 51.875 193.827 52.0282 193.827 52.2177C193.827 52.4068 193.674 52.5602 193.485 52.5602Z" fill="#D8E8DB"/>
<path d="M193.485 99.1892H37.9986C37.8094 99.1892 37.6562 99.0361 37.6562 98.8466C37.6562 98.6572 37.8094 98.5039 37.9986 98.5039H193.485C193.674 98.5039 193.827 98.6571 193.827 98.8466C193.827 99.0359 193.674 99.1892 193.485 99.1892Z" fill="#D8E8DB"/>
<path d="M142.167 145.59C141.977 145.59 141.824 145.437 141.824 145.247V4.42259C141.824 4.23325 141.977 4.08008 142.167 4.08008C142.356 4.08008 142.509 4.23325 142.509 4.42259V145.247C142.509 145.437 142.356 145.59 142.167 145.59Z" fill="#D8E8DB"/>
<path d="M87.6394 145.59C87.4501 145.59 87.2969 145.437 87.2969 145.247V4.42259C87.2969 4.23325 87.4501 4.08008 87.6394 4.08008C87.8287 4.08008 87.9819 4.23325 87.9819 4.42259V145.247C87.9819 145.437 87.8287 145.59 87.6394 145.59Z" fill="#D8E8DB"/>
<path d="M63.2867 0.00139714C60.6704 2.05551 57.0086 2.41322 55.8336 2.41322C54.9323 2.41322 51.0278 2.1643 48.3844 0.0043477C48.3841 0.00357175 48.3841 0.00217309 48.3838 0.00139714C48.3832 0.00186271 48.3829 0.0023276 48.3821 0.00263798C48.3815 0.00217241 48.3807 0.00186271 48.3804 0.00139714C48.3801 0.00217309 48.3801 0.00325917 48.3801 0.00403512C45.7641 2.05566 42.1052 2.41322 40.9306 2.41322C40.0294 2.41322 36.1242 2.1643 33.4808 0.00387883C33.4806 0.00279249 33.4804 0.000931147 33.4803 0C33.4795 0.000620765 33.4787 0.00108422 33.478 0.00170498L33.4775 0.00139714V0.00201756C30.8615 2.05427 27.2019 2.41182 26.0271 2.41182C25.1256 2.41182 21.2213 2.1629 18.5779 0.00295056C18.5777 0.00217461 18.5775 0.000775956 18.5774 0C18.5768 0.000465574 18.5763 0.000775274 18.5755 0.00124085C18.5751 0.000775274 18.5744 0.000465574 18.5738 0C18.5737 0.000775956 18.5737 0.00186203 18.5737 0.00263798C15.9577 2.05411 12.2988 2.41182 11.1242 2.41182C10.2224 2.41182 6.3145 2.1629 3.67108 0C3.63664 0.366096 3.58203 3.28478 3.58203 3.59935V170.218C3.58203 173.538 6.95875 176.229 11.1243 176.229C14.8915 176.229 18.0132 174.028 18.5758 171.151C19.1382 174.028 22.26 176.229 26.0272 176.229C29.7949 176.229 32.9169 174.027 33.4789 171.15C34.0401 174.028 37.1626 176.231 40.9307 176.231C44.6981 176.231 47.8196 174.029 48.3823 171.152C48.9448 174.029 55.8459 169.085 55.8459 169.085C55.8459 169.085 63.3761 169.617 63.3761 166.298V3.60075C63.3759 3.28602 63.345 0.302934 63.2867 0.00139714Z" fill="#D8E8DB"/>
<path d="M48.9011 155.944C48.7118 155.944 48.5586 155.791 48.5586 155.601V7.04173C48.5586 6.85239 48.7118 6.69922 48.9011 6.69922C49.0904 6.69922 49.2438 6.85239 49.2438 7.04173V155.601C49.2438 155.791 49.0906 155.944 48.9011 155.944Z" fill="white"/>
<path d="M33.8036 166.64C33.6143 166.64 33.4609 166.487 33.4609 166.298V20.4128C33.4609 20.2235 33.6141 20.0703 33.8036 20.0703C33.9929 20.0703 34.1463 20.2235 34.1463 20.4128V166.298C34.1463 166.487 33.9929 166.64 33.8036 166.64Z" fill="white"/>
<path d="M18.3699 166.64C18.1805 166.64 18.0273 166.487 18.0273 166.297V7.04173C18.0273 6.85239 18.1805 6.69922 18.3699 6.69922C18.5592 6.69922 18.7124 6.85239 18.7124 7.04173V166.298C18.7125 166.487 18.5593 166.64 18.3699 166.64Z" fill="white"/>
<path d="M224.333 0.00139714C221.717 2.05551 218.055 2.41322 216.88 2.41322C215.979 2.41322 212.075 2.1643 209.431 0.0043477C209.431 0.00357175 209.431 0.00217309 209.43 0.00139714C209.43 0.00186271 209.429 0.0023276 209.429 0.00263798C209.428 0.00217241 209.427 0.00186271 209.427 0.00139714C209.427 0.00217309 209.427 0.00325917 209.427 0.00403512C206.811 2.05566 203.152 2.41322 201.977 2.41322C201.076 2.41322 197.171 2.1643 194.527 0.00387883C194.527 0.00279249 194.527 0.000931147 194.527 0C194.526 0.000620765 194.525 0.00108422 194.525 0.00170498L194.524 0.00139714V0.00201756C191.908 2.05427 188.249 2.41182 187.074 2.41182C186.172 2.41182 182.268 2.1629 179.625 0.00295056C179.625 0.00217461 179.624 0.000775956 179.624 0C179.624 0.000465574 179.623 0.000775274 179.622 0.00124085C179.622 0.000775274 179.621 0.000465574 179.621 0C179.621 0.000775956 179.621 0.00186203 179.621 0.00263798C177.005 2.05411 173.346 2.41182 172.171 2.41182C171.269 2.41182 167.362 2.1629 164.718 0C164.684 0.366096 164.629 3.28478 164.629 3.59935V170.218C164.629 173.538 168.006 176.229 172.171 176.229C175.938 176.229 179.06 174.028 179.623 171.151C180.185 174.028 183.307 176.229 187.074 176.229C190.842 176.229 193.964 174.027 194.526 171.15C195.087 174.028 198.209 176.231 201.978 176.231C205.745 176.231 208.866 174.029 209.429 171.152C209.992 174.029 213.113 176.231 216.881 176.231C221.046 176.231 224.423 173.539 224.423 170.219V3.60075C224.422 3.28602 224.392 0.302934 224.333 0.00139714Z" fill="#D8E8DB"/>
<path d="M209.952 155.944C209.763 155.944 209.609 155.791 209.609 155.601V7.04173C209.609 6.85239 209.763 6.69922 209.952 6.69922C210.141 6.69922 210.295 6.85239 210.295 7.04173V155.601C210.295 155.791 210.142 155.944 209.952 155.944Z" fill="white"/>
<path d="M194.85 166.64C194.661 166.64 194.508 166.487 194.508 166.298V20.4128C194.508 20.2235 194.661 20.0703 194.85 20.0703C195.04 20.0703 195.193 20.2235 195.193 20.4128V166.298C195.193 166.487 195.04 166.64 194.85 166.64Z" fill="white"/>
<path d="M179.417 166.64C179.228 166.64 179.074 166.487 179.074 166.297V7.04173C179.074 6.85239 179.227 6.69922 179.417 6.69922C179.606 6.69922 179.76 6.85239 179.76 7.04173V166.298C179.76 166.487 179.606 166.64 179.417 166.64Z" fill="white"/>
<path d="M426.111 239.575L394.284 270.753L0.344214 246.336L0.34375 166.328L426.373 175.15L426.111 239.575Z" fill="white"/>
<path d="M426.372 175.609C426.369 175.609 426.367 175.609 426.365 175.609L0.335161 166.671C0.146213 166.666 -0.003954 166.51 7.93856e-05 166.321C0.00411277 166.132 0.157845 165.987 0.349586 165.985L426.379 174.924C426.568 174.928 426.718 175.085 426.714 175.274C426.71 175.461 426.557 175.609 426.372 175.609Z" fill="#171717"/>
<path d="M393.073 262.073C393.067 262.073 393.061 262.072 393.054 262.072L0.323509 240.512C0.13456 240.502 -0.00986615 240.34 0.000527579 240.151C0.0109213 239.962 0.176446 239.815 0.361051 239.828L392.94 261.38L425.869 228.858C426.003 228.726 426.22 228.727 426.353 228.862C426.486 228.996 426.484 229.213 426.35 229.346L393.314 261.974C393.249 262.037 393.163 262.073 393.073 262.073Z" fill="#171717"/>
<path d="M394.282 271.096C394.275 271.096 394.268 271.095 394.261 271.095L0.321334 246.678C0.132386 246.666 -0.0111124 246.504 0.000677475 246.315C0.0123122 246.126 0.181873 245.983 0.36353 245.994L394.151 270.402L425.87 239.33C426.005 239.198 426.222 239.2 426.354 239.335C426.486 239.471 426.485 239.687 426.349 239.82L394.522 270.998C394.457 271.061 394.371 271.096 394.282 271.096Z" fill="#171717"/>
<path d="M281.201 138.923L291.493 169.172C292.678 172.655 290.9 176.283 287.453 177.432L269.484 183.42L330.797 187.14C337.026 187.518 341.45 182.005 339.447 176.313L326.753 140.226L281.201 138.923Z" fill="white"/>
<path d="M331.383 187.5C331.181 187.5 330.979 187.494 330.775 187.482L269.462 183.762C269.298 183.752 269.165 183.627 269.144 183.465C269.122 183.302 269.219 183.147 269.375 183.095L287.343 177.106C288.912 176.584 290.17 175.5 290.887 174.055C291.615 172.587 291.714 170.892 291.167 169.282L280.875 139.033C280.814 138.855 280.91 138.66 281.089 138.599C281.268 138.537 281.462 138.634 281.523 138.813L291.815 169.062C292.422 170.845 292.31 172.727 291.5 174.36C290.701 175.97 289.302 177.176 287.56 177.757L271.271 183.185L330.816 186.798C333.723 186.971 336.438 185.785 338.074 183.615C339.625 181.56 340.007 178.94 339.123 176.427L326.428 140.339C326.365 140.161 326.459 139.965 326.638 139.903C326.816 139.841 327.012 139.934 327.074 140.112L339.769 176.199C340.73 178.933 340.312 181.787 338.621 184.028C336.962 186.228 334.288 187.5 331.383 187.5Z" fill="#171717"/>
<path d="M327.925 187.29C327.725 187.29 327.524 187.284 327.322 187.272C327.133 187.26 326.989 187.098 327.001 186.909C327.012 186.72 327.174 186.583 327.363 186.588C330.249 186.764 332.95 185.58 334.579 183.422C336.129 181.37 336.511 178.752 335.63 176.24L323 140.255C322.937 140.077 323.031 139.881 323.21 139.819C323.388 139.755 323.583 139.849 323.646 140.028L336.276 176.014C337.235 178.746 336.816 181.596 335.126 183.835C333.473 186.024 330.814 187.29 327.925 187.29Z" fill="#171717"/>
<path d="M404.602 142.966L211.676 136.497C208.049 136.376 205.421 133.361 205.793 129.761L216.004 30.913C216.381 27.2676 219.656 24.2117 223.335 24.0883L419.121 17.5239C423.727 17.3695 427.09 20.5734 426.612 24.679L413.682 135.915C413.211 139.962 409.137 143.118 404.602 142.966Z" fill="white"/>
<path d="M404.915 143.314C404.807 143.314 404.699 143.312 404.59 143.308L211.664 136.839C209.813 136.777 208.147 136.002 206.973 134.655C205.802 133.312 205.262 131.561 205.451 129.726L215.663 30.8775C216.056 27.0733 219.492 23.874 223.322 23.7459L419.108 17.1813C421.587 17.0979 423.841 17.9672 425.311 19.5642C426.593 20.9569 427.176 22.7877 426.952 24.718L414.021 135.954C413.542 140.07 409.493 143.314 404.915 143.314ZM404.613 142.623C408.992 142.774 412.891 139.742 413.34 135.875L426.271 24.639C426.472 22.9097 425.952 21.2721 424.807 20.0283C423.472 18.578 421.407 17.7881 419.131 17.8657L223.345 24.4302C219.844 24.5477 216.703 27.4714 216.344 30.9477L206.133 129.796C205.963 131.44 206.445 133.006 207.49 134.205C208.537 135.406 210.028 136.099 211.687 136.155L404.613 142.623Z" fill="#171717"/>
<path d="M403.699 133.346L214.18 127.967L224.067 32.728L415.961 27.2822L403.699 133.346Z" fill="white"/>
<path d="M403.701 133.688C403.698 133.688 403.695 133.688 403.692 133.688L214.173 128.31C214.077 128.307 213.988 128.265 213.925 128.193C213.862 128.122 213.832 128.027 213.842 127.932L223.728 32.6924C223.746 32.5214 223.888 32.3903 224.059 32.3853L415.953 26.9395C416.055 26.9378 416.148 26.9769 416.215 27.0506C416.283 27.1239 416.314 27.2226 416.303 27.3216L404.041 133.385C404.021 133.558 403.875 133.688 403.701 133.688ZM214.561 127.635L403.397 132.995L415.578 27.6357L224.379 33.0618L214.561 127.635Z" fill="#171717"/>
<path d="M396.251 123.756L297.27 121.447L302.45 73.8861L402.033 73.5127L396.251 123.756Z" fill="white"/>
<path d="M396.249 124.269C396.245 124.269 396.241 124.269 396.237 124.269L297.256 121.96C297.112 121.957 296.976 121.893 296.881 121.785C296.786 121.677 296.741 121.534 296.757 121.391L301.875 74.4011C301.904 74.1408 302.123 73.9438 302.384 73.9428L401.96 73.6016C401.961 73.6016 401.961 73.6016 401.962 73.6016C402.108 73.6016 402.247 73.6638 402.345 73.7729C402.442 73.8823 402.489 74.0285 402.472 74.1744L396.759 123.814C396.729 124.074 396.51 124.269 396.249 124.269ZM297.839 120.946L395.792 123.231L401.385 74.6314L302.847 74.9689L297.839 120.946Z" fill="#D8E8DB"/>
<path d="M393.066 118.01C393.062 118.01 393.059 118.01 393.055 118.01L302.632 116.202C302.349 116.197 302.123 115.962 302.129 115.678C302.135 115.398 302.363 115.175 302.642 115.175C302.646 115.175 302.649 115.175 302.653 115.175L393.076 116.982C393.359 116.988 393.585 117.223 393.579 117.506C393.573 117.786 393.344 118.01 393.066 118.01Z" fill="#D8E8DB"/>
<path d="M393.774 111.836C393.771 111.836 393.768 111.836 393.765 111.836L303.275 110.329C302.991 110.325 302.765 110.091 302.77 109.807C302.774 109.523 303.019 109.308 303.292 109.302L393.782 110.808C394.066 110.813 394.292 111.046 394.287 111.33C394.282 111.611 394.053 111.836 393.774 111.836Z" fill="#D8E8DB"/>
<path d="M394.481 105.657C394.479 105.657 394.477 105.657 394.475 105.657L303.917 104.452C303.633 104.449 303.406 104.216 303.41 103.932C303.414 103.648 303.642 103.427 303.931 103.425L394.488 104.63C394.772 104.633 394.999 104.866 394.995 105.15C394.991 105.432 394.762 105.657 394.481 105.657Z" fill="#D8E8DB"/>
<path d="M395.19 99.4735C395.188 99.4735 395.187 99.4735 395.185 99.4735L304.559 98.5706C304.276 98.5677 304.048 98.3354 304.051 98.0518C304.053 97.7699 304.283 97.543 304.564 97.543C304.566 97.543 304.568 97.543 304.569 97.543L395.195 98.4459C395.479 98.4488 395.706 98.6811 395.704 98.9648C395.701 99.2468 395.471 99.4735 395.19 99.4735Z" fill="#D8E8DB"/>
<path d="M395.902 93.2856C395.901 93.2856 395.899 93.2856 395.899 93.2856L305.206 92.6851C304.922 92.683 304.693 92.4515 304.695 92.1678C304.697 91.885 304.927 91.6572 305.209 91.6572C305.21 91.6572 305.211 91.6572 305.212 91.6572L395.905 92.2578C396.189 92.2598 396.417 92.4914 396.415 92.7751C396.414 93.058 396.184 93.2856 395.902 93.2856Z" fill="#D8E8DB"/>
<path d="M396.619 87.0429C396.618 87.0429 396.618 87.0429 396.617 87.0429L305.856 86.7474C305.572 86.7465 305.343 86.5155 305.344 86.2319C305.345 85.9485 305.575 85.7197 305.857 85.7197C305.858 85.7197 305.858 85.7197 305.859 85.7197L396.621 86.015C396.904 86.0161 397.134 86.2469 397.132 86.5306C397.132 86.8141 396.902 87.0429 396.619 87.0429Z" fill="#D8E8DB"/>
<path d="M306.502 80.8533C306.218 80.8533 305.988 80.6232 305.988 80.3395C305.988 80.0558 306.218 79.8257 306.502 79.8257L397.331 79.8184C397.615 79.8184 397.845 80.0485 397.845 80.3322C397.845 80.6159 397.615 80.846 397.331 80.846L306.502 80.8533Z" fill="#D8E8DB"/>
<path d="M309.46 119.866C309.441 119.866 309.422 119.865 309.403 119.863C309.121 119.832 308.918 119.579 308.948 119.296L313.62 76.6987C313.651 76.4168 313.904 76.2147 314.187 76.244C314.469 76.2752 314.672 76.5288 314.641 76.8111L309.97 119.409C309.941 119.672 309.718 119.866 309.46 119.866Z" fill="#D8E8DB"/>
<path d="M321.557 120.133C321.539 120.133 321.52 120.132 321.5 120.13C321.218 120.099 321.015 119.845 321.046 119.562L325.782 76.6732C325.813 76.3915 326.059 76.1878 326.349 76.219C326.631 76.2502 326.834 76.5041 326.803 76.7864L322.067 119.676C322.038 119.938 321.816 120.133 321.557 120.133Z" fill="#D8E8DB"/>
<path d="M333.819 120.402C333.8 120.402 333.781 120.401 333.762 120.399C333.48 120.368 333.277 120.114 333.308 119.832L338.109 76.6471C338.141 76.3651 338.394 76.1643 338.677 76.1932C338.958 76.2247 339.161 76.4789 339.13 76.7609L334.329 119.945C334.3 120.208 334.077 120.402 333.819 120.402Z" fill="#D8E8DB"/>
<path d="M346.253 120.676C346.233 120.676 346.214 120.675 346.195 120.672C345.913 120.641 345.71 120.386 345.742 120.105L350.61 76.6201C350.641 76.3381 350.894 76.1327 351.177 76.1668C351.459 76.1983 351.662 76.4525 351.63 76.7345L346.762 120.219C346.733 120.482 346.511 120.676 346.253 120.676Z" fill="#D8E8DB"/>
<path d="M358.862 120.953C358.843 120.953 358.823 120.952 358.804 120.95C358.522 120.918 358.319 120.664 358.351 120.382L363.287 76.5936C363.319 76.3113 363.576 76.1055 363.855 76.1406C364.137 76.1724 364.34 76.4266 364.308 76.7088L359.372 120.497C359.342 120.759 359.12 120.953 358.862 120.953Z" fill="#D8E8DB"/>
<path d="M370.8 121.188C370.78 121.188 370.761 121.187 370.741 121.185C370.459 121.153 370.256 120.898 370.289 120.616L375.29 76.5406C375.322 76.2586 375.574 76.0528 375.858 76.0879C376.14 76.1197 376.343 76.3742 376.311 76.6563L371.309 120.732C371.279 120.994 371.057 121.188 370.8 121.188Z" fill="#D8E8DB"/>
<path d="M383.753 121.472C383.733 121.472 383.714 121.471 383.694 121.469C383.412 121.436 383.21 121.181 383.242 120.9L388.314 76.5117C388.346 76.2297 388.598 76.0256 388.883 76.0593C389.165 76.0914 389.367 76.3464 389.335 76.6281L384.262 121.016C384.232 121.279 384.01 121.472 383.753 121.472Z" fill="#D8E8DB"/>
<path d="M340.074 96.3578C340.073 96.3578 340.072 96.3578 340.071 96.3578L308.343 96.0838C308.154 96.0821 308.002 95.9275 308.004 95.7382C308.006 95.5491 308.169 95.3912 308.349 95.3986L340.041 95.6722L362.712 91.0868L383.53 83.634L392.408 76.5921C392.556 76.474 392.771 76.4991 392.889 76.6476C393.006 76.7958 392.981 77.0112 392.833 77.1287L383.911 84.2057C383.882 84.2292 383.849 84.2472 383.814 84.2599L362.92 91.7401C362.905 91.7459 362.889 91.7502 362.873 91.7535L340.142 96.3509C340.12 96.3555 340.097 96.3578 340.074 96.3578Z" fill="#171717"/>
<path d="M342.284 96.0342C342.143 97.3022 340.936 98.3194 339.591 98.306C338.248 98.2927 337.275 97.2569 337.416 95.9923C337.557 94.7275 338.758 93.7099 340.102 93.7198C341.448 93.7296 342.426 94.7658 342.284 96.0342Z" fill="#00A82D"/>
<path d="M365.304 91.4333C365.159 92.718 363.921 93.7511 362.542 93.741C361.165 93.7309 360.166 92.6845 360.311 91.4032C360.455 90.1218 361.688 89.0882 363.066 89.0948C364.446 89.1014 365.449 90.1483 365.304 91.4333Z" fill="#00A82D"/>
<path d="M386.153 83.9429C386.005 85.2429 384.739 86.2929 383.328 86.2884C381.919 86.2839 380.898 85.2297 381.045 83.9332C381.193 82.6366 382.454 81.5861 383.864 81.5869C385.276 81.5878 386.302 82.6427 386.153 83.9429Z" fill="#00A82D"/>
<path d="M322.317 95.8572C322.179 97.1113 320.999 98.1171 319.684 98.104C318.37 98.091 317.419 97.0667 317.556 95.8161C317.694 94.5652 318.869 93.5588 320.183 93.5684C321.499 93.5782 322.456 94.6029 322.317 95.8572Z" fill="#00A82D"/>
<path d="M386.159 119.327C386.111 119.327 386.064 119.317 386.018 119.297L373.697 113.719L353.58 111.056C353.568 111.054 353.557 111.052 353.546 111.05L332.086 105.979L312.383 100.346L306.843 99.1151C306.658 99.0739 306.542 98.891 306.582 98.7063C306.624 98.5216 306.807 98.4072 306.991 98.446L312.551 99.6823L332.259 105.316L353.686 110.379L373.836 113.047C373.87 113.051 373.902 113.06 373.933 113.074L386.3 118.673C386.472 118.75 386.549 118.954 386.471 119.126C386.414 119.252 386.289 119.327 386.159 119.327Z" fill="#171717"/>
<path d="M351.385 110.68C351.242 111.953 352.23 113.005 353.594 113.029C354.96 113.054 356.185 112.039 356.329 110.762C356.473 109.485 355.48 108.433 354.113 108.411C352.748 108.391 351.528 109.406 351.385 110.68Z" fill="white"/>
<path d="M353.645 113.372C353.627 113.372 353.609 113.372 353.591 113.372C352.816 113.358 352.098 113.039 351.622 112.496C351.174 111.986 350.97 111.327 351.047 110.641C351.207 109.214 352.56 108.068 354.075 108.068C354.09 108.068 354.105 108.068 354.121 108.069C354.898 108.081 355.618 108.399 356.096 108.943C356.545 109.453 356.749 110.113 356.672 110.8C356.512 112.229 355.159 113.372 353.645 113.372ZM354.074 108.754C352.899 108.754 351.85 109.628 351.728 110.717C351.672 111.209 351.818 111.68 352.136 112.044C352.491 112.448 353.012 112.676 353.603 112.686C353.617 112.687 353.631 112.687 353.645 112.687C354.821 112.687 355.869 111.814 355.991 110.724C356.047 110.23 355.901 109.759 355.582 109.395C355.226 108.991 354.703 108.763 354.11 108.754C354.098 108.754 354.086 108.754 354.074 108.754Z" fill="#171717"/>
<path d="M329.756 105.612C329.616 106.87 330.581 107.907 331.913 107.928C333.246 107.948 334.442 106.942 334.582 105.68C334.723 104.418 333.753 103.381 332.419 103.363C331.087 103.346 329.895 104.353 329.756 105.612Z" fill="white"/>
<path d="M331.955 108.271C331.94 108.271 331.925 108.271 331.91 108.27C331.146 108.259 330.464 107.956 329.991 107.419C329.546 106.914 329.342 106.259 329.418 105.574C329.575 104.159 330.904 103.021 332.39 103.021C332.402 103.021 332.414 103.021 332.426 103.021C333.193 103.031 333.876 103.332 334.351 103.87C334.798 104.375 335.002 105.031 334.925 105.718C334.768 107.134 333.44 108.271 331.955 108.271ZM332.389 103.706C331.242 103.706 330.218 104.572 330.099 105.65C330.044 106.14 330.189 106.608 330.505 106.966C330.849 107.357 331.352 107.576 331.921 107.585C331.932 107.585 331.944 107.585 331.956 107.585C333.102 107.585 334.125 106.72 334.245 105.642C334.299 105.151 334.155 104.682 333.838 104.323C333.493 103.932 332.988 103.713 332.418 103.706C332.408 103.706 332.398 103.706 332.389 103.706Z" fill="#171717"/>
<path d="M311.47 100.226C311.333 101.472 312.279 102.495 313.583 102.511C314.89 102.527 316.061 101.528 316.199 100.278C316.336 99.0288 315.386 98.0052 314.079 97.9923C312.774 97.9796 311.607 98.9795 311.47 100.226Z" fill="white"/>
<path d="M313.613 102.855C313.602 102.855 313.59 102.854 313.578 102.854C312.832 102.845 312.165 102.551 311.7 102.025C311.257 101.525 311.054 100.872 311.129 100.189C311.283 98.7839 312.592 97.6504 314.054 97.6504C314.063 97.6504 314.072 97.6504 314.081 97.6504C314.83 97.6577 315.499 97.9518 315.966 98.478C316.41 98.9788 316.613 99.6319 316.538 100.316C316.383 101.723 315.076 102.855 313.613 102.855ZM311.809 100.264C311.756 100.753 311.899 101.217 312.212 101.571C312.548 101.95 313.036 102.162 313.587 102.169C313.596 102.169 313.605 102.169 313.614 102.169C314.737 102.169 315.74 101.31 315.857 100.241C315.911 99.7517 315.768 99.287 315.453 98.9327C315.117 98.553 314.627 98.3408 314.075 98.3356C314.068 98.3356 314.06 98.3356 314.053 98.3356C312.931 98.3356 311.926 99.1964 311.809 100.264Z" fill="#171717"/>
<path d="M371.272 113.341C371.126 114.628 372.136 115.693 373.53 115.72C374.926 115.747 376.179 114.723 376.326 113.432C376.472 112.141 375.457 111.075 374.06 111.052C372.666 111.029 371.418 112.054 371.272 113.341Z" fill="white"/>
<path d="M373.581 116.063C373.562 116.063 373.542 116.063 373.522 116.062C372.727 116.047 371.993 115.72 371.507 115.166C371.057 114.652 370.852 113.99 370.93 113.302C371.095 111.847 372.499 110.689 374.065 110.709C374.862 110.723 375.599 111.049 376.086 111.604C376.537 112.118 376.743 112.781 376.664 113.47C376.5 114.911 375.124 116.063 373.581 116.063ZM374.012 111.394C372.809 111.394 371.736 112.277 371.611 113.379C371.611 113.379 371.611 113.379 371.611 113.379C371.555 113.873 371.701 114.347 372.022 114.714C372.381 115.124 372.932 115.366 373.535 115.377C374.745 115.402 375.857 114.51 375.984 113.392C376.04 112.898 375.894 112.423 375.571 112.056C375.211 111.646 374.658 111.404 374.053 111.394C374.04 111.394 374.026 111.394 374.012 111.394Z" fill="#171717"/>
<path d="M313.984 68.125L311.198 68.1648C309.98 68.1821 309.033 67.9719 309.067 67.6916L311.005 51.6637C311.04 51.3756 312.095 51.1137 313.349 51.0826L316.109 51.0138C317.34 50.9832 318.301 51.1851 318.268 51.4679C317.968 53.979 316.651 65.0142 316.346 67.5646C316.312 67.8544 315.245 68.107 313.984 68.125Z" fill="#00A82D"/>
<path d="M315.935 51.7738L313.142 51.8441C311.921 51.8748 310.963 51.7547 310.985 51.5739L312.247 41.2322C312.269 41.0463 313.316 40.861 314.572 40.8208L317.336 40.7324C318.569 40.693 319.542 40.8073 319.52 40.9897C319.327 42.6093 318.477 49.7293 318.28 51.3752C318.258 51.5622 317.199 51.7419 315.935 51.7738Z" fill="#D8E8DB"/>
<path d="M311.846 75.8271L310.93 75.8406L313.728 52.3391L314.647 52.3135L311.846 75.8271Z" fill="#00A82D"/>
<path d="M315.372 46.6122L314.453 46.6358L316.09 33.7521L317.01 33.7217L315.372 46.6122Z" fill="#D8E8DB"/>
<path d="M305.485 57.4867L302.724 57.5578C301.516 57.5888 300.574 57.4234 300.602 57.1855L301.77 47.2987C301.799 47.0541 302.839 46.8205 304.081 46.78L306.814 46.6907C308.033 46.6508 308.989 46.8111 308.961 47.0509C308.736 48.9929 308.045 55.0067 307.816 56.9801C307.787 57.2261 306.735 57.4546 305.485 57.4867Z" fill="#00A82D"/>
<path d="M304.464 66.0241L301.707 66.072C300.501 66.093 299.526 65.9691 299.547 65.7975L300.583 57.3037C300.605 57.1274 301.665 56.9625 302.905 56.9338L305.633 56.8704C306.85 56.8422 307.81 56.9583 307.79 57.1313C307.623 58.5322 306.946 64.2377 306.777 65.6614C306.756 65.8388 305.712 66.0024 304.464 66.0241Z" fill="#D8E8DB"/>
<path d="M305.066 52.3738L304.156 52.3993L305.359 42.2553L306.27 42.2246L305.066 52.3738Z" fill="#00A82D"/>
<path d="M302.743 73.4068L301.836 73.4215L303.22 61.7386L304.128 61.7178L302.743 73.4068Z" fill="#D8E8DB"/>
<path d="M294.273 71.4132L291.549 71.4417C290.357 71.4542 289.443 71.15 289.49 70.7572L291.279 55.8053C291.327 55.4015 292.37 55.0492 293.596 55.023L296.295 54.9654C297.498 54.9398 298.427 55.2368 298.38 55.633C298.061 58.3341 296.931 67.9083 296.607 70.6503C296.559 71.0566 295.505 71.4003 294.273 71.4132Z" fill="#D8E8DB"/>
<path d="M294.126 72.6451L291.403 72.6785C290.211 72.6931 289.283 72.503 289.313 72.2508L290.473 62.6521C290.504 62.3929 291.532 62.1614 292.757 62.1378L295.454 62.0859C296.657 62.0628 297.598 62.2481 297.568 62.5023C297.363 64.2358 296.638 70.3821 296.43 72.1428C296.399 72.4037 295.359 72.6301 294.126 72.6451Z" fill="#00A82D"/>
<path d="M294.539 60.7734L293.641 60.7945L294.842 50.5947L295.742 50.5684L294.539 60.7734Z" fill="#D8E8DB"/>
<path d="M292.537 79.0231L291.641 79.0347L293.009 67.4239L293.907 67.4062L292.537 79.0231Z" fill="#00A82D"/>
<path d="M273.776 83.5265L271.118 83.5285C269.954 83.5293 269.076 83.0932 269.14 82.5473L270.097 74.2804C270.163 73.7195 271.196 73.2515 272.392 73.2411L275.026 73.218C276.2 73.2076 277.091 73.6405 277.027 74.1908C276.665 77.2891 276.459 79.3502 276.091 82.4973C276.025 83.0617 274.98 83.5258 273.776 83.5265Z" fill="#00A82D"/>
<path d="M274.701 75.4049L272.039 75.4221C270.874 75.4297 270.015 74.8117 270.104 74.0319L272.384 54.3589C272.476 53.5566 273.533 52.8773 274.732 52.8503L277.374 52.7909C278.551 52.7643 279.425 53.3742 279.335 54.1614C278.83 58.5932 277.578 69.4269 277.065 73.9226C276.973 74.7289 275.906 75.397 274.701 75.4049Z" fill="#D8E8DB"/>
<path d="M271.829 89.4848L270.953 89.4911L272.124 79.443L273.001 79.4316L271.829 89.4848Z" fill="#00A82D"/>
<path d="M275.84 59.6208L274.961 59.647L276.829 43.2132L277.711 43.1787L275.84 59.6208Z" fill="#D8E8DB"/>
<path d="M282.617 52.1472L282.753 50.7843L283.562 43.9596C283.619 43.4756 284.661 43.0521 285.876 43.019L288.551 42.9464C289.743 42.914 290.656 43.2681 290.6 43.7428C290.448 45.0385 289.648 51.9584 289.648 51.9584L282.617 52.1472Z" fill="#00A82D"/>
<path d="M285.919 64.6987L283.222 64.7403C282.041 64.7584 281.13 64.5078 281.169 64.1762L282.62 52.1473C282.66 51.8063 283.687 51.5029 284.901 51.4735L287.573 51.4086C288.765 51.3796 289.69 51.6241 289.651 51.9586C289.373 54.3287 288.502 61.631 288.219 64.0396C288.179 64.3824 287.141 64.6798 285.919 64.6987Z" fill="#D8E8DB"/>
<path d="M286.934 47.7078L286.043 47.7354L287.234 37.571L288.126 37.5381L286.934 47.7078Z" fill="#00A82D"/>
<path d="M284.13 72.8988L283.242 72.9135L284.597 61.3536L285.486 61.333L284.13 72.8988Z" fill="#D8E8DB"/>
<path d="M265.985 70.0512L263.35 70.0737C262.197 70.0837 261.326 69.6563 261.39 69.1123L263.626 50.04C263.692 49.4802 264.717 48.9996 265.904 48.9722L268.517 48.9123C269.683 48.8857 270.567 49.3037 270.503 49.8528C270.092 53.3936 268.696 65.4129 268.279 69.0077C268.214 69.5703 267.178 70.041 265.985 70.0512Z" fill="#D8E8DB"/>
<path d="M265.439 74.762L262.804 74.789C261.651 74.8008 260.758 74.5692 260.794 74.268L262.045 63.7128C262.081 63.4032 263.081 63.132 264.267 63.1104L266.877 63.0629C268.04 63.0418 268.946 63.2677 268.911 63.5715C268.683 65.5301 267.911 72.1818 267.679 74.1723C267.643 74.4837 266.632 74.7497 265.439 74.762Z" fill="#00A82D"/>
<path d="M266.788 55.5391L265.918 55.5625L267.082 45.5207L267.953 45.4922L266.788 55.5391Z" fill="#D8E8DB"/>
<path d="M263.797 81.3627L262.93 81.3731L264.253 69.9546L265.122 69.9385L263.797 81.3627Z" fill="#00A82D"/>
<path d="M257.292 64.9656L254.683 65.0054C253.541 65.0227 252.66 64.7626 252.701 64.42L253.827 54.876C253.869 54.524 254.863 54.2138 256.037 54.187L258.622 54.1278C259.774 54.1015 260.668 54.3571 260.628 54.7024C260.408 56.6083 259.744 62.3527 259.521 64.2879C259.48 64.6422 258.474 64.9476 257.292 64.9656Z" fill="#D8E8DB"/>
<path d="M256.444 72.3309L253.837 72.3595C252.696 72.372 251.816 72.1081 251.857 71.7659L252.982 62.2315C253.024 61.88 254.017 61.5742 255.19 61.5523L257.773 61.5042C258.924 61.4827 259.816 61.7421 259.776 62.0871C259.556 63.9911 258.893 69.7298 258.67 71.6631C258.629 72.017 257.624 72.3179 256.444 72.3309Z" fill="#00A82D"/>
<path d="M256.962 60.3096L256.102 60.3306L257.252 50.349L258.114 50.3232L256.962 60.3096Z" fill="#D8E8DB"/>
<path d="M254.702 78.6414L253.844 78.6531L255.153 67.2928L256.013 67.2754L254.702 78.6414Z" fill="#00A82D"/>
<path d="M247.279 72.194L244.702 72.2131C243.573 72.2215 242.721 71.7972 242.785 71.2588L243.682 63.6385C243.747 63.0862 244.748 62.6193 245.907 62.6018L248.463 62.563C249.601 62.5458 250.465 62.9662 250.403 63.5084C250.192 65.3462 249.737 69.3002 249.523 71.1651C249.459 71.7215 248.446 72.1855 247.279 72.194Z" fill="#D8E8DB"/>
<path d="M247.876 66.9963L245.297 67.0232C244.167 67.035 243.315 66.6131 243.378 66.0743L244.277 58.4485C244.342 57.8957 245.344 57.4258 246.503 57.4047L249.06 57.3582C250.2 57.3374 251.064 57.7555 251.002 58.298C250.791 60.137 250.336 64.0938 250.122 65.9601C250.057 66.5169 249.044 66.984 247.876 66.9963Z" fill="#00A82D"/>
<path d="M245.677 78.0729L244.828 78.0848L245.964 68.1808L246.814 68.1641L245.677 78.0729Z" fill="#D8E8DB"/>
<path d="M247.323 63.1071L246.473 63.1265L247.771 51.8033L248.623 51.7783L247.323 63.1071Z" fill="#00A82D"/>
<path d="M238.165 72.4814L235.615 72.4999C234.498 72.508 233.656 72.086 233.718 71.5506L234.831 62.0011C234.896 61.4514 235.886 60.986 237.034 60.9673L239.562 60.9264C240.688 60.908 241.543 61.3255 241.482 61.865C241.234 64.035 240.637 69.2564 240.385 71.4587C240.322 72.0121 239.32 72.4731 238.165 72.4814Z" fill="#D8E8DB"/>
<path d="M237.38 79.3636L234.832 79.3718C233.717 79.3753 232.874 78.9501 232.937 78.4152L234.049 68.8746C234.113 68.3254 235.103 67.8644 236.249 67.8504L238.775 67.8197C239.901 67.806 240.755 68.2266 240.693 68.7655C240.446 70.9336 239.849 76.1502 239.598 78.3505C239.535 78.9033 238.533 79.36 237.38 79.3636Z" fill="#00A82D"/>
<path d="M238.037 66.8152L237.195 66.8326L238.321 56.9657L239.163 56.9434L238.037 66.8152Z" fill="#D8E8DB"/>
<path d="M236.031 83.1527L235.191 83.162L236.473 71.929L237.314 71.9141L236.031 83.1527Z" fill="#00A82D"/>
<path d="M228.422 79.1633L225.902 79.1717C224.798 79.1754 223.964 78.7522 224.027 78.2197L224.709 72.4032C224.773 71.8574 225.752 71.4013 226.885 71.3898L229.384 71.3645C230.497 71.3532 231.342 71.7734 231.281 72.3093C231.112 73.799 230.788 76.6436 230.616 78.1547C230.554 78.7049 229.563 79.1596 228.422 79.1633Z" fill="#D8E8DB"/>
<path d="M228.987 74.1562L226.466 74.172C225.361 74.179 224.527 73.7581 224.589 73.2254L225.272 67.4049C225.336 66.8588 226.315 66.3996 227.449 66.3847L229.95 66.3519C231.064 66.3373 231.909 66.7553 231.848 67.2915C231.679 68.7822 231.355 71.6287 231.183 73.1409C231.121 73.6912 230.129 74.1491 228.987 74.1562Z" fill="#00A82D"/>
<path d="M226.949 83.5868L226.188 83.5952L227.164 74.9869L227.926 74.9746L226.949 83.5868Z" fill="#D8E8DB"/>
<path d="M228.617 70.1027L227.785 70.1184L229.055 58.9246L229.889 58.9033L228.617 70.1027Z" fill="#00A82D"/>
<path d="M372.651 222.925L336.971 238.397L298.145 231.986L327.308 214.149C340.802 205.896 357.501 204.838 371.922 211.322C376.741 213.489 377.161 220.167 372.651 222.925Z" fill="white"/>
<path d="M336.974 238.739C336.955 238.739 336.937 238.738 336.918 238.735L298.091 232.324C297.95 232.301 297.838 232.192 297.811 232.051C297.784 231.911 297.847 231.768 297.968 231.693L327.132 213.857C340.732 205.539 357.53 204.474 372.064 211.009C374.444 212.079 375.964 214.273 376.128 216.877C376.293 219.483 375.061 221.853 372.832 223.217C372.818 223.225 372.804 223.232 372.789 223.239L337.11 238.711C337.067 238.73 337.02 238.739 336.974 238.739ZM299.111 231.798L336.93 238.042L372.495 222.62C374.49 221.389 375.593 219.261 375.445 216.92C375.297 214.575 373.928 212.598 371.783 211.634C357.456 205.191 340.897 206.241 327.489 214.441L299.111 231.798Z" fill="#171717"/>
<path d="M291.156 219.329L298.987 208.099C298.987 208.099 364.137 197.318 369.421 204.481C374.704 211.645 353.885 212.967 350.015 213.572C350.015 213.572 357.442 217.131 351.036 221.707C351.036 221.707 356.547 224.856 351.717 229.672C351.717 229.672 357.38 232.844 348.782 238.723C340.185 244.602 339.8 238.54 339.8 238.54L302.864 248.006L291.156 219.329Z" fill="white"/>
<path d="M302.867 248.35C302.73 248.35 302.603 248.268 302.549 248.137L290.842 219.459C290.798 219.351 290.811 219.228 290.878 219.133L298.709 207.904C298.762 207.828 298.843 207.777 298.934 207.762C301.602 207.32 364.351 197.03 369.699 204.279C370.621 205.528 370.852 206.705 370.386 207.778C368.671 211.73 357.541 213.024 352.192 213.646C351.775 213.694 351.397 213.738 351.065 213.778C352.142 214.472 353.816 215.831 353.974 217.644C354.094 219.031 353.308 220.391 351.635 221.692C352.36 222.214 353.77 223.446 354.011 225.252C354.202 226.689 353.61 228.156 352.25 229.617C352.81 230.039 353.822 231.005 353.889 232.508C353.979 234.53 352.327 236.717 348.979 239.007C345.526 241.368 342.912 242.141 341.209 241.311C340.039 240.74 339.649 239.583 339.522 238.967L302.952 248.339C302.923 248.346 302.895 248.35 302.867 248.35ZM291.546 219.372L303.071 247.601L339.718 238.209C339.817 238.184 339.922 238.204 340.005 238.264C340.087 238.324 340.139 238.418 340.145 238.519C340.146 238.534 340.267 240.093 341.514 240.697C342.522 241.187 344.569 241.191 348.592 238.441C351.684 236.327 353.279 234.288 353.205 232.545C353.135 230.887 351.568 229.98 351.552 229.971C351.459 229.919 351.395 229.825 351.381 229.719C351.366 229.613 351.402 229.506 351.478 229.43C352.881 228.031 353.505 226.657 353.332 225.347C353.06 223.287 350.89 222.018 350.868 222.006C350.767 221.948 350.703 221.842 350.697 221.725C350.691 221.609 350.745 221.497 350.839 221.43C352.572 220.191 353.397 218.938 353.291 217.705C353.097 215.458 349.901 213.897 349.869 213.881C349.734 213.817 349.657 213.671 349.678 213.523C349.7 213.374 349.816 213.258 349.964 213.234C350.45 213.158 351.184 213.073 352.112 212.965C356.926 212.406 368.199 211.095 369.757 207.505C370.124 206.661 369.924 205.739 369.147 204.686C365.075 199.165 321.691 204.697 299.187 208.414L291.546 219.372Z" fill="#171717"/>
<path d="M348.354 213.385C348.314 213.385 348.273 213.378 348.233 213.363C344.689 212.026 340.72 211.825 337.059 212.794C336.877 212.842 336.689 212.734 336.64 212.551C336.592 212.368 336.701 212.181 336.884 212.132C340.683 211.126 344.798 211.335 348.475 212.722C348.652 212.789 348.741 212.987 348.674 213.164C348.623 213.301 348.492 213.385 348.354 213.385Z" fill="#171717"/>
<path d="M338.62 223.338C338.484 223.338 338.356 223.257 338.302 223.123C338.232 222.948 338.317 222.748 338.492 222.678C341.923 221.299 345.818 220.904 349.456 221.561C349.643 221.595 349.766 221.773 349.733 221.959C349.699 222.145 349.521 222.269 349.335 222.235C345.82 221.599 342.061 221.983 338.748 223.314C338.706 223.33 338.662 223.338 338.62 223.338Z" fill="#171717"/>
<path d="M340.967 229.906C340.821 229.906 340.686 229.812 340.64 229.664C340.585 229.484 340.686 229.292 340.866 229.236C343.858 228.312 347.065 228.144 350.137 228.749C350.323 228.786 350.444 228.966 350.407 229.151C350.371 229.337 350.189 229.457 350.005 229.421C347.043 228.837 343.952 229 341.068 229.891C341.035 229.901 341.001 229.906 340.967 229.906Z" fill="#171717"/>
<path d="M339.507 238.73C339.366 238.73 339.234 238.643 339.184 238.503C339.12 238.325 339.213 238.129 339.391 238.065L345.399 235.916C345.577 235.852 345.773 235.945 345.837 236.123C345.901 236.301 345.808 236.497 345.63 236.561L339.622 238.71C339.584 238.724 339.545 238.73 339.507 238.73Z" fill="#171717"/>
<path d="M299.1 205.192C299.1 205.192 317.732 227.437 318.909 248.007C318.909 248.007 258.09 267.683 225.179 259.971C192.267 252.259 190.008 228.278 190.008 228.278L193.751 284L165.151 283.936C165.151 283.936 133.049 264.267 128.608 262.841C92.1806 251.14 49.2976 238.234 28.3811 235.127C28.3811 235.127 -1.8704 232.651 11.7874 193.867C25.4452 155.083 75.3179 127.929 121.6 126.804C167.882 125.678 198.681 136.749 213.077 149.6C229.966 164.675 251.404 209.109 251.404 209.109L299.1 205.192Z" fill="#FFA121"/>
<path d="M258.927 229.43C258.761 229.43 258.616 229.31 258.589 229.142C257.861 224.616 254.294 215.146 251.104 209.273C251.014 209.107 251.075 208.898 251.242 208.808C251.407 208.718 251.616 208.779 251.706 208.946C254.925 214.873 258.528 224.447 259.265 229.033C259.295 229.22 259.168 229.396 258.981 229.426C258.963 229.429 258.945 229.43 258.927 229.43Z" fill="#171717"/>
<path d="M190.04 229.121C189.906 229.121 189.778 229.041 189.724 228.909C189.664 228.764 183.769 214.427 179.527 202.179L177.304 202.413C177.111 202.434 176.947 202.296 176.928 202.108C176.908 201.92 177.044 201.751 177.232 201.731L179.726 201.469C179.884 201.45 180.033 201.547 180.085 201.698C184.327 213.983 190.297 228.502 190.357 228.648C190.429 228.823 190.346 229.023 190.171 229.095C190.128 229.113 190.084 229.121 190.04 229.121Z" fill="#171717"/>
<path d="M194.146 58.8935C194.146 58.8935 201.048 111.438 189.901 116.761C182.766 120.168 172.095 116.768 172.095 116.768L165.755 130.777L139.938 126.698C139.938 126.698 140.675 52.2144 194.146 58.8935Z" fill="white"/>
<path d="M139.938 126.698C139.938 126.698 140.675 52.2144 194.146 58.8935C194.146 58.8935 201.915 111.207 189.901 116.761C182.724 120.079 172.095 116.768 172.095 116.768L165.755 130.777L139.938 126.698Z" fill="white"/>
<path d="M165.754 131.12C165.707 131.12 165.659 131.11 165.613 131.089C165.441 131.011 165.364 130.808 165.442 130.636L171.782 116.627C171.856 116.464 172.042 116.385 172.209 116.446C172.309 116.481 182.326 119.994 189.02 116.773C191.335 115.66 195.642 113.589 195.915 97.4691C196.185 81.4562 194.108 61.7256 193.834 59.2004C181.165 57.6789 170.434 60.6708 161.942 68.0964C150.969 77.6906 145.664 93.1014 143.145 104.34C140.411 116.543 140.28 126.601 140.279 126.701C140.277 126.889 140.124 127.04 139.936 127.04C139.935 127.04 139.934 127.04 139.933 127.04C139.744 127.038 139.592 126.883 139.594 126.694C139.595 126.593 139.725 116.476 142.473 104.205C145.014 92.8626 150.375 77.3012 161.49 67.5818C170.196 59.9681 181.198 56.9302 194.187 58.5532C194.344 58.5729 194.467 58.6974 194.485 58.8546C194.509 59.068 196.889 80.3827 196.6 97.4803C196.354 112.019 192.954 115.641 189.317 117.39C182.944 120.455 174.046 117.778 172.277 117.193L166.066 130.918C166.009 131.045 165.884 131.12 165.754 131.12Z" fill="#171717"/>
<path d="M171.999 117.381C171.954 117.381 171.908 117.372 171.864 117.353C171.691 117.279 171.61 117.078 171.684 116.904C172.952 113.927 174.95 112.769 177.792 113.367C177.977 113.406 178.095 113.588 178.056 113.773C178.017 113.958 177.836 114.077 177.65 114.038C175.145 113.511 173.45 114.508 172.314 117.173C172.258 117.303 172.132 117.381 171.999 117.381Z" fill="#171717"/>
<path d="M170.833 95.1154C170.661 95.1154 170.512 94.9856 170.493 94.81C170.162 91.7839 167.901 89.0373 164.995 88.1307C164.814 88.0742 164.713 87.8821 164.769 87.7014C164.826 87.5211 165.017 87.4207 165.199 87.4762C168.357 88.4619 170.814 91.447 171.174 94.7358C171.194 94.9237 171.059 95.0927 170.871 95.1135C170.858 95.1147 170.845 95.1154 170.833 95.1154Z" fill="#171717"/>
<path d="M108.6 167.156C109.514 173.855 113.721 180.059 112.711 187.01C111.545 195.041 103.836 200.163 98.8555 206.572C88.9514 219.316 90.895 239.671 103.032 250.311C113.56 259.541 129.201 260.886 142.769 257.423C152.284 254.994 161.662 250.063 166.827 241.713C173.309 231.232 171.856 217.551 167.363 206.076C165.07 200.222 161.99 194.19 163.014 187.987C164.141 181.156 170.153 176.112 169.389 169.231C167.525 152.464 147.608 122.255 150.237 120.208C152.392 113.974 165.648 103.605 163.617 99.2157C162.553 96.9147 160.616 95.0783 159.703 92.7132C158.203 88.827 160.15 83.9449 163.913 82.1572C168.016 80.2077 173.609 82.2567 175.242 86.5931C175.487 87.2438 175.831 87.8572 176.32 88.3511C178.352 90.4016 179.764 89.8527 180.509 85.8449C181.111 82.609 180.183 81.8572 183.106 79.5362C190.468 73.6901 201.505 78.0147 200.17 63.3193C199.775 58.976 194.383 51.1846 188.77 47.3994C180.38 41.7416 167.446 41.114 158.994 46.7314C151.668 51.6005 149.486 47.8856 142.05 49.893C133.529 52.1932 127.645 59.1857 124.83 67.5499C114.013 99.6895 136.348 117.429 136.348 117.429C136.348 117.429 122.716 122.212 124.239 132.664C126.42 147.618 117.597 144.784 111.648 155.418C109.694 158.91 107.961 162.475 108.6 167.156Z" fill="#171717"/>
<path d="M146.253 121.549C143.56 121.549 139.859 120.803 136.127 117.693C135.982 117.572 135.962 117.356 136.083 117.21C136.204 117.065 136.42 117.045 136.566 117.166C143.392 122.857 150.042 120.304 150.108 120.278C150.284 120.207 150.483 120.294 150.553 120.47C150.623 120.646 150.537 120.845 150.362 120.915C150.328 120.928 148.71 121.549 146.253 121.549Z" fill="#00A82D"/>
<path d="M136.245 118.082C136.137 118.082 136.035 118.031 135.969 117.943C135.861 117.795 133.32 114.252 133.348 106.826C133.36 103.631 134.583 100.862 136.193 100.384C136.717 100.228 137.746 100.199 138.758 101.743C140.988 105.148 136.75 117.336 136.568 117.853C136.526 117.973 136.422 118.06 136.296 118.079C136.279 118.081 136.262 118.082 136.245 118.082ZM136.681 100.997C136.586 100.997 136.487 101.011 136.387 101.041C135.264 101.374 134.044 103.682 134.033 106.829C134.012 112.31 135.46 115.644 136.156 116.929C137.028 114.274 139.947 104.808 138.185 102.118C137.835 101.585 137.308 100.997 136.681 100.997Z" fill="#00A82D"/>
<path d="M136.243 118.082C136.224 118.082 136.204 118.08 136.185 118.077C135.644 117.983 122.926 115.709 120.952 109.204C120.288 107.016 120.841 105.278 122.394 104.67C125.059 103.627 131.025 106.206 136.551 117.59C136.607 117.705 136.594 117.843 136.517 117.946C136.451 118.032 136.349 118.082 136.243 118.082ZM123.622 105.139C123.252 105.139 122.924 105.198 122.644 105.308C121.454 105.774 121.057 107.191 121.607 109.005C123.211 114.29 132.961 116.702 135.629 117.268C131.067 108.17 126.274 105.139 123.622 105.139Z" fill="#00A82D"/>
<path d="M136.877 130.287C136.729 130.287 136.592 130.191 136.548 130.042C135.495 126.472 135.369 123.304 135.449 121.275C135.45 121.254 135.498 120.071 135.65 118.999C134.558 120.412 132.879 122.96 132.66 125.519C132.644 125.708 132.477 125.851 132.29 125.831C132.101 125.815 131.961 125.649 131.978 125.461C132.313 121.544 135.695 117.831 136.071 117.43C136.12 117.359 136.173 117.312 136.229 117.295C136.406 117.239 136.613 117.35 136.673 117.527C136.713 117.648 136.683 117.78 136.596 117.872C136.594 117.873 136.588 117.88 136.577 117.892C136.333 118.635 135.393 123.705 137.205 129.848C137.259 130.029 137.155 130.22 136.974 130.273C136.941 130.283 136.909 130.287 136.877 130.287Z" fill="#00A82D"/>
<path d="M46.3764 284L165.149 283.935L146.224 157.314C145.393 151.805 140.658 147.731 135.086 147.731H39.0169C32.1263 147.731 26.8505 153.862 27.8784 160.674L46.3764 284Z" fill="white"/>
<path d="M46.3064 283.864C46.1391 283.864 45.993 283.741 45.9679 283.571L39.1443 237.076C39.1168 236.888 39.2464 236.714 39.4333 236.687C39.6252 236.657 39.7941 236.789 39.8219 236.976L46.6455 283.471C46.6729 283.659 46.5435 283.833 46.3566 283.86C46.3394 283.863 46.3226 283.864 46.3064 283.864Z" fill="#171717"/>
<path d="M150.235 282.026C150.068 282.026 149.922 281.904 149.896 281.734L131.558 160.363C130.746 154.98 126.204 151.072 120.758 151.072L40.7753 150.93C40.5864 150.93 40.4333 150.776 40.4336 150.587C40.4339 150.398 40.5872 150.245 40.7761 150.245C40.7764 150.245 40.7764 150.245 40.7767 150.245L120.759 150.387C126.546 150.387 131.373 154.54 132.236 160.261L150.574 281.632C150.602 281.819 150.473 281.994 150.286 282.022C150.269 282.024 150.252 282.026 150.235 282.026Z" fill="#171717"/>
<path d="M93.7199 149.928C93.2364 149.928 92.8053 149.584 92.7116 149.092L86.2409 115.08C86.135 114.523 86.5008 113.985 87.0583 113.879C87.6171 113.772 88.1535 114.139 88.2595 114.696L94.7301 148.708C94.8361 149.265 94.4703 149.803 93.9127 149.909C93.8479 149.922 93.7834 149.928 93.7199 149.928Z" fill="#171717"/>
<path d="M68.9504 149.928C68.4668 149.928 68.0357 149.584 67.942 149.092L61.4714 115.08C61.3654 114.523 61.7312 113.985 62.2888 113.879C62.8483 113.772 63.384 114.139 63.4899 114.696L69.9606 148.708C70.0665 149.265 69.7007 149.803 69.1432 149.909C69.0784 149.922 69.0138 149.928 68.9504 149.928Z" fill="#171717"/>
<path d="M60.8516 131.185H100.156C107.04 131.185 112.314 125.065 111.297 118.257L107.696 94.1813C106.871 88.6655 102.133 84.584 96.5556 84.584H57.2513C50.3666 84.584 45.0925 90.7043 46.1105 97.512L49.7108 121.588C50.5356 127.104 55.2736 131.185 60.8516 131.185Z" fill="white"/>
<path d="M102.966 121.598C102.799 121.598 102.653 121.476 102.627 121.306L99.0275 97.2302C98.2343 91.9251 93.5905 87.9246 88.2253 87.9246H54.6863C54.497 87.9246 54.3438 87.7714 54.3438 87.5819C54.3438 87.3926 54.4969 87.2393 54.6863 87.2393H88.2253C93.9268 87.2393 98.8618 91.4907 99.7049 97.129L103.305 121.205C103.333 121.392 103.204 121.566 103.017 121.594C103 121.597 102.983 121.598 102.966 121.598Z" fill="#171717"/>
<path d="M91.445 131.528H60.8482C55.147 131.528 50.212 127.276 49.3688 121.638L45.7686 97.5627C45.2689 94.2202 46.2471 90.8348 48.4526 88.2739C50.6598 85.7112 53.8656 84.2412 57.2482 84.2412H96.5523C102.254 84.2412 107.189 88.4927 108.032 94.1306L111.632 118.207C112.158 121.727 111.066 125.239 108.637 127.843C108.507 127.981 108.291 127.988 108.152 127.86C108.014 127.73 108.007 127.514 108.136 127.375C110.422 124.925 111.45 121.62 110.954 118.308L107.354 94.2321C106.561 88.9271 101.917 84.9265 96.5522 84.9265H57.2482C54.0652 84.9265 51.0484 86.3096 48.9712 88.7214C46.8962 91.1312 45.9758 94.3168 46.446 97.4616L50.0464 121.538C50.8393 126.842 55.4834 130.843 60.8482 130.843H91.445C91.6342 130.843 91.7875 130.996 91.7875 131.186C91.7875 131.374 91.6344 131.528 91.445 131.528Z" fill="#171717"/>
<path d="M28.7761 167.483C28.6085 167.483 28.4621 167.36 28.4376 167.189L27.4078 160.07C26.9454 156.873 27.8928 153.638 30.0069 151.195C32.123 148.75 35.191 147.348 38.4249 147.348H52.3163C52.5056 147.348 52.6588 147.501 52.6588 147.69C52.6588 147.88 52.5057 148.033 52.3163 148.033H38.4249C35.3901 148.033 32.5107 149.349 30.5249 151.644C28.5407 153.936 27.6515 156.972 28.0853 159.972L29.115 167.091C29.1422 167.278 29.0123 167.452 28.8254 167.479C28.809 167.482 28.7922 167.483 28.7761 167.483Z" fill="#171717"/>
<path d="M409.471 180.963C409.471 180.963 417.025 172.985 418.914 164.378C420.803 155.77 413.668 155.98 406.742 162.908C406.742 162.908 405.483 158.29 402.335 158.5C399.188 158.71 399.607 167.947 399.607 167.947C399.607 167.947 392.472 157.45 387.016 158.5C381.56 159.549 388.065 168.367 388.065 168.367C388.065 168.367 384.078 168.367 385.127 172.146C386.176 175.925 391.423 182.643 391.423 182.643L409.471 180.963Z" fill="white"/>
<path d="M391.422 182.986C391.317 182.986 391.218 182.937 391.152 182.854C390.936 182.577 385.852 176.039 384.796 172.238C384.46 171.026 384.574 170.037 385.135 169.299C385.761 168.475 386.787 168.184 387.444 168.081C386.448 166.622 383.735 162.303 384.701 159.829C385.046 158.945 385.803 158.384 386.951 158.164C391.645 157.265 397.331 164.273 399.24 166.847C399.23 164.249 399.516 158.345 402.312 158.158C405.054 157.98 406.438 161.006 406.897 162.277C410.994 158.335 415.3 156.582 417.719 157.906C419.426 158.841 419.969 161.166 419.248 164.452C417.361 173.053 409.795 181.119 409.718 181.199C409.661 181.26 409.584 181.297 409.502 181.305L391.454 182.984C391.443 182.985 391.433 182.986 391.422 182.986ZM387.813 158.768C387.565 158.768 387.321 158.79 387.08 158.837C386.166 159.012 385.596 159.418 385.339 160.078C384.325 162.673 388.3 168.109 388.34 168.164C388.417 168.267 388.428 168.406 388.37 168.521C388.312 168.637 388.194 168.709 388.065 168.71C388.049 168.71 386.427 168.727 385.678 169.715C385.255 170.274 385.181 171.061 385.457 172.054C386.391 175.42 390.81 181.281 391.578 182.284L409.308 180.635C410.149 179.717 416.841 172.224 418.579 164.305C419.229 161.342 418.807 159.283 417.39 158.507C415.196 157.306 410.918 159.216 406.984 163.151C406.898 163.237 406.773 163.271 406.655 163.24C406.537 163.208 406.444 163.117 406.412 162.999C406.4 162.956 405.184 158.649 402.358 158.842C400.051 158.996 399.837 165.456 399.949 167.932C399.956 168.085 399.861 168.224 399.715 168.272C399.57 168.32 399.41 168.267 399.324 168.14C399.257 168.042 392.889 158.768 387.813 158.768Z" fill="#171717"/>
<path d="M404.225 181.948C404.179 181.948 404.132 181.938 404.087 181.918C403.914 181.841 403.836 181.639 403.912 181.466L410.418 166.77C410.494 166.598 410.696 166.519 410.87 166.596C411.043 166.673 411.121 166.875 411.044 167.048L404.538 181.744C404.482 181.872 404.356 181.948 404.225 181.948Z" fill="#171717"/>
<path d="M400.453 182.367C400.326 182.367 400.204 182.297 400.144 182.174C396.21 174.096 391.187 165.911 391.137 165.829C391.038 165.668 391.088 165.457 391.249 165.358C391.41 165.258 391.621 165.308 391.72 165.47C391.77 165.552 396.811 173.766 400.76 181.875C400.843 182.045 400.772 182.25 400.602 182.333C400.554 182.356 400.503 182.367 400.453 182.367Z" fill="#171717"/>
<path d="M412.122 203.964H390.687L388.008 179.926H414.802L412.122 203.964Z" fill="#D8E8DB"/>
</svg>
