<svg width="167" height="104" viewBox="0 0 167 104" fill="none" xmlns="http://www.w3.org/2000/svg">
<rect x="150.521" y="49.8861" width="5.77203" height="6.4172" fill="#FF5555" stroke="#FF5555" stroke-width="0.721515"/>
<path d="M153.406 38.8164V62.4634" stroke="#FF5555" stroke-width="0.721515"/>
<rect x="141.146" y="29.808" width="5.77203" height="19.3561" fill="#FF5555" stroke="#FF5555" stroke-width="0.721515"/>
<path d="M144.031 28.5547V50.8632" stroke="#FF5555" stroke-width="0.721515"/>
<rect x="131.763" y="24.8998" width="5.77203" height="4.18635" fill="#FF5555" stroke="#FF5555" stroke-width="0.721515"/>
<path d="M134.648 20.5234V33.4624" stroke="#FF5555" stroke-width="0.721515"/>
<rect x="113.001" y="30.2533" width="5.77203" height="11.3251" fill="#FF5555" stroke="#FF5555" stroke-width="0.721515"/>
<path d="M115.887 26.7695V66.4786" stroke="#FF5555" stroke-width="0.721515"/>
<rect x="103.626" y="20.4389" width="5.77207" height="9.54039" fill="#FF5555" stroke="#FF5555" stroke-width="0.721515"/>
<path d="M106.512 18.7383V42.8314" stroke="#FF5555" stroke-width="0.721515"/>
<rect x="47.3451" y="41.8529" width="5.77203" height="33.1874" fill="#FF5555" stroke="#FF5555" stroke-width="0.721515"/>
<path d="M50.2305 37.9238V76.2944" stroke="#FF5555" stroke-width="0.721515"/>
<rect x="9.82951" y="76.6576" width="5.77207" height="14.4483" fill="#FF5555" stroke="#FF5555" stroke-width="0.721515"/>
<path d="M12.7148 51.3105L12.7148 96.3737" stroke="#FF5555" stroke-width="0.721515"/>
<rect x="122.384" y="24.8998" width="5.77203" height="16.6791" fill="#11D07F" stroke="#11D07F" stroke-width="0.721515"/>
<path d="M125.27 20.9707V52.2026" stroke="#11D07F" stroke-width="0.721515"/>
<rect x="94.2436" y="20.4389" width="5.77203" height="30.9565" fill="#11D07F" stroke="#11D07F" stroke-width="0.721515"/>
<path d="M97.1289 18.293V51.7557" stroke="#11D07F" stroke-width="0.721515"/>
<rect x="84.8647" y="52.1166" width="5.77203" height="6.86337" fill="#11D07F" stroke="#11D07F" stroke-width="0.721515"/>
<path d="M87.75 51.7559V67.818" stroke="#11D07F" stroke-width="0.721515"/>
<rect x="75.3481" y="59.5649" width="6.04737" height="0.446171" fill="#11D07F" stroke="#11D07F" stroke-width="0.446171"/>
<path d="M78.3711 49.5254V65.1413" stroke="#11D07F" stroke-width="0.721515"/>
<rect x="66.1029" y="60.5932" width="5.77203" height="5.97103" fill="#11D07F" stroke="#11D07F" stroke-width="0.721515"/>
<path d="M68.9883 59.3398V76.2943" stroke="#11D07F" stroke-width="0.721515"/>
<rect x="56.724" y="67.2865" width="5.77203" height="7.7557" fill="#11D07F" stroke="#11D07F" stroke-width="0.721515"/>
<path d="M59.6094 58.4492V83.4347" stroke="#11D07F" stroke-width="0.721515"/>
<rect x="37.9662" y="41.8549" width="5.77203" height="29.618" fill="#11D07F" stroke="#11D07F" stroke-width="0.721515"/>
<path d="M40.8516 40.1562V81.65" stroke="#11D07F" stroke-width="0.721515"/>
<rect x="28.5873" y="72.1947" width="5.77203" height="2.84784" fill="#11D07F" stroke="#11D07F" stroke-width="0.721515"/>
<path d="M31.4727 66.0332V90.1264" stroke="#11D07F" stroke-width="0.721515"/>
<rect x="19.2045" y="75.7631" width="5.77203" height="15.3406" fill="#11D07F" stroke="#11D07F" stroke-width="0.721515"/>
<path d="M22.0898 55.3242L22.0898 103.511" stroke="#11D07F" stroke-width="0.721515"/>
<rect x="0.446695" y="76.6557" width="5.77203" height="2.40167" fill="#11D07F" stroke="#11D07F" stroke-width="0.721515"/>
<path d="M3.33203 49.5254L3.33203 97.7117" stroke="#11D07F" stroke-width="0.721515"/>
<rect x="159.9" y="29.808" width="5.77203" height="26.4948" fill="#11D07F" stroke="#11D07F" stroke-width="0.721515"/>
<path d="M162.785 0V56.6635" stroke="#11D07F" stroke-width="0.721515"/>
</svg>
