<svg width="204" height="95" viewBox="0 0 204 95" fill="none" xmlns="http://www.w3.org/2000/svg">
<g clip-path="url(#clip0_331_1084)">
<path d="M0 0.5H52V52.5H0V0.5Z" fill="#171717"/>
<path d="M26.0008 42.0001L30.0086 19.7344C33.809 19.7344 34.9908 19.7985 35.1636 21.5067C35.1636 21.5067 37.7135 20.552 38.9986 18.6122C33.9817 16.2788 28.9399 16.1719 28.9399 16.1719L26.0008 19.7344L23.0618 16.1719C23.0618 16.1719 18.0208 16.277 13.0039 18.6122C14.2882 20.5511 16.8389 21.5067 16.8389 21.5067C17.0126 19.7967 18.2185 19.7371 21.993 19.7344L26.0008 42.0001Z" fill="white"/>
<path d="M26 15.2341C30.056 15.2029 34.6071 15.8726 39.3594 17.9531C39.9945 16.8042 40.2501 16.1719 40.2501 16.1719C35.055 14.1074 30.1895 13.5178 26 13.5C21.8096 13.5178 16.945 14.1074 11.75 16.1719C11.75 16.1719 12.0742 16.9227 12.6406 17.9531C17.3921 15.8726 21.9441 15.2029 26 15.2341Z" fill="white"/>
</g>
<g clip-path="url(#clip1_331_1084)">
<path d="M76.86 21V8.86H72.2V6.6H83.93V8.86H79.27V21H76.86ZM88.8373 21.3C87.744 21.3 86.784 21.0633 85.9573 20.59C85.1307 20.1167 84.484 19.46 84.0173 18.62C83.5573 17.78 83.3273 16.8133 83.3273 15.72C83.3273 14.54 83.554 13.5167 84.0073 12.65C84.4607 11.7767 85.0907 11.1 85.8973 10.62C86.704 10.14 87.6373 9.9 88.6973 9.9C89.8173 9.9 90.7673 10.1633 91.5473 10.69C92.334 11.21 92.9173 11.9467 93.2973 12.9C93.6773 13.8533 93.8207 14.9767 93.7273 16.27H91.3373V15.39C91.3307 14.2167 91.124 13.36 90.7173 12.82C90.3107 12.28 89.6707 12.01 88.7973 12.01C87.8107 12.01 87.0773 12.3167 86.5973 12.93C86.1173 13.5367 85.8773 14.4267 85.8773 15.6C85.8773 16.6933 86.1173 17.54 86.5973 18.14C87.0773 18.74 87.7773 19.04 88.6973 19.04C89.2907 19.04 89.8007 18.91 90.2273 18.65C90.6607 18.3833 90.994 18 91.2273 17.5L93.6073 18.22C93.194 19.1933 92.554 19.95 91.6873 20.49C90.8273 21.03 89.8773 21.3 88.8373 21.3ZM85.1173 16.27V14.45H92.5473V16.27H85.1173ZM100.129 21.3C98.7953 21.3 97.7119 21 96.8786 20.4C96.0453 19.8 95.5386 18.9567 95.3586 17.87L97.8186 17.49C97.9453 18.0233 98.2253 18.4433 98.6586 18.75C99.0919 19.0567 99.6386 19.21 100.299 19.21C100.879 19.21 101.325 19.0967 101.639 18.87C101.959 18.6367 102.119 18.32 102.119 17.92C102.119 17.6733 102.059 17.4767 101.939 17.33C101.825 17.1767 101.572 17.03 101.179 16.89C100.785 16.75 100.182 16.5733 99.3686 16.36C98.4619 16.12 97.7419 15.8633 97.2086 15.59C96.6753 15.31 96.2919 14.98 96.0586 14.6C95.8253 14.22 95.7086 13.76 95.7086 13.22C95.7086 12.5467 95.8853 11.96 96.2386 11.46C96.5919 10.96 97.0853 10.5767 97.7186 10.31C98.3519 10.0367 99.0986 9.9 99.9586 9.9C100.799 9.9 101.542 10.03 102.189 10.29C102.842 10.55 103.369 10.92 103.769 11.4C104.169 11.88 104.415 12.4433 104.509 13.09L102.049 13.53C101.989 13.07 101.779 12.7067 101.419 12.44C101.065 12.1733 100.592 12.0233 99.9986 11.99C99.4319 11.9567 98.9753 12.0433 98.6286 12.25C98.2819 12.45 98.1086 12.7333 98.1086 13.1C98.1086 13.3067 98.1786 13.4833 98.3186 13.63C98.4586 13.7767 98.7386 13.9233 99.1586 14.07C99.5853 14.2167 100.219 14.3967 101.059 14.61C101.919 14.83 102.605 15.0833 103.119 15.37C103.639 15.65 104.012 15.9867 104.239 16.38C104.472 16.7733 104.589 17.25 104.589 17.81C104.589 18.8967 104.192 19.75 103.399 20.37C102.612 20.99 101.522 21.3 100.129 21.3ZM106.979 21V6.3H109.389V21H106.979ZM115.404 21.3C114.624 21.3 113.964 21.1533 113.424 20.86C112.884 20.56 112.474 20.1633 112.194 19.67C111.921 19.1767 111.784 18.6333 111.784 18.04C111.784 17.52 111.871 17.0533 112.044 16.64C112.218 16.22 112.484 15.86 112.844 15.56C113.204 15.2533 113.671 15.0033 114.244 14.81C114.678 14.67 115.184 14.5433 115.764 14.43C116.351 14.3167 116.984 14.2133 117.664 14.12C118.351 14.02 119.068 13.9133 119.814 13.8L118.954 14.29C118.961 13.5433 118.794 12.9933 118.454 12.64C118.114 12.2867 117.541 12.11 116.734 12.11C116.248 12.11 115.778 12.2233 115.324 12.45C114.871 12.6767 114.554 13.0667 114.374 13.62L112.174 12.93C112.441 12.0167 112.948 11.2833 113.694 10.73C114.448 10.1767 115.461 9.9 116.734 9.9C117.694 9.9 118.538 10.0567 119.264 10.37C119.998 10.6833 120.541 11.1967 120.894 11.91C121.088 12.29 121.204 12.68 121.244 13.08C121.284 13.4733 121.304 13.9033 121.304 14.37V21H119.194V18.66L119.544 19.04C119.058 19.82 118.488 20.3933 117.834 20.76C117.188 21.12 116.378 21.3 115.404 21.3ZM115.884 19.38C116.431 19.38 116.898 19.2833 117.284 19.09C117.671 18.8967 117.978 18.66 118.204 18.38C118.438 18.1 118.594 17.8367 118.674 17.59C118.801 17.2833 118.871 16.9333 118.884 16.54C118.904 16.14 118.914 15.8167 118.914 15.57L119.654 15.79C118.928 15.9033 118.304 16.0033 117.784 16.09C117.264 16.1767 116.818 16.26 116.444 16.34C116.071 16.4133 115.741 16.4967 115.454 16.59C115.174 16.69 114.938 16.8067 114.744 16.94C114.551 17.0733 114.401 17.2267 114.294 17.4C114.194 17.5733 114.144 17.7767 114.144 18.01C114.144 18.2767 114.211 18.5133 114.344 18.72C114.478 18.92 114.671 19.08 114.924 19.2C115.184 19.32 115.504 19.38 115.884 19.38ZM128.112 21V6.6H130.522V21H128.112ZM140.987 21V15.8C140.987 15.46 140.964 15.0833 140.917 14.67C140.871 14.2567 140.761 13.86 140.587 13.48C140.421 13.0933 140.167 12.7767 139.827 12.53C139.494 12.2833 139.041 12.16 138.467 12.16C138.161 12.16 137.857 12.21 137.557 12.31C137.257 12.41 136.984 12.5833 136.737 12.83C136.497 13.07 136.304 13.4033 136.157 13.83C136.011 14.25 135.937 14.79 135.937 15.45L134.507 14.84C134.507 13.92 134.684 13.0867 135.037 12.34C135.397 11.5933 135.924 11 136.617 10.56C137.311 10.1133 138.164 9.89 139.177 9.89C139.977 9.89 140.637 10.0233 141.157 10.29C141.677 10.5567 142.091 10.8967 142.397 11.31C142.704 11.7233 142.931 12.1633 143.077 12.63C143.224 13.0967 143.317 13.54 143.357 13.96C143.404 14.3733 143.427 14.71 143.427 14.97V21H140.987ZM133.497 21V10.2H135.647V13.55H135.937V21H133.497ZM150.551 21.3C149.438 21.3 148.488 21.0533 147.701 20.56C146.914 20.06 146.311 19.38 145.891 18.52C145.478 17.66 145.268 16.6867 145.261 15.6C145.268 14.4933 145.484 13.5133 145.911 12.66C146.344 11.8 146.958 11.1267 147.751 10.64C148.544 10.1467 149.488 9.9 150.581 9.9C151.808 9.9 152.844 10.21 153.691 10.83C154.544 11.4433 155.101 12.2833 155.361 13.35L152.961 14C152.774 13.42 152.464 12.97 152.031 12.65C151.598 12.3233 151.104 12.16 150.551 12.16C149.924 12.16 149.408 12.31 149.001 12.61C148.594 12.9033 148.294 13.31 148.101 13.83C147.908 14.35 147.811 14.94 147.811 15.6C147.811 16.6267 148.041 17.4567 148.501 18.09C148.961 18.7233 149.644 19.04 150.551 19.04C151.191 19.04 151.694 18.8933 152.061 18.6C152.434 18.3067 152.714 17.8833 152.901 17.33L155.361 17.88C155.028 18.98 154.444 19.8267 153.611 20.42C152.778 21.0067 151.758 21.3 150.551 21.3ZM157.374 21V18.53H159.844V21H157.374Z" fill="#171717"/>
<path d="M73.12 48V36.48H77.672C77.784 36.48 77.9173 36.4853 78.072 36.496C78.2267 36.5013 78.376 36.5173 78.52 36.544C79.144 36.64 79.6667 36.8533 80.088 37.184C80.5147 37.5147 80.8347 37.9333 81.048 38.44C81.2613 38.9413 81.368 39.4987 81.368 40.112C81.368 41.0027 81.136 41.776 80.672 42.432C80.208 43.0827 79.528 43.4907 78.632 43.656L78.088 43.744H74.544V48H73.12ZM79.976 48L77.704 43.312L79.112 42.88L81.608 48H79.976ZM74.544 42.392H77.624C77.7253 42.392 77.84 42.3867 77.968 42.376C78.1013 42.3653 78.2267 42.3467 78.344 42.32C78.712 42.2347 79.0107 42.08 79.24 41.856C79.4747 41.6267 79.6453 41.36 79.752 41.056C79.8587 40.7467 79.912 40.432 79.912 40.112C79.912 39.792 79.8587 39.48 79.752 39.176C79.6453 38.8667 79.4747 38.5973 79.24 38.368C79.0107 38.1387 78.712 37.984 78.344 37.904C78.2267 37.872 78.1013 37.8533 77.968 37.848C77.84 37.8373 77.7253 37.832 77.624 37.832H74.544V42.392ZM87.114 48.24C86.266 48.24 85.5247 48.0533 84.89 47.68C84.2607 47.3013 83.77 46.776 83.418 46.104C83.066 45.4267 82.89 44.6373 82.89 43.736C82.89 42.792 83.0633 41.976 83.41 41.288C83.7567 40.5947 84.2393 40.0613 84.858 39.688C85.482 39.3093 86.2127 39.12 87.05 39.12C87.9193 39.12 88.658 39.32 89.266 39.72C89.8793 40.12 90.338 40.6907 90.642 41.432C90.9513 42.1733 91.0847 43.056 91.042 44.08H89.602V43.568C89.586 42.5067 89.37 41.7147 88.954 41.192C88.538 40.664 87.9193 40.4 87.098 40.4C86.218 40.4 85.5487 40.6827 85.09 41.248C84.6313 41.8133 84.402 42.624 84.402 43.68C84.402 44.6987 84.6313 45.488 85.09 46.048C85.5487 46.608 86.202 46.888 87.05 46.888C87.6207 46.888 88.1167 46.7573 88.538 46.496C88.9593 46.2347 89.29 45.8587 89.53 45.368L90.898 45.84C90.562 46.6027 90.0553 47.1947 89.378 47.616C88.706 48.032 87.9513 48.24 87.114 48.24ZM83.922 44.08V42.936H90.306V44.08H83.922ZM95.1229 48.24C94.4775 48.24 93.9362 48.1227 93.4989 47.888C93.0669 47.648 92.7389 47.3333 92.5149 46.944C92.2962 46.5547 92.1869 46.128 92.1869 45.664C92.1869 45.2107 92.2722 44.8187 92.4429 44.488C92.6189 44.152 92.8642 43.8747 93.1789 43.656C93.4935 43.432 93.8695 43.256 94.3069 43.128C94.7175 43.016 95.1762 42.92 95.6829 42.84C96.1949 42.7547 96.7122 42.6773 97.2349 42.608C97.7575 42.5387 98.2455 42.472 98.6989 42.408L98.1869 42.704C98.2029 41.936 98.0482 41.368 97.7229 41C97.4029 40.632 96.8482 40.448 96.0589 40.448C95.5362 40.448 95.0775 40.568 94.6829 40.808C94.2935 41.0427 94.0189 41.4267 93.8589 41.96L92.5069 41.552C92.7149 40.7947 93.1175 40.2 93.7149 39.768C94.3122 39.336 95.0989 39.12 96.0749 39.12C96.8589 39.12 97.5309 39.2613 98.0909 39.544C98.6562 39.8213 99.0615 40.2427 99.3069 40.808C99.4295 41.0747 99.5069 41.3653 99.5389 41.68C99.5709 41.9893 99.5869 42.3147 99.5869 42.656V48H98.3229V45.928L98.6189 46.12C98.2935 46.8187 97.8375 47.3467 97.2509 47.704C96.6695 48.0613 95.9602 48.24 95.1229 48.24ZM95.3389 47.048C95.8509 47.048 96.2935 46.9573 96.6669 46.776C97.0455 46.5893 97.3495 46.3467 97.5789 46.048C97.8082 45.744 97.9575 45.4133 98.0269 45.056C98.1069 44.7893 98.1495 44.4933 98.1549 44.168C98.1655 43.8373 98.1709 43.584 98.1709 43.408L98.6669 43.624C98.2029 43.688 97.7469 43.7493 97.2989 43.808C96.8509 43.8667 96.4269 43.9307 96.0269 44C95.6269 44.064 95.2669 44.1413 94.9469 44.232C94.7122 44.3067 94.4909 44.4027 94.2829 44.52C94.0802 44.6373 93.9149 44.7893 93.7869 44.976C93.6642 45.1573 93.6029 45.384 93.6029 45.656C93.6029 45.8907 93.6615 46.1147 93.7789 46.328C93.9015 46.5413 94.0882 46.7147 94.3389 46.848C94.5949 46.9813 94.9282 47.048 95.3389 47.048ZM101.827 48V36.24H103.251V48H101.827ZM105.491 43.544V42.368H110.291V43.544H105.491ZM117.194 48C116.682 48.1013 116.175 48.1413 115.674 48.12C115.178 48.104 114.735 48.0053 114.346 47.824C113.957 47.6373 113.661 47.3493 113.458 46.96C113.287 46.6187 113.194 46.2747 113.178 45.928C113.167 45.576 113.162 45.1787 113.162 44.736V36.96H114.586V44.672C114.586 45.024 114.589 45.3253 114.594 45.576C114.605 45.8267 114.661 46.0427 114.762 46.224C114.954 46.5653 115.258 46.7653 115.674 46.824C116.095 46.8827 116.602 46.8667 117.194 46.776V48ZM111.41 40.536V39.36H117.194V40.536H111.41ZM119.108 37.832V36.36H120.532V37.832H119.108ZM119.108 48V39.36H120.532V48H119.108ZM133.261 48L133.269 42.472C133.269 41.8267 133.095 41.3227 132.749 40.96C132.407 40.592 131.962 40.408 131.413 40.408C131.093 40.408 130.789 40.4827 130.501 40.632C130.213 40.776 129.978 41.0053 129.797 41.32C129.615 41.6293 129.525 42.0267 129.525 42.512L128.773 42.208C128.762 41.5947 128.887 41.0587 129.149 40.6C129.415 40.136 129.778 39.776 130.237 39.52C130.695 39.264 131.213 39.136 131.789 39.136C132.69 39.136 133.399 39.4107 133.917 39.96C134.434 40.504 134.693 41.2373 134.693 42.16L134.685 48H133.261ZM122.925 48V39.36H124.197V41.672H124.357V48H122.925ZM128.101 48L128.109 42.528C128.109 41.8667 127.938 41.3493 127.597 40.976C127.255 40.5973 126.802 40.408 126.237 40.408C125.677 40.408 125.223 40.6 124.877 40.984C124.53 41.368 124.357 41.8773 124.357 42.512L123.605 42.064C123.605 41.504 123.738 41.0027 124.005 40.56C124.271 40.1173 124.634 39.7707 125.093 39.52C125.551 39.264 126.071 39.136 126.653 39.136C127.234 39.136 127.741 39.2587 128.173 39.504C128.605 39.7493 128.938 40.1013 129.173 40.56C129.407 41.0133 129.525 41.5547 129.525 42.184L129.517 48H128.101ZM140.442 48.24C139.594 48.24 138.853 48.0533 138.218 47.68C137.589 47.3013 137.098 46.776 136.746 46.104C136.394 45.4267 136.218 44.6373 136.218 43.736C136.218 42.792 136.391 41.976 136.738 41.288C137.085 40.5947 137.567 40.0613 138.186 39.688C138.81 39.3093 139.541 39.12 140.378 39.12C141.247 39.12 141.986 39.32 142.594 39.72C143.207 40.12 143.666 40.6907 143.97 41.432C144.279 42.1733 144.413 43.056 144.37 44.08H142.93V43.568C142.914 42.5067 142.698 41.7147 142.282 41.192C141.866 40.664 141.247 40.4 140.426 40.4C139.546 40.4 138.877 40.6827 138.418 41.248C137.959 41.8133 137.73 42.624 137.73 43.68C137.73 44.6987 137.959 45.488 138.418 46.048C138.877 46.608 139.53 46.888 140.378 46.888C140.949 46.888 141.445 46.7573 141.866 46.496C142.287 46.2347 142.618 45.8587 142.858 45.368L144.226 45.84C143.89 46.6027 143.383 47.1947 142.706 47.616C142.034 48.032 141.279 48.24 140.442 48.24ZM137.25 44.08V42.936H143.634V44.08H137.25ZM158.394 48.232L155.25 45.104L156.186 44.168L159.314 47.296L158.394 48.232ZM154.09 48.24C152.944 48.24 151.97 47.9867 151.17 47.48C150.37 46.9733 149.76 46.2693 149.338 45.368C148.922 44.4667 148.714 43.424 148.714 42.24C148.714 41.056 148.922 40.0133 149.338 39.112C149.76 38.2107 150.37 37.5067 151.17 37C151.97 36.4933 152.944 36.24 154.09 36.24C155.242 36.24 156.218 36.4933 157.018 37C157.818 37.5067 158.426 38.2107 158.842 39.112C159.258 40.0133 159.466 41.056 159.466 42.24C159.466 43.424 159.258 44.4667 158.842 45.368C158.426 46.2693 157.818 46.9733 157.018 47.48C156.218 47.9867 155.242 48.24 154.09 48.24ZM154.09 46.88C154.949 46.8853 155.664 46.6933 156.234 46.304C156.81 45.9093 157.24 45.3627 157.522 44.664C157.81 43.9653 157.954 43.1573 157.954 42.24C157.954 41.3173 157.81 40.5093 157.522 39.816C157.24 39.1227 156.81 38.5813 156.234 38.192C155.664 37.8027 154.949 37.6053 154.09 37.6C153.232 37.5947 152.517 37.7867 151.946 38.176C151.381 38.5653 150.954 39.1093 150.666 39.808C150.378 40.5067 150.232 41.3173 150.226 42.24C150.221 43.1573 150.362 43.9627 150.65 44.656C150.938 45.3493 151.368 45.8933 151.938 46.288C152.514 46.6773 153.232 46.8747 154.09 46.88ZM164.353 48.224C163.798 48.224 163.321 48.136 162.921 47.96C162.526 47.784 162.198 47.5493 161.937 47.256C161.676 46.9627 161.47 46.6373 161.321 46.28C161.172 45.9227 161.065 45.5573 161.001 45.184C160.942 44.8107 160.913 44.4613 160.913 44.136V39.36H162.353V43.688C162.353 44.0933 162.39 44.4853 162.465 44.864C162.54 45.2427 162.665 45.584 162.841 45.888C163.022 46.192 163.262 46.432 163.561 46.608C163.865 46.784 164.244 46.872 164.697 46.872C165.054 46.872 165.38 46.8107 165.673 46.688C165.966 46.5653 166.217 46.384 166.425 46.144C166.633 45.8987 166.793 45.5893 166.905 45.216C167.017 44.8427 167.073 44.408 167.073 43.912L168.009 44.2C168.009 45.032 167.857 45.7493 167.553 46.352C167.254 46.9547 166.83 47.4187 166.281 47.744C165.737 48.064 165.094 48.224 164.353 48.224ZM167.233 48V45.688H167.073V39.36H168.505V48H167.233ZM174.425 48.24C173.566 48.24 172.825 48.0453 172.201 47.656C171.582 47.2667 171.105 46.728 170.769 46.04C170.433 45.352 170.265 44.5627 170.265 43.672C170.265 42.7653 170.436 41.9707 170.777 41.288C171.118 40.6053 171.601 40.0747 172.225 39.696C172.849 39.312 173.582 39.12 174.425 39.12C175.289 39.12 176.033 39.3147 176.657 39.704C177.281 40.088 177.758 40.624 178.089 41.312C178.425 41.9947 178.593 42.7813 178.593 43.672C178.593 44.5733 178.425 45.368 178.089 46.056C177.753 46.7387 177.273 47.2747 176.649 47.664C176.025 48.048 175.284 48.24 174.425 48.24ZM174.425 46.888C175.321 46.888 175.988 46.5893 176.425 45.992C176.862 45.3947 177.081 44.6213 177.081 43.672C177.081 42.696 176.86 41.92 176.417 41.344C175.974 40.7627 175.31 40.472 174.425 40.472C173.822 40.472 173.326 40.608 172.937 40.88C172.548 41.152 172.257 41.528 172.065 42.008C171.873 42.488 171.777 43.0427 171.777 43.672C171.777 44.6427 172.001 45.4213 172.449 46.008C172.897 46.5947 173.556 46.888 174.425 46.888ZM185.178 48C184.666 48.1013 184.16 48.1413 183.658 48.12C183.162 48.104 182.72 48.0053 182.33 47.824C181.941 47.6373 181.645 47.3493 181.442 46.96C181.272 46.6187 181.178 46.2747 181.162 45.928C181.152 45.576 181.146 45.1787 181.146 44.736V36.96H182.57V44.672C182.57 45.024 182.573 45.3253 182.578 45.576C182.589 45.8267 182.645 46.0427 182.746 46.224C182.938 46.5653 183.242 46.7653 183.658 46.824C184.08 46.8827 184.586 46.8667 185.178 46.776V48ZM179.394 40.536V39.36H185.178V40.536H179.394ZM190.317 48.24C189.469 48.24 188.728 48.0533 188.093 47.68C187.464 47.3013 186.973 46.776 186.621 46.104C186.269 45.4267 186.093 44.6373 186.093 43.736C186.093 42.792 186.266 41.976 186.613 41.288C186.96 40.5947 187.442 40.0613 188.061 39.688C188.685 39.3093 189.416 39.12 190.253 39.12C191.122 39.12 191.861 39.32 192.469 39.72C193.082 40.12 193.541 40.6907 193.845 41.432C194.154 42.1733 194.288 43.056 194.245 44.08H192.805V43.568C192.789 42.5067 192.573 41.7147 192.157 41.192C191.741 40.664 191.122 40.4 190.301 40.4C189.421 40.4 188.752 40.6827 188.293 41.248C187.834 41.8133 187.605 42.624 187.605 43.68C187.605 44.6987 187.834 45.488 188.293 46.048C188.752 46.608 189.405 46.888 190.253 46.888C190.824 46.888 191.32 46.7573 191.741 46.496C192.162 46.2347 192.493 45.8587 192.733 45.368L194.101 45.84C193.765 46.6027 193.258 47.1947 192.581 47.616C191.909 48.032 191.154 48.24 190.317 48.24ZM187.125 44.08V42.936H193.509V44.08H187.125ZM199.29 48.232C198.261 48.232 197.416 48.008 196.754 47.56C196.098 47.1067 195.696 46.4747 195.546 45.664L197.002 45.432C197.12 45.9013 197.389 46.2747 197.81 46.552C198.232 46.824 198.754 46.96 199.378 46.96C199.97 46.96 200.434 46.8373 200.77 46.592C201.106 46.3467 201.274 46.0133 201.274 45.592C201.274 45.3467 201.218 45.1493 201.106 45C200.994 44.8453 200.762 44.7013 200.41 44.568C200.064 44.4347 199.538 44.2747 198.834 44.088C198.072 43.8853 197.472 43.6747 197.034 43.456C196.597 43.2373 196.285 42.984 196.098 42.696C195.912 42.408 195.818 42.0587 195.818 41.648C195.818 41.1413 195.957 40.6987 196.234 40.32C196.512 39.936 196.898 39.64 197.394 39.432C197.896 39.224 198.477 39.12 199.138 39.12C199.794 39.12 200.381 39.224 200.898 39.432C201.416 39.64 201.832 39.936 202.146 40.32C202.466 40.6987 202.656 41.1413 202.714 41.648L201.258 41.912C201.189 41.448 200.965 41.0827 200.586 40.816C200.213 40.5493 199.73 40.408 199.138 40.392C198.578 40.3707 198.122 40.4693 197.77 40.688C197.424 40.9067 197.25 41.2027 197.25 41.576C197.25 41.784 197.314 41.9627 197.442 42.112C197.576 42.2613 197.818 42.4027 198.17 42.536C198.528 42.6693 199.045 42.8213 199.722 42.992C200.485 43.184 201.085 43.3947 201.522 43.624C201.965 43.848 202.28 44.1147 202.466 44.424C202.653 44.728 202.746 45.104 202.746 45.552C202.746 46.384 202.44 47.04 201.826 47.52C201.213 47.9947 200.368 48.232 199.29 48.232Z" fill="#6B6A6E"/>
</g>
<path d="M5.18 81.76H3.4V80.1L7.16 76.64H1.08V74.38H10.36V76.42L6.8 79.7C9.04 80.14 10.78 81.78 10.78 84.36C10.78 87.36 8.44 89.26 5.48 89.26C2.62 89.26 0.4 87.5 0.4 84.34H2.92C2.92 86.02 3.96 86.98 5.52 86.98C7.12 86.98 8.18 85.94 8.18 84.32C8.18 82.84 7.22 81.76 5.18 81.76ZM15.0714 76.68H11.8714V74.38H17.5314V89H15.0714V76.68ZM22.7667 76.68H19.5667V74.38H25.2267V89H22.7667V76.68ZM29.7555 89.24C28.8755 89.24 28.1355 88.52 28.1355 87.66C28.1355 86.78 28.8755 86.06 29.7555 86.06C30.6355 86.06 31.3755 86.78 31.3755 87.66C31.3755 88.52 30.6355 89.24 29.7555 89.24ZM34.5831 76.68H31.3831V74.38H37.0431V89H34.5831V76.68ZM39.3752 84.86C39.3752 83.12 40.3552 81.72 41.8752 81.14C40.5952 80.56 39.8952 79.46 39.8952 78.04C39.8952 75.72 41.9552 74.12 44.9752 74.12C47.9752 74.12 49.9952 75.7 49.9952 78.08C49.9952 79.5 49.2752 80.6 47.9752 81.14C49.5152 81.68 50.5152 83.1 50.5152 84.86C50.5152 87.5 48.3352 89.24 44.9352 89.24C41.5552 89.24 39.3752 87.52 39.3752 84.86ZM42.2152 78.26C42.2152 79.48 43.2752 80.26 44.9352 80.26C46.5752 80.26 47.6152 79.5 47.6152 78.28C47.6152 77.06 46.5752 76.3 44.9352 76.3C43.2752 76.3 42.2152 77.06 42.2152 78.26ZM41.8752 84.68C41.8752 86.1 43.0552 86.98 44.9552 86.98C46.8152 86.98 47.9952 86.1 47.9952 84.68C47.9952 83.26 46.8152 82.38 44.9352 82.38C43.0552 82.38 41.8752 83.26 41.8752 84.68ZM56.5477 90.9V89.24C53.7677 89.04 51.9877 87.42 51.9277 84.98H54.4877C54.5077 86.12 55.2477 86.84 56.5477 87V82.74L55.9077 82.6C53.3877 82.06 52.1277 80.66 52.1277 78.46C52.1277 76.12 53.8877 74.44 56.5477 74.16V72.46H58.0877V74.16C60.6077 74.42 62.1677 76 62.2477 78.4H59.7677C59.7277 77.32 59.1277 76.62 58.0877 76.4V80.7L58.7677 80.86C61.3277 81.42 62.4877 82.66 62.4877 84.78C62.4877 87.22 60.7677 88.9 58.0877 89.2V90.9H56.5477ZM56.4677 80.34L56.5477 80.36V76.38C55.3477 76.58 54.6277 77.3 54.6277 78.38C54.6277 79.44 55.1877 80.06 56.4677 80.34ZM58.2277 83.1L58.0877 83.06V86.96C59.2877 86.72 60.0077 86.02 60.0077 85C60.0077 83.98 59.4277 83.36 58.2277 83.1Z" fill="#171717"/>
<path d="M77.2 81.845H80.35V78.695H81.55V81.845H84.7V83.045H81.55V86.21H80.35V83.045H77.2V81.845ZM86.6373 82.085C86.6373 78.725 88.3773 76.445 91.1073 76.445C93.8223 76.445 95.5623 78.725 95.5623 82.085C95.5623 85.46 93.8973 87.695 91.1073 87.695C88.3023 87.695 86.6373 85.46 86.6373 82.085ZM88.0923 82.085C88.0923 84.755 89.2023 86.375 91.1073 86.375C93.0123 86.375 94.1073 84.755 94.1073 82.085C94.1073 79.385 93.0123 77.765 91.1073 77.765C89.2023 77.765 88.0923 79.385 88.0923 82.085ZM97.7575 87.68C97.1725 87.68 96.6775 87.2 96.6775 86.63C96.6775 86.045 97.1725 85.565 97.7575 85.565C98.3275 85.565 98.8225 86.045 98.8225 86.63C98.8225 87.2 98.3275 87.68 97.7575 87.68ZM101.422 77.975H99.1422V76.655H102.832V87.5H101.422V77.975ZM111.131 84.065L108.596 87.5H106.886L109.601 83.9C109.226 84.05 108.836 84.125 108.461 84.125C106.211 84.125 104.696 82.505 104.696 80.345C104.696 78.095 106.406 76.46 108.641 76.46C110.891 76.46 112.631 78.155 112.631 80.36C112.631 81.635 112.241 82.55 111.131 84.065ZM111.131 80.345C111.131 78.86 110.111 77.78 108.641 77.78C107.201 77.78 106.181 78.86 106.181 80.345C106.181 81.83 107.201 82.88 108.641 82.88C110.111 82.88 111.131 81.83 111.131 80.345ZM117.106 88.955V87.665C115.126 87.545 113.821 86.42 113.731 84.665H115.231C115.261 85.625 115.966 86.255 117.106 86.375V82.64L116.566 82.52C114.796 82.115 113.881 81.125 113.881 79.58C113.881 77.87 115.156 76.655 117.106 76.49V75.185H118.066V76.475C119.881 76.64 121.036 77.75 121.141 79.49H119.686C119.626 78.53 119.041 77.915 118.066 77.78V81.5L118.651 81.635C120.451 82.04 121.321 82.985 121.321 84.485C121.321 86.27 120.046 87.47 118.066 87.65V88.955H117.106ZM116.866 81.215L117.106 81.275V77.78C115.996 77.93 115.321 78.575 115.321 79.535C115.321 80.405 115.816 80.96 116.866 81.215ZM118.351 82.94L118.066 82.88V86.345C119.191 86.195 119.881 85.55 119.881 84.605C119.881 83.735 119.386 83.18 118.351 82.94ZM130.195 90.095H129.025C127.645 88.37 126.73 85.76 126.73 83.045C126.73 80.495 127.555 77.825 129.025 76.01H130.195C129.01 77.66 128.17 80.24 128.17 83.045C128.17 85.7 128.92 88.34 130.195 90.095ZM134.579 87.68C132.359 87.68 130.919 86.27 130.919 84.11H132.374C132.374 85.505 133.229 86.36 134.609 86.36C136.079 86.36 137.024 85.385 137.024 83.915C137.024 82.52 136.139 81.485 134.624 81.485C133.709 81.485 132.869 81.92 132.374 82.535L131.129 82.22L132.449 76.655H137.879V78.005H133.514L132.794 80.885C133.364 80.45 134.084 80.225 134.894 80.225C137.099 80.225 138.524 81.77 138.524 83.855C138.524 86.105 136.919 87.68 134.579 87.68ZM140.809 87.68C140.224 87.68 139.729 87.2 139.729 86.63C139.729 86.045 140.224 85.565 140.809 85.565C141.379 85.565 141.874 86.045 141.874 86.63C141.874 87.2 141.379 87.68 140.809 87.68ZM142.551 76.655H150.126V78.005L146.016 87.5H144.486L148.641 78.005H142.551V76.655ZM151.091 76.655H158.666V78.005L154.556 87.5H153.026L157.181 78.005H151.091V76.655ZM164.869 79.22C164.869 80.825 163.729 81.98 162.124 81.98C160.534 81.98 159.394 80.825 159.394 79.22C159.394 77.6 160.534 76.445 162.124 76.445C163.729 76.445 164.869 77.6 164.869 79.22ZM170.584 76.67L162.349 87.5H160.909L169.144 76.67H170.584ZM163.714 79.22C163.714 78.245 163.069 77.57 162.124 77.57C161.194 77.57 160.549 78.245 160.549 79.22C160.549 80.18 161.194 80.855 162.124 80.855C163.054 80.855 163.714 80.18 163.714 79.22ZM172.129 84.935C172.129 86.54 170.974 87.695 169.384 87.695C167.794 87.695 166.639 86.54 166.639 84.935C166.639 83.315 167.794 82.175 169.384 82.175C170.974 82.175 172.129 83.315 172.129 84.935ZM170.959 84.935C170.959 83.96 170.329 83.285 169.384 83.285C168.454 83.285 167.809 83.96 167.809 84.935C167.809 85.895 168.454 86.57 169.384 86.57C170.314 86.57 170.959 85.895 170.959 84.935ZM173.923 90.095H172.738C174.013 88.34 174.763 85.7 174.763 83.045C174.763 80.24 173.938 77.66 172.738 76.01H173.923C175.378 77.825 176.203 80.495 176.203 83.045C176.203 85.76 175.288 88.37 173.923 90.095Z" fill="#00A82D"/>
<defs>
<clipPath id="clip0_331_1084">
<rect y="0.5" width="52" height="52" rx="26" fill="white"/>
</clipPath>
<clipPath id="clip1_331_1084">
<rect width="132" height="53" fill="white" transform="translate(72)"/>
</clipPath>
</defs>
</svg>
