<svg width="664" height="231" viewBox="0 0 664 231" fill="none" xmlns="http://www.w3.org/2000/svg">
<g opacity="0.1">
<rect x="656.865" y="44.0232" width="6.71553" height="14.7336" fill="#FF5555" stroke="#FF5555" stroke-width="0.839454"/>
<path d="M660.223 22.8398V62.8106" stroke="#FF5555" stroke-width="0.839454"/>
<rect x="645.955" y="34.6814" width="6.71553" height="8.50436" fill="#FF5555" stroke="#FF5555" stroke-width="0.839454"/>
<path d="M649.312 22.3223V92.4009" stroke="#FF5555" stroke-width="0.839454"/>
<rect x="624.127" y="58.0408" width="6.71553" height="7.46616" fill="#FF5555" stroke="#FF5555" stroke-width="0.839454"/>
<path d="M627.484 45.1621V72.6745" stroke="#FF5555" stroke-width="0.839454"/>
<rect x="613.217" y="34.6814" width="6.71553" height="22.5201" fill="#FF5555" stroke="#FF5555" stroke-width="0.839454"/>
<path d="M616.574 33.2227V59.1777" stroke="#FF5555" stroke-width="0.839454"/>
<rect x="602.303" y="28.9705" width="6.71553" height="4.87066" fill="#FF5555" stroke="#FF5555" stroke-width="0.839454"/>
<path d="M605.66 23.8789V38.9328" stroke="#FF5555" stroke-width="0.839454"/>
<rect x="580.474" y="35.201" width="6.71553" height="13.1763" fill="#FF5555" stroke="#FF5555" stroke-width="0.839454"/>
<path d="M583.832 31.1465V77.3465" stroke="#FF5555" stroke-width="0.839454"/>
<rect x="569.564" y="23.7791" width="6.71558" height="11.0999" fill="#FF5555" stroke="#FF5555" stroke-width="0.839454"/>
<path d="M572.922 21.8027V49.8342" stroke="#FF5555" stroke-width="0.839454"/>
<rect x="504.084" y="48.6971" width="6.71553" height="38.6122" fill="#FF5555" stroke="#FF5555" stroke-width="0.839454"/>
<path d="M507.441 44.123V88.7657" stroke="#FF5555" stroke-width="0.839454"/>
<rect x="460.435" y="89.1854" width="6.71558" height="16.81" fill="#FF5555" stroke="#FF5555" stroke-width="0.839454"/>
<path d="M463.793 59.6973V112.126" stroke="#FF5555" stroke-width="0.839454"/>
<rect x="427.693" y="100.607" width="6.71556" height="32.9021" fill="#FF5555" stroke="#FF5555" stroke-width="0.839454"/>
<path d="M431.051 97.5918V148.983" stroke="#FF5555" stroke-width="0.839454"/>
<rect x="362.221" y="152.515" width="6.71556" height="3.83246" fill="#FF5555" stroke="#FF5555" stroke-width="0.839454"/>
<path d="M365.578 145.867V164.555" stroke="#FF5555" stroke-width="0.839454"/>
<rect x="307.658" y="168.09" width="6.71556" height="17.3291" fill="#FF5555" stroke="#FF5555" stroke-width="0.839454"/>
<path d="M311.016 162.479V192.586" stroke="#FF5555" stroke-width="0.839454"/>
<rect x="296.744" y="161.861" width="6.71553" height="5.38976" fill="#FF5555" stroke="#FF5555" stroke-width="0.839454"/>
<path d="M300.102 149.502V174.938" stroke="#FF5555" stroke-width="0.839454"/>
<rect x="264.006" y="166.533" width="6.71553" height="11.619" fill="#FF5555" stroke="#FF5555" stroke-width="0.839454"/>
<path d="M267.363 165.074V180.128" stroke="#FF5555" stroke-width="0.839454"/>
<rect x="231.267" y="173.279" width="6.71553" height="6.42796" fill="#FF5555" stroke="#FF5555" stroke-width="0.839454"/>
<path d="M234.625 159.363V187.914" stroke="#FF5555" stroke-width="0.839454"/>
<rect x="220.354" y="166.014" width="6.71556" height="6.42796" fill="#FF5555" stroke="#FF5555" stroke-width="0.839454"/>
<path d="M223.711 153.135V180.647" stroke="#FF5555" stroke-width="0.839454"/>
<rect x="209.439" y="151.998" width="6.71555" height="13.6954" fill="#FF5555" stroke="#FF5555" stroke-width="0.839454"/>
<path d="M212.797 109.531V170.785" stroke="#FF5555" stroke-width="0.839454"/>
<rect x="198.529" y="141.615" width="6.71555" height="9.54257" fill="#FF5555" stroke="#FF5555" stroke-width="0.839454"/>
<path d="M201.887 92.4004V216.985" stroke="#FF5555" stroke-width="0.839454"/>
<rect x="176.701" y="168.607" width="6.71553" height="15.2527" fill="#FF5555" stroke="#FF5555" stroke-width="0.839454"/>
<path d="M180.059 126.66V195.701" stroke="#FF5555" stroke-width="0.839454"/>
<rect x="154.877" y="189.373" width="6.71555" height="3.83246" fill="#FF5555" stroke="#FF5555" stroke-width="0.839454"/>
<path d="M158.234 173.898V203.487" stroke="#FF5555" stroke-width="0.839454"/>
<rect x="133.053" y="196.64" width="6.71555" height="2.79426" fill="#FF5555" stroke="#FF5555" stroke-width="0.839454"/>
<path d="M136.41 162.998V201.412" stroke="#FF5555" stroke-width="0.839454"/>
<rect x="122.138" y="176.914" width="6.71553" height="18.8864" fill="#FF5555" stroke="#FF5555" stroke-width="0.839454"/>
<path d="M125.496 164.555V200.892" stroke="#FF5555" stroke-width="0.839454"/>
<rect x="87.7244" y="201.83" width="6.71555" height="10.5808" fill="#FF5555" stroke="#FF5555" stroke-width="0.839454"/>
<path d="M91.082 199.334V230.999" stroke="#FF5555" stroke-width="0.839454"/>
<rect x="54.9861" y="174.318" width="6.71554" height="33.9403" fill="#FF5555" stroke="#FF5555" stroke-width="0.839454"/>
<path d="M58.3438 167.15V209.717" stroke="#FF5555" stroke-width="0.839454"/>
<rect x="44.0721" y="158.744" width="6.71554" height="14.7336" fill="#FF5555" stroke="#FF5555" stroke-width="0.839454"/>
<path d="M47.4297 157.287V177.013" stroke="#FF5555" stroke-width="0.839454"/>
<rect x="22.2479" y="154.072" width="6.71554" height="9.54257" fill="#FF5555" stroke="#FF5555" stroke-width="0.839454"/>
<path d="M25.6055 152.615V164.555" stroke="#FF5555" stroke-width="0.839454"/>
<rect x="0.419727" y="157.707" width="6.71554" height="3.83246" fill="#FF5555" stroke="#FF5555" stroke-width="0.839454"/>
<path d="M3.77759 144.31L3.77759 172.861" stroke="#FF5555" stroke-width="0.839454"/>
<rect x="65.8963" y="209.097" width="6.71554" height="6.94707" fill="#FF5555" stroke="#FF5555" stroke-width="0.839454"/>
<path d="M69.2539 194.662V221.655" stroke="#FF5555" stroke-width="0.839454"/>
<rect x="591.388" y="28.9705" width="6.71553" height="19.4055" fill="#11D07F" stroke="#11D07F" stroke-width="0.839454"/>
<path d="M594.746 24.3984V60.7355" stroke="#11D07F" stroke-width="0.839454"/>
<rect x="558.65" y="23.779" width="6.71553" height="36.0167" fill="#11D07F" stroke="#11D07F" stroke-width="0.839454"/>
<path d="M562.008 21.2831V60.2157" stroke="#11D07F" stroke-width="0.839454"/>
<rect x="547.736" y="60.6346" width="6.71553" height="7.98526" fill="#11D07F" stroke="#11D07F" stroke-width="0.839454"/>
<path d="M551.094 60.2148V78.9025" stroke="#11D07F" stroke-width="0.839454"/>
<rect x="536.666" y="69.3025" width="7.03588" height="0.519103" fill="#11D07F" stroke="#11D07F" stroke-width="0.519103"/>
<path d="M540.184 57.6211V75.7896" stroke="#11D07F" stroke-width="0.839454"/>
<rect x="525.912" y="70.4979" width="6.71553" height="6.94706" fill="#11D07F" stroke="#11D07F" stroke-width="0.839454"/>
<path d="M529.27 69.0411V88.767" stroke="#11D07F" stroke-width="0.839454"/>
<rect x="514.998" y="78.283" width="6.71553" height="9.02346" fill="#11D07F" stroke="#11D07F" stroke-width="0.839454"/>
<path d="M518.355 68.002V97.0716" stroke="#11D07F" stroke-width="0.839454"/>
<rect x="493.174" y="48.6971" width="6.71553" height="34.4594" fill="#11D07F" stroke="#11D07F" stroke-width="0.839454"/>
<path d="M496.531 46.7188V94.9952" stroke="#11D07F" stroke-width="0.839454"/>
<rect x="482.26" y="83.9939" width="6.71553" height="3.31335" fill="#11D07F" stroke="#11D07F" stroke-width="0.839454"/>
<path d="M485.617 76.8262V104.858" stroke="#11D07F" stroke-width="0.839454"/>
<rect x="471.349" y="88.1482" width="6.71553" height="17.8482" fill="#11D07F" stroke="#11D07F" stroke-width="0.839454"/>
<path d="M474.707 64.3691V120.432" stroke="#11D07F" stroke-width="0.839454"/>
<rect x="449.521" y="89.1873" width="6.71553" height="2.79425" fill="#11D07F" stroke="#11D07F" stroke-width="0.839454"/>
<path d="M452.879 57.6212V113.684" stroke="#11D07F" stroke-width="0.839454"/>
<rect x="438.607" y="92.8182" width="6.71553" height="40.6886" fill="#11D07F" stroke="#11D07F" stroke-width="0.839454"/>
<path d="M441.965 81.498V152.096" stroke="#11D07F" stroke-width="0.839454"/>
<rect x="416.783" y="100.607" width="6.71556" height="12.6572" fill="#11D07F" stroke="#11D07F" stroke-width="0.839454"/>
<path d="M420.141 71.6367V114.203" stroke="#11D07F" stroke-width="0.839454"/>
<rect x="405.869" y="114.103" width="6.71553" height="20.9628" fill="#11D07F" stroke="#11D07F" stroke-width="0.839454"/>
<path d="M409.227 106.936V150.021" stroke="#11D07F" stroke-width="0.839454"/>
<rect x="394.955" y="135.904" width="6.71553" height="2.79424" fill="#11D07F" stroke="#11D07F" stroke-width="0.839454"/>
<path d="M398.316 103.82V158.326" stroke="#11D07F" stroke-width="0.839454"/>
<rect x="384.045" y="139.539" width="6.71556" height="1.75606" fill="#11D07F" stroke="#11D07F" stroke-width="0.839454"/>
<path d="M387.402 121.988V164.035" stroke="#11D07F" stroke-width="0.839454"/>
<rect x="373.135" y="141.615" width="6.71553" height="14.7336" fill="#11D07F" stroke="#11D07F" stroke-width="0.839454"/>
<path d="M376.492 131.852V160.921" stroke="#11D07F" stroke-width="0.839454"/>
<rect x="351.306" y="152.517" width="6.71553" height="1.75604" fill="#11D07F" stroke="#11D07F" stroke-width="0.839454"/>
<path d="M354.668 143.791V159.883" stroke="#11D07F" stroke-width="0.839454"/>
<rect x="340.396" y="155.113" width="6.71553" height="5.90887" fill="#11D07F" stroke="#11D07F" stroke-width="0.839454"/>
<path d="M343.754 149.502V170.266" stroke="#11D07F" stroke-width="0.839454"/>
<rect x="329.482" y="161.861" width="6.71556" height="10.0617" fill="#11D07F" stroke="#11D07F" stroke-width="0.839454"/>
<path d="M332.84 156.25V177.533" stroke="#11D07F" stroke-width="0.839454"/>
<rect x="318.568" y="172.762" width="6.71553" height="12.6572" fill="#11D07F" stroke="#11D07F" stroke-width="0.839454"/>
<path d="M321.926 162.998V188.953" stroke="#11D07F" stroke-width="0.839454"/>
<rect x="285.83" y="161.861" width="6.71553" height="14.7336" fill="#11D07F" stroke="#11D07F" stroke-width="0.839454"/>
<path d="M289.188 159.363V172.86" stroke="#11D07F" stroke-width="0.839454"/>
<rect x="274.889" y="177.403" width="6.77636" height="0.77865" fill="#11D07F" stroke="#11D07F" stroke-width="0.77865"/>
<path d="M278.277 162.998V185.838" stroke="#11D07F" stroke-width="0.839454"/>
<rect x="253.092" y="166.533" width="6.71553" height="3.83246" fill="#11D07F" stroke="#11D07F" stroke-width="0.839454"/>
<path d="M256.449 158.846V183.763" stroke="#11D07F" stroke-width="0.839454"/>
<rect x="242.178" y="171.203" width="6.71553" height="8.50436" fill="#11D07F" stroke="#11D07F" stroke-width="0.839454"/>
<path d="M245.539 156.768V183.242" stroke="#11D07F" stroke-width="0.839454"/>
<rect x="187.615" y="141.615" width="6.71555" height="42.2459" fill="#11D07F" stroke="#11D07F" stroke-width="0.839454"/>
<path d="M190.973 126.66V184.28" stroke="#11D07F" stroke-width="0.839454"/>
<rect x="165.787" y="168.609" width="6.71553" height="24.5965" fill="#11D07F" stroke="#11D07F" stroke-width="0.839454"/>
<path d="M169.145 161.441V195.702" stroke="#11D07F" stroke-width="0.839454"/>
<rect x="143.963" y="189.373" width="6.71555" height="10.0617" fill="#11D07F" stroke="#11D07F" stroke-width="0.839454"/>
<path d="M147.32 169.746V204.007" stroke="#11D07F" stroke-width="0.839454"/>
<rect x="111.228" y="176.914" width="6.71553" height="10.0617" fill="#11D07F" stroke="#11D07F" stroke-width="0.839454"/>
<path d="M114.586 167.15V205.045" stroke="#11D07F" stroke-width="0.839454"/>
<rect x="98.6346" y="187.814" width="6.71554" height="24.5965" fill="#11D07F" stroke="#11D07F" stroke-width="0.839454"/>
<path d="M101.992 186.357V213.87" stroke="#11D07F" stroke-width="0.839454"/>
<rect x="76.8104" y="201.83" width="6.71554" height="14.2145" fill="#11D07F" stroke="#11D07F" stroke-width="0.839454"/>
<path d="M80.168 197.258V216.464" stroke="#11D07F" stroke-width="0.839454"/>
<rect x="33.158" y="158.744" width="6.71554" height="4.87066" fill="#11D07F" stroke="#11D07F" stroke-width="0.839454"/>
<path d="M36.5156 156.768V180.646" stroke="#11D07F" stroke-width="0.839454"/>
<rect x="11.3338" y="154.074" width="6.71554" height="7.46617" fill="#11D07F" stroke="#11D07F" stroke-width="0.839454"/>
<path d="M14.6914 141.715L14.6914 165.593" stroke="#11D07F" stroke-width="0.839454"/>
<rect x="635.041" y="34.6795" width="6.71553" height="30.8257" fill="#11D07F" stroke="#11D07F" stroke-width="0.839454"/>
<path d="M638.398 0V65.9258" stroke="#11D07F" stroke-width="0.839454"/>
</g>
</svg>
