<svg width="60" height="60" viewBox="0 0 60 60" fill="none" xmlns="http://www.w3.org/2000/svg">
<path d="M30.2109 1C33.0586 1 35.4048 1.96623 37.3457 3.89648C39.1605 5.70127 40.1135 7.88241 40.2168 10.4854L40.2266 11.0117V11.0156C40.2266 13.8623 39.261 16.2079 37.332 18.1484C35.4048 20.0757 33.0485 21.043 30.1992 21.043C27.3622 21.043 25.0058 20.0761 23.0781 18.1484C21.1509 16.2212 20.1836 13.8649 20.1836 11.0156C20.1836 8.16797 21.1498 5.82177 23.0801 3.88086C25.0026 1.94776 27.3675 1 30.2109 1Z" stroke="#00A82D" stroke-width="2"/>
<path d="M52.9443 21.0215C53.8292 20.9289 54.6279 21.5555 54.7529 22.4355C54.7515 22.4881 54.7529 22.5327 54.7539 22.5654C54.7548 22.5945 54.7563 22.6304 54.7568 22.6426C54.7576 22.6612 54.7578 22.6653 54.7578 22.6641V48.0234C54.7578 48.8914 54.0878 49.6038 53.2295 49.6621L53.2266 49.6631C49.5582 49.9227 45.9424 50.7211 42.5088 52.0303L41.8242 52.2998C38.1786 53.7629 34.7546 55.7317 31.6514 58.1475L31.042 58.6309C30.4337 59.1146 29.578 59.1146 28.9697 58.6309H28.9688C25.7064 55.9934 22.0725 53.8592 18.1865 52.2998H18.1875C14.5514 50.8309 10.6981 49.94 6.78516 49.6631L6.78223 49.6621C5.92671 49.604 5.25392 48.8825 5.25391 48.0234V22.6719C5.26136 21.7516 6.00308 21.0156 6.91406 21.0156C7.01384 21.0156 7.03635 21.0166 7.05957 21.0195L7.07129 21.0215L7.08301 21.0225C10.4556 21.362 13.817 22.3021 17.1807 23.8643V23.8633C21.4804 25.8646 25.5388 28.6605 29.3213 32.2705L30.0098 32.9268L30.7002 32.2725C34.4975 28.6708 38.5456 25.8638 42.8438 23.8633H42.8447C46.1951 22.3021 49.5673 21.362 52.9404 21.0225L52.9443 21.0215Z" stroke="#00A82D" stroke-width="2"/>
</svg>
