<svg width="102" height="102" viewBox="0 0 102 102" fill="none" xmlns="http://www.w3.org/2000/svg">
<g filter="url(#filter0_d_331_2157)">
<circle cx="50" cy="50" r="50" fill="white"/>
</g>
<path d="M65.7499 51.9175C64.942 54.9617 61.1238 57.1129 53.4874 61.4151C46.1053 65.5741 42.4142 67.6536 39.4396 66.8177C38.2098 66.4721 37.0893 65.8158 36.1857 64.9117C34 62.7248 34 58.4832 34 50C34 41.5168 34 37.2752 36.1857 35.0883C37.0893 34.1842 38.2098 33.5279 39.4396 33.1823C42.4142 32.3464 46.1053 34.4259 53.4874 38.5849C61.1238 42.8871 64.942 45.0383 65.7499 48.0825C66.0834 49.339 66.0834 50.661 65.7499 51.9175Z" fill="#00A82D"/>
<defs>
<filter id="filter0_d_331_2157" x="0" y="0" width="102" height="102" filterUnits="userSpaceOnUse" color-interpolation-filters="sRGB">
<feFlood flood-opacity="0" result="BackgroundImageFix"/>
<feColorMatrix in="SourceAlpha" type="matrix" values="0 0 0 0 0 0 0 0 0 0 0 0 0 0 0 0 0 0 127 0" result="hardAlpha"/>
<feOffset dx="2" dy="2"/>
<feComposite in2="hardAlpha" operator="out"/>
<feColorMatrix type="matrix" values="0 0 0 0 0.490196 0 0 0 0 0.811765 0 0 0 0 0.560784 0 0 0 1 0"/>
<feBlend mode="normal" in2="BackgroundImageFix" result="effect1_dropShadow_331_2157"/>
<feBlend mode="normal" in="SourceGraphic" in2="effect1_dropShadow_331_2157" result="shape"/>
</filter>
</defs>
</svg>
