<svg width="60" height="60" viewBox="0 0 60 60" fill="none" xmlns="http://www.w3.org/2000/svg">
<path d="M29.9819 36.9941C30.7944 37.9699 31.0188 39.2175 30.5824 40.3314C30.0779 41.6187 28.8255 42.511 27.2324 42.7181C27.1888 42.7239 27.1447 42.7283 27.1008 42.7331V43.8629C27.1008 44.1116 27.002 44.35 26.8262 44.5258C26.6504 44.7016 26.4119 44.8004 26.1633 44.8004C25.9146 44.8004 25.6762 44.7016 25.5003 44.5258C25.3245 44.35 25.2258 44.1116 25.2258 43.8629V42.6676C23.4785 42.3471 21.8659 41.2738 21.393 39.217C21.3645 39.0967 21.36 38.9719 21.3798 38.8498C21.3997 38.7277 21.4435 38.6108 21.5088 38.5057C21.5741 38.4007 21.6595 38.3096 21.7601 38.2377C21.8608 38.1657 21.9746 38.1145 22.0952 38.0868C22.2157 38.0591 22.3405 38.0555 22.4625 38.0762C22.5844 38.097 22.701 38.1416 22.8056 38.2077C22.9102 38.2737 23.0007 38.3598 23.0719 38.4609C23.143 38.562 23.1935 38.6763 23.2203 38.797C23.614 40.5092 25.3971 41.0661 26.9904 40.8595C27.8818 40.7435 28.5892 40.2792 28.8367 39.6478C29.0253 39.1662 28.9204 38.6501 28.5411 38.1947C27.9149 37.4428 27.2271 37.3392 26.2753 37.1968C25.6531 37.1224 25.0404 36.983 24.4472 36.781C24.4374 36.7774 24.4277 36.7738 24.4181 36.7693C22.8324 36.1269 21.8986 34.8862 21.9201 33.4507C21.942 31.9841 22.9386 30.6722 24.4591 30.1084C24.7087 30.0158 24.9649 29.942 25.2255 29.8875V28.6775C25.2255 28.4289 25.3243 28.1904 25.5001 28.0146C25.6759 27.8388 25.9144 27.74 26.163 27.74C26.4117 27.74 26.6501 27.8388 26.8259 28.0146C27.0018 28.1904 27.1005 28.4289 27.1005 28.6775V29.8636C28.68 30.1658 30.0255 31.2905 30.6828 33.0253C30.7709 33.2578 30.763 33.5158 30.6608 33.7425C30.5587 33.9692 30.3707 34.146 30.1381 34.2341C29.9056 34.3222 29.6476 34.3142 29.4209 34.2121C29.1942 34.1099 29.0174 33.9219 28.9294 33.6894C28.2859 31.9902 26.7512 31.2578 25.1109 31.8661C24.3338 32.1542 23.805 32.8021 23.7949 33.4785C23.7853 34.1253 24.2512 34.6744 25.1074 35.0253C25.5773 35.1792 26.0616 35.2853 26.5528 35.3417C27.6528 35.5066 28.8989 35.6935 29.9819 36.9941ZM53.0585 48.949C51.4449 53.09 48.9494 56.2529 45.8419 58.0958C45.2501 58.4472 44.6305 58.7494 43.9894 58.9993C43.873 59.0445 43.7488 59.066 43.624 59.0625C43.4993 59.0591 43.3765 59.0307 43.2628 58.9792C40.7604 57.8442 38.7735 56.5411 37.2221 55.0016C36.4147 55.1846 35.5957 55.3124 34.7709 55.3841C34.7433 55.3865 34.7157 55.3878 34.6882 55.3878H34.6841L16.4972 55.3079C16.4605 55.3077 16.4238 55.3054 16.3874 55.3009C12.1633 54.7837 9.05646 52.8927 7.15299 49.6801C5.69881 47.2254 5.01502 43.9926 5.17521 40.3309C5.3197 37.0353 6.1283 33.455 7.51474 29.977C9.12021 25.95 11.4865 22.3708 14.7218 19.0868C14.1547 18.9118 13.6586 18.56 13.3059 18.0827C12.9532 17.6055 12.7626 17.0279 12.7618 16.4345V14.9171C12.7626 14.1816 13.0552 13.4764 13.5753 12.9563C14.0955 12.4362 14.8007 12.1436 15.5362 12.1428H18.133C16.4014 10.2368 15.5238 7.37964 15.5197 3.60655C15.5193 3.2542 15.6107 2.90781 15.7848 2.60152C15.959 2.29523 16.21 2.0396 16.513 1.85982C16.8161 1.68004 17.1607 1.58231 17.513 1.57625C17.8653 1.5702 18.2131 1.65604 18.5222 1.8253C20.6981 3.01698 22.9249 2.83534 25.3297 1.2696C25.6821 1.03582 26.0994 0.919517 26.5219 0.937325C26.9444 0.955133 27.3504 1.10614 27.6819 1.36874C29.6888 2.93026 31.991 3.01464 34.7197 1.62655C35.0271 1.47015 35.3694 1.39473 35.7141 1.40742C36.0587 1.42012 36.3945 1.5205 36.6896 1.69909C36.9847 1.87768 37.2294 2.12858 37.4005 2.42806C37.5716 2.72754 37.6635 3.06571 37.6676 3.41061C37.7144 7.28565 36.6839 10.2084 34.5972 12.1433H36.5411C37.2767 12.1441 37.9819 12.4366 38.5021 12.9567C39.0222 13.4768 39.3148 14.182 39.3156 14.9176V16.4351C39.3148 17.0514 39.1091 17.6501 38.7309 18.1368C38.3527 18.6235 37.8234 18.9707 37.2263 19.1237C40.7512 22.5745 43.7587 27.5391 45.5042 32.872L54.1865 36.5536C54.3427 36.6198 54.478 36.7272 54.5779 36.8642C54.6778 37.0013 54.7387 37.1629 54.7541 37.3318C55.0944 41.0753 54.4765 45.3098 53.0585 48.949ZM21.1542 12.1428H31.1478C34.3283 10.8021 35.8488 7.95245 35.7934 3.433C35.7931 3.40696 35.7861 3.38143 35.7732 3.35883C35.7602 3.33624 35.7417 3.31731 35.7194 3.30385C35.6971 3.2904 35.6718 3.28285 35.6458 3.28193C35.6197 3.281 35.5939 3.28674 35.5707 3.29858C32.1747 5.02534 29.1334 4.8744 26.5306 2.84893C26.5065 2.82726 26.4757 2.81466 26.4433 2.81329C26.4109 2.81193 26.3791 2.82188 26.3532 2.84143C23.3579 4.79143 20.4203 5.00296 17.6219 3.47026C17.5986 3.45744 17.5723 3.45093 17.5457 3.45138C17.519 3.45183 17.493 3.45921 17.47 3.47281C17.4471 3.48641 17.4282 3.50574 17.415 3.52891C17.4019 3.55208 17.395 3.57827 17.3951 3.60491C17.3994 8.01679 18.6297 10.8099 21.1542 12.1428ZM14.6368 16.4346C14.6371 16.6731 14.7319 16.9017 14.9006 17.0703C15.0692 17.2389 15.2978 17.3337 15.5362 17.334H36.5407C36.7791 17.3337 37.0077 17.2389 37.1764 17.0703C37.345 16.9017 37.4398 16.6731 37.4401 16.4346V14.9171C37.4398 14.6787 37.345 14.4501 37.1763 14.2815C37.0077 14.1129 36.7791 14.0181 36.5407 14.0178H15.5362C15.2978 14.0181 15.0692 14.113 14.9006 14.2815C14.732 14.4501 14.6371 14.6787 14.6368 14.9171V16.4346ZM35.8025 53.3659C35.2872 52.6713 34.8366 51.9309 34.4565 51.154C32.5125 47.1888 32.2801 41.9987 32.2148 37.4451C32.2122 37.2586 32.2652 37.0756 32.3672 36.9194C32.4691 36.7632 32.6154 36.641 32.7872 36.5683L43.1538 32.1847C43.1896 32.1698 43.2262 32.1572 43.2636 32.147C41.3216 26.9587 38.0722 22.1294 34.5197 19.2095H17.2912C13.5937 22.64 10.9631 26.3912 9.2565 30.6718C6.4815 37.6339 6.29365 44.5514 8.76619 48.7248C10.3496 51.3977 12.9718 52.9819 16.5611 53.4336L34.648 53.5131C35.0411 53.4769 35.4252 53.4262 35.8025 53.3659ZM52.9289 38.0566L43.5187 34.0662L34.0998 38.049C34.1763 42.24 34.4522 46.8858 36.14 50.3286C37.5409 53.1857 39.9395 55.3453 43.6721 57.103C44.0893 56.9222 44.4946 56.7151 44.8856 56.483C50.7127 53.0278 53.3339 44.5434 52.9289 38.0566ZM47.4486 41.1888C46.7552 41.8823 46.0648 42.5776 45.3772 43.2748C44.6904 43.9687 44.0022 44.6618 43.3125 45.3539C43.2469 45.4181 43.1588 45.4541 43.067 45.4541C42.9752 45.4541 42.887 45.4181 42.8215 45.3539C42.5237 45.0562 42.2136 44.7066 41.8853 44.3366C41.5274 43.9333 41.1575 43.5163 40.7679 43.1266C40.6808 43.0396 40.5775 42.9705 40.4637 42.9234C40.35 42.8763 40.228 42.852 40.1049 42.852C39.9818 42.852 39.8599 42.8762 39.7461 42.9233C39.6324 42.9705 39.529 43.0395 39.442 43.1266C39.3549 43.2136 39.2858 43.317 39.2387 43.4307C39.1916 43.5445 39.1673 43.6664 39.1673 43.7895C39.1673 43.9126 39.1916 44.0346 39.2387 44.1483C39.2858 44.2621 39.3548 44.3654 39.4419 44.4525C39.792 44.8026 40.1433 45.1983 40.4826 45.5809C40.8149 45.9553 41.1583 46.3426 41.4956 46.6798C41.9129 47.0955 42.478 47.3289 43.067 47.3289C43.6561 47.3289 44.2211 47.0955 44.6385 46.6798C45.3319 45.9862 46.0224 45.2909 46.71 44.5938C47.3967 43.8998 48.0849 43.2068 48.7746 42.5148C48.8617 42.4277 48.9307 42.3244 48.9778 42.2106C49.025 42.0969 49.0492 41.9749 49.0492 41.8518C49.0492 41.7287 49.025 41.6068 48.9778 41.493C48.9307 41.3792 48.8617 41.2759 48.7746 41.1888C48.6875 41.1018 48.5842 41.0327 48.4704 40.9856C48.3567 40.9384 48.2347 40.9142 48.1116 40.9142C47.9885 40.9142 47.8666 40.9384 47.7528 40.9856C47.639 41.0327 47.5357 41.1018 47.4486 41.1888Z" fill="#00A82D"/>
</svg>
