<svg width="32" height="32" viewBox="0 0 32 32" fill="none" xmlns="http://www.w3.org/2000/svg">
<rect width="32" height="32" rx="6" fill="white"/>
<path fill-rule="evenodd" clip-rule="evenodd" d="M11.582 8.72678C12.9645 8.44496 14.4526 8.29199 16.0014 8.29199C17.5502 8.29199 19.0383 8.44496 20.4207 8.72678L20.5268 8.74838C22.1057 9.06973 23.1577 9.28386 24.0642 10.4494C24.9611 11.6025 24.9606 12.9397 24.9597 15.0107V16.99C24.9606 19.061 24.9611 20.3982 24.0642 21.5512C23.1577 22.7168 22.1057 22.9309 20.5268 23.2522L20.4207 23.2739C19.0383 23.5557 17.5502 23.7087 16.0014 23.7087C14.4526 23.7087 12.9645 23.5557 11.582 23.2739L11.476 23.2522C9.8971 22.9309 8.8451 22.7168 7.93856 21.5512C7.04174 20.3982 7.04224 19.061 7.04301 16.99V15.0107C7.04224 12.9397 7.04174 11.6025 7.93856 10.4494C8.8451 9.28386 9.8971 9.06973 11.476 8.74838L11.582 8.72678ZM15.4135 12.8772C15.8456 13.0585 16.3705 13.3517 17.0122 13.7101C17.0967 13.7573 17.1817 13.8041 17.2667 13.8511C17.6862 14.0826 18.1081 14.3156 18.4972 14.5953C18.8468 14.8467 19.1786 15.1583 19.2884 15.6127C19.3501 15.8678 19.3501 16.1328 19.2884 16.3879C19.1786 16.8423 18.8468 17.1539 18.4972 17.4053C18.1081 17.6851 17.6861 17.9181 17.2666 18.1497C17.1816 18.1966 17.0967 18.2434 17.0122 18.2906C16.3705 18.649 15.8457 18.9421 15.4135 19.1235C14.711 19.4182 13.9661 19.4422 13.3538 18.9405C12.9706 18.6265 12.8351 18.1769 12.7757 17.7239C12.6321 16.629 12.632 15.3722 12.7757 14.2768C12.8351 13.8237 12.9706 13.3741 13.3538 13.0602C13.9661 12.5585 14.711 12.5824 15.4135 12.8772Z" fill="#00A82D"/>
</svg>
