<svg width="32" height="32" viewBox="0 0 32 32" fill="none" xmlns="http://www.w3.org/2000/svg">
<rect width="32" height="32" rx="6" fill="white"/>
<path fill-rule="evenodd" clip-rule="evenodd" d="M10.6333 14.5072C9.73124 14.5072 9.54297 14.6792 9.54297 15.5027V16.9957C9.54297 17.8192 9.73124 17.9911 10.6333 17.9911H12.8141V23.9633C12.8141 24.7868 13.0023 24.9587 13.9044 24.9587H16.0852C16.9873 24.9587 17.1755 24.7868 17.1755 23.9633V17.9911H19.6242C20.3084 17.9911 20.4847 17.8697 20.6726 17.2692L21.1399 15.7761C21.4619 14.7474 21.2634 14.5072 20.0915 14.5072H17.1755V12.0188C17.1755 11.4691 17.6637 11.0235 18.2659 11.0235H21.3693C22.2714 11.0235 22.4596 10.8516 22.4596 10.0281V8.03736C22.4596 7.21386 22.2714 7.04199 21.3693 7.04199H18.2659C15.2549 7.04199 12.8141 9.27021 12.8141 12.0188V14.5072H10.6333Z" fill="#00A82D"/>
</svg>
