<svg width="32" height="32" viewBox="0 0 32 32" fill="none" xmlns="http://www.w3.org/2000/svg">
<rect width="32" height="32" rx="6" fill="white"/>
<path d="M17.5906 12.1855C17.5122 12.0033 17.525 11.7948 17.6248 11.6236C18.0558 10.8846 19.0789 9.91138 20.241 9.3155C21.395 8.72375 22.9257 8.39393 24.1782 9.38822C25.2424 10.2331 25.0166 11.825 24.6956 12.9702C24.3015 14.3761 23.4978 16.0046 22.5327 17.5281C21.5657 19.0545 20.412 20.5147 19.2907 21.576C18.4388 22.3824 17.2297 23.4208 15.9609 23.2795C13.9856 23.2514 13.0501 21.1914 12.5408 19.5788C12.2066 18.5209 11.9606 17.3521 11.7403 16.3054L11.7339 16.2752C11.5626 15.4614 11.4072 14.7234 11.2339 14.1187C11.0726 13.5561 10.8086 13.1207 10.1986 13.3823C9.69395 13.5988 9.09805 13.6882 8.54365 13.5886C7.98019 13.4874 7.41644 13.1777 7.10935 12.5655C6.9815 12.3107 7.04234 12.0016 7.25724 11.8142C8.93527 10.351 10.2493 9.43723 11.3062 9.00733C12.3901 8.56647 13.3247 8.59482 14.0594 9.21133C14.7123 9.75925 15.0778 10.6826 15.3579 11.6432C15.5321 12.2411 15.6939 12.9372 15.8627 13.664C16.0976 14.6749 16.2279 15.9835 16.9412 16.7814C17.3208 17.206 17.7631 16.9126 18.1061 16.5851C18.8446 15.8799 19.428 14.7658 19.5639 13.7597C19.6381 13.2105 19.4216 12.917 18.9086 12.7538C18.485 12.6191 17.7967 12.6644 17.5906 12.1855Z" fill="#00A82D"/>
</svg>
