<svg width="32" height="32" viewBox="0 0 32 32" fill="none" xmlns="http://www.w3.org/2000/svg">
<rect width="32" height="32" rx="6" fill="white"/>
<path d="M7.96408 8.31761C8.10299 8.04594 8.38238 7.875 8.6875 7.875H12.75C13.0109 7.875 13.2559 8.00028 13.4087 8.21179L17.2795 13.5714L22.738 8.11298C23.0553 7.79568 23.5697 7.79568 23.887 8.11298C24.2043 8.43028 24.2043 8.94473 23.887 9.26202L18.2433 14.9058L23.9712 22.8367C24.1498 23.0842 24.1748 23.4108 24.0359 23.6824C23.897 23.9541 23.6176 24.125 23.3125 24.125H19.25C18.9891 24.125 18.7441 23.9998 18.5913 23.7882L14.7205 18.4286L9.26203 23.887C8.94473 24.2043 8.43028 24.2043 8.11298 23.887C7.79568 23.5697 7.79568 23.0552 8.11298 22.738L13.7568 17.0942L8.02883 9.16321C7.85018 8.91586 7.82518 8.58928 7.96408 8.31761Z" fill="#00A82D"/>
</svg>
