<svg width="32" height="32" viewBox="0 0 32 32" fill="none" xmlns="http://www.w3.org/2000/svg">
<rect width="32" height="32" rx="6" fill="white"/>
<path d="M10.1654 13.5H9.7487C8.96302 13.5 8.57019 13.5 8.32611 13.7441C8.08203 13.9882 8.08203 14.381 8.08203 15.1667V22.25C8.08203 23.0357 8.08203 23.4285 8.32611 23.6726C8.57019 23.9167 8.96302 23.9167 9.7487 23.9167H10.1654C10.951 23.9167 11.3439 23.9167 11.588 23.6726C11.832 23.4285 11.832 23.0357 11.832 22.25V15.1667C11.832 14.381 11.832 13.9882 11.588 13.7441C11.3439 13.5 10.951 13.5 10.1654 13.5Z" fill="#00A82D"/>
<path d="M11.832 9.95801C11.832 10.9935 10.9926 11.833 9.95703 11.833C8.9215 11.833 8.08203 10.9935 8.08203 9.95801C8.08203 8.92247 8.9215 8.08301 9.95703 8.08301C10.9926 8.08301 11.832 8.92247 11.832 9.95801Z" fill="#00A82D"/>
<path d="M15.855 13.5H15.1667C14.381 13.5 13.9882 13.5 13.7441 13.7441C13.5 13.9882 13.5 14.381 13.5 15.1667V22.25C13.5 23.0357 13.5 23.4285 13.7441 23.6726C13.9882 23.9167 14.381 23.9167 15.1667 23.9167H15.5833C16.369 23.9167 16.7618 23.9167 17.0059 23.6726C17.25 23.4285 17.25 23.0357 17.25 22.25L17.2501 19.3334C17.2501 17.9527 17.6901 16.8334 18.9899 16.8334C19.6398 16.8334 20.1667 17.3931 20.1667 18.0834V21.8334C20.1667 22.6191 20.1667 23.0119 20.4107 23.256C20.6547 23.5001 21.0477 23.5001 21.8333 23.5001H22.2489C23.0344 23.5001 23.4272 23.5001 23.6712 23.2561C23.9153 23.0121 23.9154 22.6193 23.9156 21.8338L23.9167 17.2502C23.9167 15.1792 21.947 13.5002 19.9973 13.5002C18.8874 13.5002 17.8973 14.0442 17.2501 14.895C17.25 14.3699 17.25 14.1074 17.136 13.9125C17.0638 13.789 16.9609 13.6863 16.8375 13.6141C16.6426 13.5 16.3801 13.5 15.855 13.5Z" fill="#00A82D"/>
</svg>
