<svg width="32" height="32" viewBox="0 0 32 32" fill="none" xmlns="http://www.w3.org/2000/svg">
<rect width="32" height="32" rx="6" fill="white"/>
<path fill-rule="evenodd" clip-rule="evenodd" d="M16.0464 7.45801C17.8719 7.458 19.3059 7.45799 20.4254 7.6085C21.5725 7.76274 22.4828 8.08527 23.1979 8.80043C23.9131 9.5156 24.2356 10.4258 24.3899 11.573C24.5404 12.6925 24.5404 14.1264 24.5404 15.952V16.0473C24.5404 17.8729 24.5404 19.3068 24.3899 20.4263C24.2356 21.5735 23.9131 22.4838 23.1979 23.1989C22.4828 23.9141 21.5725 24.2366 20.4254 24.3908C19.3059 24.5413 17.8719 24.5413 16.0464 24.5413H15.951C14.1254 24.5413 12.6916 24.5413 11.572 24.3908C10.4248 24.2366 9.51462 23.9141 8.79946 23.1989C8.0843 22.4838 7.76176 21.5735 7.60752 20.4263C7.45701 19.3068 7.45702 17.8729 7.45703 16.0473V15.952C7.45702 14.1264 7.45701 12.6925 7.60752 11.573C7.76176 10.4258 8.0843 9.5156 8.79946 8.80043C9.51462 8.08527 10.4248 7.76274 11.572 7.6085C12.6916 7.45799 14.1254 7.458 15.951 7.45801H16.0464ZM19.7487 15.9997C19.7487 18.0708 18.0698 19.7497 15.9987 19.7497C13.9276 19.7497 12.2487 18.0708 12.2487 15.9997C12.2487 13.9286 13.9276 12.2497 15.9987 12.2497C18.0698 12.2497 19.7487 13.9286 19.7487 15.9997ZM20.5923 12.2497C21.0504 12.2497 21.4219 11.8766 21.4219 11.4163C21.4219 10.9561 21.0504 10.583 20.5923 10.583H20.5848C20.1266 10.583 19.7552 10.9561 19.7552 11.4163C19.7552 11.8766 20.1266 12.2497 20.5848 12.2497H20.5923Z" fill="#00A82D"/>
</svg>
